{"glyphs":{"0":{"ha":822,"x_min":0,"x_max":0,"o":"m 408 -25 b 558 5 464 -25 514 -15 b 669 97 602 25 639 55 b 739 253 700 138 723 190 b 763 479 755 317 763 392 b 739 706 763 566 755 642 b 670 864 723 769 700 822 b 560 956 640 906 603 936 b 414 986 517 976 469 986 b 267 956 359 986 310 976 b 155 864 223 936 186 906 b 83 706 124 822 100 769 b 58 479 67 642 58 566 b 151 97 58 305 89 178 b 408 -25 212 16 298 -25 z m 411 83 b 306 110 369 83 334 92 b 237 188 277 128 254 154 b 199 313 220 222 207 263 b 188 479 191 362 188 417 b 199 646 188 541 191 597 b 237 771 207 695 220 737 b 306 849 254 805 277 831 b 411 876 334 867 369 876 b 516 849 453 876 488 867 b 584 771 544 831 567 805 b 622 646 601 737 614 695 b 633 479 629 597 633 541 b 622 313 633 417 629 362 b 584 188 614 263 601 222 b 516 110 567 154 544 128 b 411 83 488 92 453 83 z "},"1":{"ha":822,"x_min":0,"x_max":0,"o":"m 411 825 l 411 0 l 536 0 l 536 960 l 424 960 l 138 782 l 190 692 z "},"2":{"ha":822,"x_min":0,"x_max":0,"o":"m 90 100 l 90 0 l 714 0 l 732 111 l 263 111 l 345 183 l 428 253 b 560 374 479 296 523 337 b 651 482 597 411 627 447 b 705 589 675 517 693 553 b 722 706 716 625 722 664 b 702 819 722 747 716 785 b 644 908 689 854 669 883 b 549 965 618 932 587 951 b 418 986 511 979 467 986 b 275 963 362 986 314 978 b 178 903 236 948 204 928 b 117 819 152 879 131 851 b 82 722 102 788 90 756 l 197 704 b 226 779 206 733 215 758 b 267 833 236 800 250 818 b 328 865 283 847 304 858 b 415 876 352 873 381 876 b 547 830 472 876 516 861 b 594 696 579 799 594 754 b 578 597 594 661 589 628 b 528 507 567 567 550 537 b 444 415 506 477 478 447 b 328 308 411 383 372 347 l 204 200 z "},"3":{"ha":822,"x_min":0,"x_max":0,"o":"m 190 265 l 69 265 b 88 164 71 232 78 198 b 143 71 99 130 117 99 b 247 2 169 43 203 20 b 410 -25 290 -16 344 -25 b 553 -3 464 -25 512 -18 b 654 60 594 12 627 33 b 714 155 681 87 701 118 b 733 275 727 191 733 231 b 695 418 733 331 721 378 b 574 511 670 458 629 489 b 678 601 621 535 656 565 b 711 738 700 638 711 683 b 692 834 711 772 705 804 b 636 913 680 864 661 891 b 542 967 611 936 580 954 b 407 986 504 980 459 986 b 267 965 352 986 306 979 b 170 909 228 951 196 933 b 110 828 145 885 125 859 b 78 735 95 798 84 767 l 192 717 b 262 839 207 772 231 813 b 403 878 293 865 340 878 b 541 838 464 878 510 865 b 588 724 572 812 588 774 b 542 597 588 668 572 626 b 418 554 512 569 471 554 l 304 554 l 304 444 l 414 444 b 556 404 474 444 522 431 b 608 269 591 377 608 332 b 557 130 608 208 591 162 b 407 82 523 98 473 82 b 249 127 333 82 280 97 b 190 265 217 157 198 203 z "},"4":{"ha":822,"x_min":0,"x_max":0,"o":"m 54 329 l 54 239 l 513 239 l 513 0 l 629 0 l 629 239 l 744 239 l 761 338 l 629 338 l 629 960 l 511 960 z m 513 338 l 181 338 l 513 800 z "},"5":{"ha":822,"x_min":0,"x_max":0,"o":"m 211 246 l 92 246 b 184 43 99 156 130 88 b 417 -25 238 -2 316 -25 b 647 60 513 -25 590 3 b 732 308 703 116 732 199 b 715 427 732 350 726 390 b 663 526 704 465 687 497 b 572 592 640 554 609 576 b 438 617 534 609 489 617 b 322 601 393 617 355 611 b 229 551 290 590 259 574 l 256 850 l 676 850 l 676 960 l 154 960 l 111 435 l 217 435 b 303 497 243 463 271 483 b 415 517 334 510 372 517 b 565 459 485 517 534 497 b 610 307 595 421 610 370 b 558 136 610 229 592 172 b 414 82 523 100 475 82 b 271 122 348 82 300 95 b 211 246 241 148 221 189 z "},"6":{"ha":822,"x_min":0,"x_max":0,"o":"m 621 749 l 732 768 b 644 930 717 838 688 892 b 447 986 601 967 535 986 b 311 960 400 986 355 977 b 196 869 268 942 229 912 b 115 694 163 826 136 768 b 85 417 95 621 85 529 b 99 259 85 364 90 311 b 151 117 109 207 126 159 b 253 15 176 75 210 41 b 419 -25 297 -12 352 -25 b 556 -1 469 -25 515 -17 b 660 65 596 14 631 37 b 726 168 688 94 710 128 b 749 301 741 208 749 252 b 732 426 749 346 743 387 b 680 526 721 464 703 497 b 590 592 656 554 626 576 b 457 617 553 609 509 617 b 311 587 401 617 353 607 b 204 490 269 567 234 535 b 227 674 207 563 215 625 b 277 794 240 724 256 764 b 351 860 298 825 322 847 b 446 881 379 874 411 881 b 515 873 474 881 497 878 b 563 849 534 868 550 860 b 597 807 577 838 588 824 b 621 749 605 790 613 771 z m 419 76 b 335 94 387 76 359 82 b 274 142 311 106 290 122 b 235 209 257 161 244 184 b 219 289 225 234 220 261 b 234 393 218 330 222 364 b 281 464 246 422 261 445 b 351 504 301 482 325 496 b 433 517 378 513 406 517 b 525 500 469 517 500 511 b 585 453 550 489 570 473 b 619 383 601 434 612 410 b 629 297 626 356 629 328 b 572 135 629 228 610 174 b 419 76 534 96 483 76 z "},"7":{"ha":822,"x_min":0,"x_max":0,"o":"m 235 0 l 371 0 b 519 440 413 153 462 300 b 715 857 576 581 641 720 l 715 960 l 61 960 l 61 850 l 579 850 b 386 437 507 716 443 578 b 235 0 330 296 279 150 z "},"8":{"ha":822,"x_min":0,"x_max":0,"o":"m 233 490 b 175 463 215 484 195 475 b 119 416 155 450 136 435 b 75 349 102 397 87 375 b 57 260 63 323 57 293 b 78 143 57 217 64 178 b 144 53 93 108 115 78 b 256 -5 174 28 211 9 b 411 -25 300 -18 352 -25 b 566 -5 470 -25 522 -18 b 676 53 610 9 647 28 b 742 143 706 78 728 108 b 764 260 757 178 764 217 b 747 351 764 294 758 324 b 705 419 736 377 722 400 b 649 466 688 438 669 453 b 589 494 628 478 608 488 b 692 572 630 509 664 535 b 735 718 721 608 735 657 b 716 824 735 756 728 791 b 658 910 703 857 684 886 b 557 966 631 934 598 953 b 411 986 516 979 468 986 b 267 965 356 986 307 979 b 165 908 226 951 192 932 b 106 824 138 884 119 856 b 86 718 93 791 86 756 b 129 570 86 657 100 608 b 233 490 158 533 193 506 z m 204 713 b 215 779 204 736 208 758 b 251 835 223 800 235 819 b 316 874 268 852 290 864 b 411 888 342 883 374 888 b 506 874 448 888 480 883 b 571 836 533 864 554 852 b 607 781 588 820 600 802 b 618 714 614 759 618 737 b 569 583 618 656 602 612 b 411 540 536 555 483 540 b 253 583 339 540 286 555 b 204 713 221 612 204 655 z m 182 258 b 194 331 182 284 186 308 b 233 387 202 353 215 372 b 303 423 251 402 274 414 b 413 436 333 432 369 436 b 520 424 455 436 491 432 b 590 388 549 415 573 403 b 628 331 608 372 621 353 b 640 260 636 309 640 286 b 586 126 640 204 622 159 b 413 75 550 92 492 75 b 237 126 332 75 273 92 b 182 258 200 159 182 204 z "},"9":{"ha":822,"x_min":0,"x_max":0,"o":"m 208 211 l 90 211 b 178 32 99 130 128 70 b 389 -25 229 -6 299 -25 b 559 19 458 -25 515 -10 b 663 138 603 48 638 88 b 715 313 689 188 706 246 b 729 529 725 380 729 452 b 714 693 729 584 724 638 b 661 840 704 748 686 797 b 560 946 636 884 602 919 b 397 986 517 973 463 986 b 261 963 347 986 302 978 b 157 896 220 947 186 925 b 90 792 128 867 106 833 b 67 660 75 752 67 708 b 83 535 67 615 72 574 b 136 434 94 496 112 462 b 227 367 160 406 191 384 b 360 343 264 351 308 343 b 610 471 468 343 551 386 b 596 288 610 399 605 338 b 554 167 587 239 573 198 b 484 99 536 135 512 113 b 386 78 456 85 423 78 b 264 109 332 78 292 88 b 208 211 236 130 218 164 z m 385 444 b 292 462 348 444 317 450 b 231 508 267 473 247 489 b 199 578 216 528 205 551 b 189 664 192 605 189 633 b 245 826 189 733 208 788 b 397 885 283 865 333 885 b 485 865 431 885 461 878 b 547 813 510 852 530 835 b 583 740 563 791 575 767 b 594 657 591 712 594 685 b 577 561 594 620 589 588 b 531 495 566 534 550 512 b 464 457 511 478 489 465 b 385 444 439 449 413 444 z "},"\u0000":{"ha":0,"x_min":0,"x_max":0,"o":""},"\t":{"ha":310,"x_min":0,"x_max":0,"o":""}," ":{"ha":310,"x_min":0,"x_max":0,"o":""},"!":{"ha":319,"x_min":0,"x_max":0,"o":"m 99 992 l 103 285 l 218 285 l 222 992 z m 93 161 l 93 0 l 228 0 l 228 161 z "},"\"":{"ha":464,"x_min":0,"x_max":0,"o":"m 56 986 l 64 636 l 168 636 l 178 986 z m 286 986 l 294 636 l 399 636 l 408 986 z "},"#":{"ha":822,"x_min":0,"x_max":0,"o":"m 157 244 l 118 0 l 225 0 l 265 244 l 486 244 l 444 0 l 553 0 l 592 244 l 746 244 l 746 335 l 608 335 l 654 610 l 796 610 l 796 700 l 669 700 l 708 942 l 600 942 l 561 700 l 340 700 l 382 942 l 274 942 l 235 700 l 74 700 l 74 610 l 218 610 l 172 335 l 25 335 l 25 244 z m 500 335 l 281 335 l 326 610 l 546 610 z "},"$":{"ha":822,"x_min":0,"x_max":0,"o":"m 361 -21 l 361 -153 l 453 -153 l 453 -22 b 581 7 502 -19 545 -9 b 673 68 618 23 648 43 b 728 153 697 93 716 122 b 746 254 740 185 746 219 b 676 450 746 341 723 406 b 472 536 630 494 562 522 l 453 539 l 453 885 b 522 865 480 881 503 874 b 571 828 542 855 558 843 b 603 776 584 813 595 796 b 625 713 612 757 619 736 l 739 733 b 715 815 734 760 726 788 b 666 892 704 843 688 869 b 581 953 644 916 616 936 b 453 985 547 969 504 980 l 453 1100 l 361 1100 l 361 983 b 243 956 318 979 278 969 b 153 901 208 942 178 923 b 97 822 129 878 110 852 b 76 722 83 791 76 758 b 94 607 76 678 82 639 b 147 526 106 575 124 547 b 232 473 170 504 199 486 b 347 442 265 459 304 449 l 361 439 l 361 79 b 169 264 245 91 181 153 l 51 264 b 140 63 59 178 88 111 b 361 -21 191 14 265 -13 z m 453 78 l 453 422 l 465 421 b 544 396 498 415 524 407 b 592 356 565 385 581 372 b 616 307 604 341 612 325 b 622 254 620 289 622 272 b 582 135 622 207 609 167 b 453 78 555 103 512 84 z m 361 885 l 361 556 b 278 581 328 562 300 571 b 227 619 257 592 240 604 b 201 667 215 633 206 649 b 194 728 197 685 194 706 b 231 828 194 765 207 798 b 361 885 256 859 299 877 z "},"%":{"ha":1275,"x_min":0,"x_max":0,"o":"m 451 0 l 939 960 l 821 960 l 333 0 z m 983 -26 b 1082 -8 1019 -26 1052 -20 b 1158 46 1112 4 1137 22 b 1208 138 1180 70 1196 101 b 1225 272 1219 176 1225 220 b 1207 405 1225 323 1219 367 b 1157 498 1195 442 1178 473 b 1081 553 1136 522 1110 541 b 983 571 1051 565 1019 571 b 888 553 949 571 917 565 b 812 498 859 541 834 522 b 760 405 790 473 773 442 b 742 272 748 367 742 323 b 760 138 742 220 748 176 b 810 46 772 101 789 70 b 887 -8 832 22 858 4 b 983 -26 916 -20 948 -26 z m 983 72 b 888 120 942 72 910 88 b 854 272 865 152 854 203 b 888 424 854 341 865 391 b 983 472 910 456 942 472 b 1079 424 1025 472 1057 456 b 1113 272 1101 391 1113 341 b 1079 120 1113 203 1101 152 b 983 72 1057 88 1025 72 z m 290 385 b 389 403 326 385 359 391 b 465 457 419 415 444 433 b 515 549 487 481 503 512 b 532 683 526 587 532 631 b 514 816 532 734 526 778 b 464 909 502 853 485 884 b 388 964 443 934 417 952 b 290 982 358 976 325 982 b 195 964 256 982 224 976 b 119 909 166 952 141 934 b 67 816 97 884 80 853 b 49 683 55 778 49 734 b 67 549 49 631 55 587 b 117 457 79 512 96 481 b 194 403 139 433 165 415 b 290 385 223 391 255 385 z m 290 483 b 194 531 249 483 217 499 b 161 683 172 563 161 614 b 194 835 161 752 172 802 b 290 883 217 867 249 883 b 386 835 332 883 364 867 b 419 683 408 802 419 752 b 386 531 419 614 408 563 b 290 483 364 499 332 483 z "},"&":{"ha":885,"x_min":0,"x_max":0,"o":"m 667 86 l 740 0 l 883 0 l 738 169 b 794 308 762 211 781 257 b 818 467 808 358 816 411 l 706 467 b 695 357 704 427 700 390 b 665 256 690 324 680 290 l 428 535 b 503 583 454 550 479 566 b 566 638 527 599 548 617 b 609 706 584 658 598 681 b 625 793 620 731 625 760 b 610 872 625 821 620 847 b 567 938 601 897 586 919 b 496 981 548 956 525 971 b 396 997 467 992 434 997 b 301 981 362 997 330 992 b 228 935 273 969 248 954 b 181 867 207 916 192 894 b 164 782 169 841 164 813 b 197 655 164 735 175 692 b 268 554 219 617 243 584 b 184 502 238 538 210 521 b 115 438 158 483 134 462 b 67 359 95 415 79 388 b 49 260 55 330 49 297 b 66 153 49 223 54 187 b 123 63 78 119 97 88 b 228 1 149 37 184 16 b 392 -22 272 -15 327 -22 b 550 8 451 -22 504 -12 b 667 86 596 28 635 54 z m 328 482 l 600 161 b 521 101 580 137 553 117 b 403 76 488 84 449 76 b 292 92 358 76 322 81 b 222 133 263 102 240 116 b 185 197 205 151 192 172 b 174 275 177 221 174 247 b 186 343 174 300 178 323 b 220 399 194 363 206 382 b 269 444 234 415 251 430 b 328 482 288 457 307 470 z m 369 601 b 307 683 347 626 326 654 b 278 781 288 713 278 745 b 309 874 278 821 288 853 b 399 907 330 896 360 907 b 484 876 434 907 462 897 b 517 785 506 856 517 825 b 503 722 517 762 512 741 b 469 673 495 704 483 687 b 421 633 454 659 438 645 b 369 601 403 621 386 611 z "},"'":{"ha":233,"x_min":0,"x_max":0,"o":"m 56 986 l 64 636 l 168 636 l 178 986 z "},"(":{"ha":365,"x_min":0,"x_max":0,"o":"m 235 -172 l 350 -172 b 236 117 296 -77 258 20 b 203 424 214 215 203 317 b 236 730 203 530 214 632 b 350 1019 258 828 296 924 l 235 1019 b 115 743 182 939 142 847 b 74 424 87 639 74 533 b 115 104 74 314 87 208 b 235 -172 142 0 182 -92 z "},")":{"ha":365,"x_min":0,"x_max":0,"o":"m 15 -172 l 131 -172 b 251 104 183 -92 223 0 b 292 424 278 208 292 314 b 251 743 292 533 278 639 b 131 1019 223 847 183 939 l 15 1019 b 129 730 69 924 107 828 b 163 424 151 632 163 530 b 129 117 163 317 151 215 b 15 -172 107 20 69 -77 z "},"*":{"ha":542,"x_min":0,"x_max":0,"o":"m 211 739 l 81 597 l 171 532 l 272 685 l 372 532 l 463 597 l 332 739 l 500 789 l 457 890 l 310 814 l 329 992 l 214 992 l 233 814 l 86 890 l 42 789 z "},"+":{"ha":822,"x_min":0,"x_max":0,"o":"m 356 419 l 356 133 l 467 133 l 467 419 l 733 419 l 733 526 l 467 526 l 467 813 l 356 813 l 356 526 l 89 526 l 89 419 z "},",":{"ha":310,"x_min":0,"x_max":0,"o":"m 104 165 l 63 -135 l 160 -135 l 232 165 z "},"-":{"ha":542,"x_min":0,"x_max":0,"o":"m 67 467 l 67 346 l 475 346 l 475 467 z "},".":{"ha":311,"x_min":0,"x_max":0,"o":"m 86 163 l 86 0 l 225 0 l 225 163 z "},"/":{"ha":460,"x_min":0,"x_max":0,"o":"m 135 0 l 450 1019 l 325 1019 l 10 0 z "},":":{"ha":311,"x_min":0,"x_max":0,"o":"m 86 163 l 86 0 l 225 0 l 225 163 z m 86 718 l 86 556 l 225 556 l 225 718 z "},";":{"ha":311,"x_min":0,"x_max":0,"o":"m 86 718 l 86 556 l 225 556 l 225 718 z m 104 165 l 63 -135 l 160 -135 l 232 165 z "},"<":{"ha":822,"x_min":0,"x_max":0,"o":"m 107 518 l 107 424 l 731 135 l 731 254 l 247 472 l 731 690 l 731 807 z "},"=":{"ha":822,"x_min":0,"x_max":0,"o":"m 111 372 l 111 264 l 711 264 l 711 372 z m 111 682 l 111 574 l 711 574 l 711 682 z "},">":{"ha":822,"x_min":0,"x_max":0,"o":"m 92 253 l 92 135 l 715 424 l 715 518 l 92 807 l 92 689 l 572 468 z "},"?":{"ha":696,"x_min":0,"x_max":0,"o":"m 272 306 l 272 285 l 392 285 l 392 303 b 403 366 392 326 396 347 b 434 419 411 385 422 403 b 477 468 447 436 461 452 l 526 517 b 603 614 556 545 582 578 b 636 751 625 650 636 696 b 617 854 636 788 630 823 b 562 936 605 886 586 913 b 472 990 537 959 507 977 b 347 1008 436 1002 394 1008 b 213 987 295 1008 251 1001 b 119 930 176 972 144 953 b 60 849 94 906 75 879 b 28 753 45 818 34 786 l 139 735 b 209 864 155 794 178 837 b 346 904 240 891 286 904 b 472 858 401 904 443 889 b 511 738 500 828 513 788 b 483 633 511 695 502 660 b 422 560 465 605 444 581 l 370 507 b 322 451 352 489 336 471 b 286 387 307 432 295 410 b 272 306 277 363 272 336 z m 264 161 l 264 0 l 399 0 l 399 161 z "},"@":{"ha":1325,"x_min":0,"x_max":0,"o":"m 1111 -76 l 990 -76 b 936 -129 974 -96 956 -113 b 867 -169 917 -145 894 -158 b 774 -195 840 -181 809 -189 b 650 -204 738 -201 697 -204 b 450 -171 576 -204 509 -193 b 299 -76 391 -149 341 -117 b 205 74 258 -34 227 15 b 172 271 183 132 172 198 b 211 503 172 356 185 434 b 320 683 237 573 273 633 b 486 799 367 733 422 772 b 694 840 550 827 619 840 b 887 812 765 840 829 831 b 1036 729 945 793 994 765 b 1133 596 1078 693 1110 649 b 1167 414 1155 543 1167 482 b 1150 265 1167 356 1161 307 b 1106 161 1139 224 1124 189 b 1041 99 1087 133 1066 113 b 964 79 1016 86 991 79 b 894 149 918 79 894 102 b 897 169 894 153 895 160 l 978 621 l 868 621 b 859 576 865 608 862 593 b 851 532 856 560 853 545 b 777 610 832 567 807 593 b 674 636 747 628 713 636 b 543 608 626 636 583 627 b 440 527 503 589 469 562 b 373 403 412 492 389 451 b 349 246 357 356 349 303 b 364 144 349 210 354 176 b 409 62 374 113 389 85 b 482 6 429 38 453 20 b 582 -14 511 -7 544 -14 b 699 13 625 -14 664 -5 b 797 103 735 31 768 61 b 849 19 804 63 821 35 b 957 -6 878 3 913 -6 b 1078 22 1000 -6 1040 4 b 1178 104 1117 41 1150 68 b 1246 238 1207 140 1229 185 b 1271 424 1263 291 1271 353 b 1227 641 1271 505 1256 578 b 1106 801 1198 704 1158 758 b 924 901 1055 845 994 878 b 694 935 853 923 777 935 b 553 919 649 935 602 929 b 410 868 505 908 457 891 b 277 780 364 845 319 816 b 166 652 235 744 198 702 b 90 481 134 603 109 546 b 63 265 72 417 63 345 b 106 31 63 178 77 100 b 226 -147 134 -39 174 -98 b 409 -258 277 -195 338 -232 b 643 -297 480 -284 558 -297 b 936 -238 763 -297 861 -278 b 1111 -76 1011 -199 1069 -145 z m 810 336 l 804 300 b 782 217 799 271 791 244 b 744 148 773 191 760 168 b 686 100 729 128 709 112 b 601 82 663 88 635 82 b 506 125 563 82 531 96 b 468 257 481 154 468 198 b 485 382 468 304 474 346 b 532 472 497 418 513 448 b 599 526 551 496 574 514 b 679 544 625 538 651 544 b 741 532 703 544 724 540 b 783 500 758 524 772 513 b 806 455 793 487 801 472 b 815 404 811 438 814 421 b 815 369 816 392 816 381 b 810 336 813 358 812 347 z "},"A":{"ha":936,"x_min":0,"x_max":0,"o":"m 401 992 l 15 0 l 149 0 l 253 276 l 678 276 l 782 0 l 921 0 l 536 992 z m 639 388 l 292 388 l 464 847 z "},"B":{"ha":878,"x_min":0,"x_max":0,"o":"m 110 992 l 110 0 l 464 0 b 632 22 531 0 587 7 b 742 83 677 37 714 57 b 802 174 769 109 790 140 b 821 288 815 209 821 247 b 813 358 821 312 818 335 b 785 423 808 380 799 402 b 733 480 772 444 754 463 b 650 525 711 497 683 512 b 759 615 702 549 738 579 b 790 738 780 651 790 692 b 775 837 790 773 785 806 b 720 917 765 868 747 895 b 613 972 694 940 658 958 b 439 992 567 985 509 992 z m 456 572 l 235 572 l 235 886 l 435 886 b 613 850 519 886 578 874 b 665 733 648 826 665 787 b 617 613 665 681 649 641 b 456 572 584 586 531 572 z m 460 106 l 235 106 l 235 464 l 469 464 b 642 417 550 464 607 448 b 693 283 676 386 693 342 b 683 209 693 256 690 231 b 645 153 676 187 663 169 b 573 118 627 138 603 126 b 460 106 543 110 505 106 z "},"C":{"ha":986,"x_min":0,"x_max":0,"o":"m 922 326 l 790 326 b 764 229 785 291 776 259 b 715 153 752 200 735 174 b 635 103 694 131 667 115 b 519 86 603 92 565 86 b 387 115 469 86 425 96 b 290 199 348 135 316 163 b 229 328 263 235 243 278 b 208 496 215 379 208 435 b 229 663 208 557 215 613 b 290 792 243 714 263 757 b 387 876 316 828 348 856 b 518 906 425 896 469 906 b 624 890 560 906 595 900 b 699 843 653 879 678 863 b 751 769 720 823 737 798 b 783 671 764 740 775 707 l 908 692 b 865 824 898 740 884 784 b 790 926 846 863 821 898 b 676 993 759 955 721 977 b 518 1017 632 1009 579 1017 b 342 982 455 1017 397 1005 b 201 881 288 959 241 925 b 108 717 162 836 131 781 b 75 494 86 652 75 578 b 106 274 75 412 85 339 b 194 111 127 210 156 156 b 333 10 232 67 279 33 b 518 -25 388 -13 450 -25 b 684 1 581 -25 636 -16 b 806 75 732 19 772 44 b 885 187 839 106 865 144 b 922 326 904 230 917 276 z "},"D":{"ha":992,"x_min":0,"x_max":0,"o":"m 110 992 l 110 0 l 425 0 b 631 32 501 0 569 11 b 786 126 692 53 744 85 b 884 283 829 168 861 220 b 918 503 907 346 918 419 b 886 718 918 585 907 657 b 795 871 865 779 834 830 b 651 962 756 912 708 942 b 457 992 594 982 529 992 z m 431 111 l 238 111 l 238 882 l 457 882 b 606 856 514 882 564 873 b 708 781 647 839 681 814 b 766 661 734 748 753 708 b 785 500 778 614 785 560 b 700 215 785 379 756 284 b 431 111 644 146 554 111 z "},"E":{"ha":825,"x_min":0,"x_max":0,"o":"m 110 992 l 110 0 l 757 0 l 778 113 l 238 113 l 238 454 l 724 454 l 724 568 l 238 568 l 238 879 l 751 879 l 751 992 z "},"F":{"ha":783,"x_min":0,"x_max":0,"o":"m 110 992 l 110 0 l 238 0 l 238 439 l 694 439 l 694 554 l 238 554 l 238 879 l 725 879 l 725 992 z "},"G":{"ha":994,"x_min":0,"x_max":0,"o":"m 544 510 l 544 399 l 794 399 l 794 161 b 676 104 759 135 720 116 b 535 86 632 92 585 86 b 390 115 479 86 431 96 b 288 199 350 135 316 163 b 228 328 261 235 241 278 b 208 496 215 379 208 435 b 228 663 208 557 215 613 b 288 793 242 714 262 757 b 385 877 313 829 346 857 b 521 907 424 897 469 907 b 623 893 561 907 595 902 b 694 853 651 884 675 871 b 742 792 714 836 730 816 b 772 713 755 768 765 741 l 896 733 b 851 849 886 776 871 815 b 777 939 832 884 807 914 b 668 997 747 964 711 983 b 521 1017 625 1010 576 1017 b 342 982 456 1017 396 1005 b 201 881 287 959 240 925 b 108 717 161 836 131 781 b 75 494 86 652 75 578 b 106 276 75 413 85 340 b 195 113 126 211 156 157 b 340 10 234 68 283 34 b 535 -25 397 -13 462 -25 b 637 -17 568 -25 602 -22 b 738 9 672 -11 705 -3 b 833 52 771 21 803 35 b 915 113 863 69 890 89 l 915 510 z "},"H":{"ha":976,"x_min":0,"x_max":0,"o":"m 110 992 l 110 0 l 238 0 l 238 453 l 739 453 l 739 0 l 867 0 l 867 992 l 739 992 l 739 572 l 238 572 l 238 992 z "},"I":{"ha":347,"x_min":0,"x_max":0,"o":"m 110 992 l 110 0 l 238 0 l 238 992 z "},"J":{"ha":829,"x_min":0,"x_max":0,"o":"m 167 297 l 38 297 b 144 53 48 186 83 105 b 392 -25 206 1 288 -25 b 639 63 496 -25 579 4 b 729 326 699 121 729 209 l 729 992 l 601 992 l 601 336 b 553 151 601 256 585 195 b 389 86 522 108 467 86 b 291 102 350 86 317 91 b 226 146 265 113 243 127 b 186 213 209 164 195 187 b 167 297 177 238 170 267 z "},"K":{"ha":903,"x_min":0,"x_max":0,"o":"m 110 992 l 110 0 l 239 0 l 239 372 l 403 536 l 739 0 l 886 0 l 496 621 l 850 992 l 704 992 l 239 517 l 239 992 z "},"L":{"ha":781,"x_min":0,"x_max":0,"o":"m 110 992 l 110 0 l 732 0 l 751 114 l 238 114 l 238 992 z "},"M":{"ha":1175,"x_min":0,"x_max":0,"o":"m 110 992 l 110 0 l 226 0 l 226 779 l 532 0 l 636 0 l 947 782 l 947 0 l 1065 0 l 1065 992 l 913 992 l 588 153 l 268 992 z "},"N":{"ha":974,"x_min":0,"x_max":0,"o":"m 110 992 l 110 0 l 233 0 l 233 783 l 742 0 l 864 0 l 864 992 l 740 992 l 740 204 l 236 992 z "},"O":{"ha":1063,"x_min":0,"x_max":0,"o":"m 532 -25 b 719 10 600 -25 663 -13 b 863 111 775 33 823 67 b 955 276 902 156 933 210 b 988 499 977 341 988 415 b 954 720 988 582 976 656 b 861 883 932 784 901 839 b 717 983 821 927 773 960 b 532 1017 661 1005 600 1017 b 348 982 465 1017 404 1005 b 203 881 292 959 244 925 b 109 717 163 836 132 781 b 75 494 86 652 75 578 b 108 272 75 411 86 337 b 202 109 131 207 162 153 b 347 9 242 65 291 32 b 532 -25 403 -14 464 -25 z m 532 86 b 390 115 477 86 430 96 b 289 198 349 135 316 162 b 228 327 262 234 242 277 b 208 496 215 378 208 434 b 228 663 208 557 215 613 b 290 793 242 714 262 757 b 391 876 317 829 351 857 b 532 906 431 896 478 906 b 671 876 585 906 631 896 b 772 793 711 857 744 829 b 833 663 799 757 819 714 b 854 496 847 613 854 557 b 833 327 854 434 847 378 b 772 198 819 277 799 234 b 672 115 745 162 712 135 b 532 86 631 96 585 86 z "},"P":{"ha":869,"x_min":0,"x_max":0,"o":"m 110 992 l 110 0 l 236 0 l 236 385 l 442 385 b 621 410 514 385 574 393 b 733 478 668 426 706 449 b 792 578 761 506 781 540 b 808 697 803 616 808 656 b 792 810 808 737 803 775 b 735 904 782 846 763 877 b 623 968 708 931 671 952 b 442 992 575 984 515 992 z m 440 493 l 236 493 l 236 883 l 439 883 b 556 872 486 883 525 879 b 631 836 587 864 612 852 b 669 776 649 820 662 800 b 681 693 677 752 681 725 b 670 610 681 663 677 635 b 633 547 663 586 651 565 b 560 507 616 530 591 516 b 440 493 528 498 488 493 z "},"Q":{"ha":1063,"x_min":0,"x_max":0,"o":"m 768 33 l 892 -114 l 974 -43 l 853 100 b 953 267 896 144 930 200 b 988 499 976 334 988 412 b 954 720 988 582 976 656 b 861 883 932 784 901 839 b 717 983 821 927 773 960 b 532 1017 661 1005 600 1017 b 348 982 465 1017 404 1005 b 203 881 292 959 244 925 b 109 717 163 836 132 781 b 75 494 86 652 75 578 b 108 272 75 411 86 337 b 202 109 131 207 162 153 b 347 9 242 65 291 32 b 532 -25 403 -14 464 -25 b 659 -10 577 -25 620 -20 b 768 33 698 0 735 15 z m 569 274 l 692 126 b 532 86 646 100 593 86 b 390 115 477 86 430 96 b 289 198 349 135 316 162 b 228 327 262 234 242 277 b 208 496 215 378 208 434 b 228 663 208 557 215 613 b 290 793 242 714 262 757 b 391 876 317 829 351 857 b 532 906 431 896 478 906 b 671 876 585 906 631 896 b 772 793 711 857 744 829 b 833 663 799 757 819 714 b 854 496 847 613 854 557 b 772 197 854 370 827 270 l 651 343 z "},"R":{"ha":878,"x_min":0,"x_max":0,"o":"m 110 992 l 110 0 l 236 0 l 236 411 l 432 411 b 469 412 443 411 456 411 b 508 415 483 412 496 413 l 696 0 l 839 0 l 631 446 b 760 550 691 471 734 506 b 800 711 787 594 800 648 b 785 813 800 745 795 779 b 728 902 775 846 756 876 b 617 967 701 928 664 950 b 435 992 569 983 509 992 z m 447 521 l 236 521 l 236 883 l 431 883 b 547 872 478 883 517 879 b 620 837 578 864 602 852 b 658 782 638 822 651 803 b 669 708 666 761 669 736 b 660 631 669 680 666 654 b 625 572 653 607 642 588 b 557 534 608 555 586 543 b 447 521 528 525 492 521 z "},"S":{"ha":893,"x_min":0,"x_max":0,"o":"m 182 282 l 54 282 b 93 143 59 228 72 182 b 178 47 114 104 143 72 b 302 -8 213 22 254 4 b 461 -25 350 -19 403 -25 b 621 -3 522 -25 575 -18 b 734 58 666 12 704 32 b 802 149 764 84 787 115 b 825 261 817 184 825 221 b 753 459 825 348 801 414 b 526 556 705 504 629 536 l 388 581 b 301 603 353 587 325 595 b 245 637 278 612 259 623 b 215 684 231 650 221 666 b 206 747 209 702 206 723 b 217 810 206 769 209 791 b 257 862 225 830 238 847 b 331 896 275 876 300 888 b 444 908 361 904 399 908 b 546 897 484 908 518 905 b 616 865 574 890 597 879 b 662 810 635 850 650 832 b 690 736 673 789 683 764 l 810 760 b 777 855 802 792 791 824 b 714 938 763 886 742 913 b 606 995 686 962 650 981 b 442 1017 562 1009 507 1017 b 297 1000 390 1017 342 1011 b 182 949 253 989 214 972 b 105 863 150 925 124 897 b 76 743 86 828 76 788 b 97 625 76 697 83 657 b 156 544 110 593 130 566 b 253 490 183 522 215 504 b 383 457 291 476 334 465 l 508 435 b 599 408 545 428 576 419 b 655 369 623 397 641 384 b 682 320 668 355 677 338 b 689 264 687 302 689 283 b 678 195 689 240 685 217 b 640 138 670 173 658 154 b 570 99 623 122 599 109 b 461 85 541 90 505 85 b 265 131 374 85 309 100 b 182 282 221 162 193 213 z "},"T":{"ha":835,"x_min":0,"x_max":0,"o":"m 353 878 l 353 0 l 482 0 l 482 878 l 810 878 l 810 992 l 25 992 l 25 878 z "},"U":{"ha":947,"x_min":0,"x_max":0,"o":"m 99 992 l 99 399 b 197 75 99 250 131 142 b 474 -25 262 8 354 -25 b 631 -1 532 -25 584 -17 b 749 74 678 14 717 39 b 823 203 781 108 806 151 b 849 393 840 256 849 319 l 849 992 l 721 992 l 721 393 b 665 163 721 291 702 215 b 475 86 628 112 565 86 b 284 163 386 86 322 112 b 226 393 246 213 226 290 l 226 992 z "},"V":{"ha":925,"x_min":0,"x_max":0,"o":"m 18 992 l 399 0 l 528 0 l 908 992 l 771 992 l 464 165 l 163 992 z "},"W":{"ha":1293,"x_min":0,"x_max":0,"o":"m 17 992 l 299 0 l 429 0 l 646 829 l 867 0 l 1001 0 l 1276 992 l 1140 992 l 935 176 l 721 988 l 583 988 l 368 176 l 161 992 z "},"X":{"ha":886,"x_min":0,"x_max":0,"o":"m 365 524 l 15 0 l 156 0 l 435 422 l 722 0 l 871 0 l 513 518 l 833 992 l 696 992 l 442 615 l 192 992 l 42 992 z "},"Y":{"ha":851,"x_min":0,"x_max":0,"o":"m 364 421 l 364 0 l 493 0 l 493 421 l 832 992 l 697 992 l 428 533 l 165 992 l 18 992 z "},"Z":{"ha":814,"x_min":0,"x_max":0,"o":"m 43 99 l 43 0 l 761 0 l 781 114 l 196 114 l 764 892 l 764 992 l 53 992 l 53 879 l 613 879 z "},"[":{"ha":393,"x_min":0,"x_max":0,"o":"m 104 1019 l 104 -172 l 378 -172 l 378 -68 l 228 -68 l 228 915 l 378 915 l 378 1019 z "},"\\":{"ha":460,"x_min":0,"x_max":0,"o":"m 133 1019 l 10 1019 l 326 0 l 450 0 z "},"]":{"ha":393,"x_min":0,"x_max":0,"o":"m 15 -68 l 15 -172 l 288 -172 l 288 1019 l 15 1019 l 15 915 l 164 915 l 164 -68 z "},"^":{"ha":822,"x_min":0,"x_max":0,"o":"m 360 985 l 78 419 l 203 419 l 408 846 l 615 419 l 744 419 l 463 985 z "},"_":{"ha":694,"x_min":0,"x_max":0,"o":"m 0 -171 l 0 -243 l 694 -243 l 694 -171 z "},"`":{"ha":543,"x_min":0,"x_max":0,"o":"m 118 1018 l 306 821 l 425 821 l 267 1018 z "},"a":{"ha":747,"x_min":0,"x_max":0,"o":"m 540 99 l 540 0 l 657 0 l 657 467 b 642 582 657 509 652 548 b 594 668 633 616 617 645 b 508 722 572 691 543 709 b 376 740 472 734 428 740 b 176 695 292 740 225 725 b 83 551 127 665 96 617 l 193 539 b 246 617 201 572 219 598 b 372 646 273 636 315 646 b 499 606 431 646 473 632 b 538 474 525 579 538 535 l 538 446 l 414 442 b 279 428 368 440 323 435 b 162 390 236 420 197 408 b 78 318 127 373 99 349 b 47 199 58 288 47 248 b 65 104 47 163 53 131 b 116 37 77 77 94 55 b 194 -3 138 19 164 5 b 293 -17 224 -12 257 -17 b 442 17 352 -17 402 -5 b 540 99 481 40 514 67 z m 538 360 l 538 279 b 478 135 538 218 518 170 b 311 82 438 100 382 82 b 203 115 261 82 225 93 b 171 201 182 136 171 165 b 183 265 171 225 175 247 b 223 312 191 284 204 299 b 300 342 242 324 268 334 b 422 356 332 349 373 354 z "},"b":{"ha":829,"x_min":0,"x_max":0,"o":"m 93 992 l 93 0 l 213 0 l 213 92 b 319 3 244 50 279 21 b 440 -22 358 -14 399 -22 b 573 5 489 -22 534 -13 b 674 82 612 23 646 49 b 738 203 701 115 723 156 b 760 364 752 251 760 305 b 741 516 760 419 753 470 b 684 635 728 562 709 601 b 588 713 659 668 627 694 b 454 740 550 731 505 740 b 317 708 401 740 356 730 b 214 618 278 687 244 657 l 214 992 z m 213 339 l 213 388 b 229 498 213 429 218 466 b 276 577 240 530 256 556 b 346 624 296 598 319 614 b 433 640 373 635 402 640 b 506 626 458 640 483 636 b 569 581 530 617 551 602 b 615 495 588 559 603 531 b 632 363 626 459 632 415 b 616 231 632 311 627 267 b 572 142 605 194 591 165 b 506 93 554 120 532 103 b 424 78 481 83 453 78 b 339 92 393 78 365 83 b 272 139 313 102 291 118 b 228 220 254 160 239 187 b 213 339 218 253 213 293 z "},"c":{"ha":776,"x_min":0,"x_max":0,"o":"m 715 243 l 593 243 b 538 122 585 192 566 152 b 408 78 510 93 467 78 b 310 100 369 78 337 85 b 244 160 283 115 261 135 b 208 250 228 186 216 216 b 197 360 201 284 197 321 b 209 469 197 399 201 435 b 247 559 217 504 229 534 b 313 619 264 584 286 604 b 410 640 339 633 372 640 b 481 628 438 640 461 636 b 532 595 501 621 518 609 b 565 544 546 581 557 564 b 583 481 572 525 579 504 l 704 503 b 614 677 691 577 661 635 b 414 740 567 719 500 740 b 269 713 360 740 312 731 b 161 635 227 694 191 668 b 93 514 131 601 109 561 b 69 357 77 467 69 414 b 91 199 69 299 77 246 b 155 80 105 153 127 113 b 260 4 183 47 218 22 b 406 -22 303 -13 351 -22 b 621 49 498 -22 570 1 b 715 243 672 96 703 161 z "},"d":{"ha":828,"x_min":0,"x_max":0,"o":"m 615 103 l 615 0 l 733 0 l 733 992 l 613 992 l 613 631 b 504 717 579 673 543 702 b 389 740 465 733 427 740 b 255 714 339 740 294 731 b 155 638 216 696 182 671 b 92 516 128 604 106 564 b 69 356 77 468 69 415 b 88 207 69 303 75 253 b 143 87 100 161 118 121 b 238 7 168 53 200 26 b 375 -22 277 -12 322 -22 b 513 10 428 -22 474 -11 b 615 103 551 32 586 63 z m 617 381 l 617 332 b 595 206 617 281 609 239 b 532 122 581 172 560 144 b 468 89 511 106 489 95 b 396 79 447 82 423 79 b 323 93 371 79 347 84 b 259 139 299 102 278 118 b 213 225 240 160 225 189 b 196 358 202 261 196 306 b 212 488 196 409 201 453 b 256 576 222 524 237 553 b 323 625 275 598 297 615 b 406 640 348 635 376 640 b 474 631 431 640 453 637 b 536 596 495 624 516 613 b 598 515 565 574 585 547 b 617 381 610 483 617 438 z "},"e":{"ha":792,"x_min":0,"x_max":0,"o":"m 714 201 l 597 201 b 540 109 587 163 568 132 b 408 75 513 86 469 75 b 315 94 373 75 342 81 b 248 148 288 107 266 125 b 206 228 230 171 216 197 b 192 329 197 259 192 293 l 725 329 l 725 390 b 706 531 725 441 719 488 b 649 641 694 573 675 610 b 551 714 624 672 591 696 b 408 740 512 731 464 740 b 272 715 359 740 314 732 b 165 640 231 697 195 673 b 94 519 134 608 111 568 b 69 354 78 471 69 416 b 157 77 69 236 99 143 b 408 -22 215 11 299 -22 b 622 38 501 -22 572 -2 b 714 201 671 77 702 132 z m 604 419 l 194 419 b 258 589 201 494 222 550 b 407 647 293 628 343 647 b 497 631 442 647 472 642 b 558 584 522 619 543 604 b 593 513 574 564 586 540 b 604 419 600 485 604 454 z "},"f":{"ha":464,"x_min":0,"x_max":0,"o":"m 136 622 l 136 0 l 257 0 l 257 622 l 439 622 l 439 718 l 257 718 l 257 783 b 292 877 257 829 269 860 b 375 903 315 894 343 903 b 415 901 388 903 401 902 b 457 892 428 899 442 896 l 476 986 b 415 999 455 993 435 997 b 354 1003 396 1002 375 1003 b 270 990 325 1003 297 998 b 201 949 244 981 221 967 b 153 881 181 931 165 908 b 136 781 142 853 136 819 l 136 718 l 24 718 l 24 622 z "},"g":{"ha":826,"x_min":0,"x_max":0,"o":"m 215 -67 l 96 -67 b 190 -234 105 -144 137 -200 b 413 -285 244 -268 318 -285 b 574 -257 478 -285 532 -275 b 672 -177 615 -238 648 -212 b 720 -51 695 -142 711 -100 b 733 117 729 -1 733 55 l 733 718 l 614 718 l 614 626 b 506 716 581 670 546 700 b 388 740 467 732 427 740 b 255 714 338 740 294 731 b 154 640 216 696 182 672 b 90 524 126 608 105 569 b 68 375 75 479 68 430 b 87 235 68 325 74 278 b 143 120 99 191 118 153 b 238 42 168 87 200 61 b 374 14 277 23 322 14 b 512 46 426 14 472 25 b 613 136 551 67 585 97 l 613 60 b 569 -124 613 -21 598 -82 b 411 -187 540 -166 487 -187 b 274 -160 349 -187 303 -178 b 215 -67 245 -141 225 -110 z m 615 386 l 615 363 b 599 253 615 321 610 284 b 553 176 588 222 572 197 b 484 131 533 156 510 141 b 397 115 458 120 429 115 b 323 129 372 115 347 120 b 258 174 298 138 277 153 b 213 254 240 194 225 221 b 196 376 202 288 196 328 b 212 497 196 424 201 464 b 256 579 222 531 237 558 b 323 626 275 600 297 616 b 406 640 348 635 376 640 b 485 627 433 640 460 636 b 553 583 511 618 533 604 b 599 505 572 563 588 537 b 615 386 610 473 615 433 z "},"h":{"ha":792,"x_min":0,"x_max":0,"o":"m 93 992 l 93 0 l 214 0 l 214 425 b 232 513 214 461 220 491 b 285 578 244 536 262 557 b 356 622 306 598 330 613 b 436 636 383 631 409 636 b 547 595 486 636 523 622 b 582 454 570 568 582 521 l 582 0 l 704 0 l 704 478 b 645 674 704 564 684 629 b 464 740 606 718 545 740 b 330 710 417 740 372 730 b 214 611 288 689 249 656 l 214 992 z "},"i":{"ha":313,"x_min":0,"x_max":0,"o":"m 96 718 l 96 0 l 217 0 l 217 718 z m 92 992 l 92 851 l 221 851 l 221 992 z "},"j":{"ha":313,"x_min":0,"x_max":0,"o":"m 92 992 l 92 851 l 221 851 l 221 992 z m -92 -140 l -112 -236 b -53 -252 -94 -243 -74 -248 b 22 -258 -31 -256 -6 -258 b 119 -240 61 -258 93 -252 b 178 -187 144 -227 164 -210 b 208 -108 193 -165 203 -139 b 217 -8 214 -78 217 -44 l 217 718 l 96 718 l 96 -40 b 75 -126 96 -79 89 -108 b 3 -154 61 -145 37 -154 b -49 -151 -17 -154 -34 -153 b -92 -140 -65 -148 -79 -145 z "},"k":{"ha":726,"x_min":0,"x_max":0,"o":"m 93 992 l 93 0 l 213 0 l 213 286 l 347 407 l 585 0 l 722 0 l 438 478 l 694 718 l 549 718 l 213 414 l 213 992 z "},"l":{"ha":313,"x_min":0,"x_max":0,"o":"m 96 992 l 96 0 l 217 0 l 217 992 z "},"m":{"ha":1196,"x_min":0,"x_max":0,"o":"m 93 718 l 93 0 l 214 0 l 214 428 b 235 521 214 467 221 498 b 281 578 250 544 265 563 b 414 636 322 617 367 636 b 508 599 455 636 486 624 b 540 468 529 575 540 531 l 540 0 l 661 0 l 661 453 b 679 529 661 481 667 507 b 725 586 691 551 706 570 b 793 625 747 605 770 618 b 860 636 816 632 838 636 b 914 628 880 636 898 634 b 953 602 930 623 943 615 b 978 551 964 590 972 572 b 986 469 983 529 986 502 l 986 0 l 1107 0 l 1107 497 b 1049 683 1107 582 1088 644 b 886 740 1011 721 956 740 b 753 706 839 740 794 729 b 642 606 711 684 674 650 b 569 706 626 649 602 682 b 439 740 536 729 493 740 b 319 708 398 740 358 729 b 213 608 281 686 245 653 l 213 718 z "},"n":{"ha":792,"x_min":0,"x_max":0,"o":"m 93 718 l 93 0 l 214 0 l 214 425 b 232 513 214 461 220 491 b 285 578 244 536 262 557 b 356 622 306 598 330 613 b 436 636 383 631 409 636 b 547 595 486 636 523 622 b 583 454 571 568 583 521 l 583 0 l 704 0 l 704 478 b 645 674 704 564 684 629 b 464 740 606 718 545 740 b 329 710 417 740 372 730 b 213 608 287 689 248 656 l 213 718 z "},"o":{"ha":835,"x_min":0,"x_max":0,"o":"m 415 -22 b 561 5 469 -22 518 -13 b 672 82 605 23 641 49 b 741 203 702 115 725 156 b 765 363 757 250 765 303 b 742 519 765 421 757 473 b 673 638 726 566 703 605 b 564 714 643 671 606 696 b 419 740 521 731 473 740 b 276 713 367 740 319 731 b 165 636 233 695 196 669 b 94 515 135 603 111 563 b 69 357 78 468 69 415 b 93 199 69 299 77 246 b 161 79 109 151 131 112 b 269 4 191 47 227 22 b 415 -22 312 -13 361 -22 z m 417 78 b 317 99 378 78 344 85 b 249 157 289 113 266 132 b 210 246 231 182 218 212 b 197 360 201 280 197 318 b 210 474 197 401 201 439 b 249 562 218 508 231 537 b 317 619 267 586 290 606 b 417 640 345 633 378 640 b 517 619 456 640 489 633 b 585 562 544 606 567 586 b 625 474 603 537 617 508 b 638 361 633 439 638 402 b 625 247 638 319 633 281 b 585 157 617 212 603 182 b 517 99 567 132 544 113 b 417 78 489 85 456 78 z "},"p":{"ha":829,"x_min":0,"x_max":0,"o":"m 93 718 l 93 -269 l 214 -269 l 214 89 b 320 2 245 47 281 18 b 440 -22 359 -14 400 -22 b 573 5 489 -22 534 -13 b 674 82 612 23 646 49 b 738 203 701 115 723 156 b 760 364 752 251 760 305 b 741 516 760 419 753 470 b 684 635 728 562 709 601 b 588 713 659 668 627 694 b 454 740 550 731 505 740 b 316 708 401 740 355 730 b 213 615 277 687 242 656 l 213 718 z m 213 339 l 213 388 b 229 498 213 429 218 466 b 276 577 240 530 256 556 b 346 624 296 598 319 614 b 433 640 373 635 402 640 b 506 626 458 640 483 636 b 569 581 530 617 551 602 b 615 495 588 559 603 531 b 632 363 626 459 632 415 b 616 231 632 311 627 267 b 572 142 605 194 591 165 b 506 93 554 120 532 103 b 424 78 481 83 453 78 b 339 92 393 78 365 83 b 272 139 313 102 291 118 b 228 220 254 160 239 187 b 213 339 218 253 213 293 z "},"q":{"ha":829,"x_min":0,"x_max":0,"o":"m 614 101 l 614 -269 l 735 -269 l 735 718 l 615 718 l 615 626 b 506 717 582 671 546 701 b 389 740 467 732 428 740 b 255 714 339 740 294 731 b 155 638 216 696 182 671 b 92 516 128 604 106 564 b 69 356 77 468 69 415 b 88 207 69 303 75 253 b 143 87 100 161 118 121 b 238 7 168 53 200 26 b 375 -22 277 -12 322 -22 b 511 10 427 -22 472 -11 b 614 101 550 32 584 63 z m 617 381 l 617 332 b 594 206 617 281 609 239 b 532 122 580 172 559 144 b 469 89 511 106 490 95 b 397 79 448 82 424 79 b 324 93 372 79 348 84 b 259 139 300 102 278 118 b 213 225 240 160 225 189 b 196 358 202 261 196 306 b 212 488 196 409 201 453 b 256 576 222 524 237 553 b 323 625 275 598 297 615 b 406 640 348 635 376 640 b 474 631 431 640 453 637 b 538 596 495 624 516 613 b 598 515 565 574 585 547 b 617 381 610 483 617 438 z "},"r":{"ha":508,"x_min":0,"x_max":0,"o":"m 93 718 l 93 0 l 214 0 l 214 426 b 231 507 214 457 220 484 b 279 568 243 530 259 550 b 344 608 300 587 321 600 b 413 619 368 616 390 619 b 443 617 424 619 434 619 b 471 613 452 616 462 614 l 486 725 b 422 731 469 729 447 731 b 307 699 381 731 343 720 b 213 607 271 677 239 647 l 213 718 z "},"s":{"ha":725,"x_min":0,"x_max":0,"o":"m 171 210 l 54 210 b 85 101 57 167 67 131 b 154 30 102 72 125 48 b 253 -10 183 12 216 -1 b 375 -22 291 -18 331 -22 b 501 -6 423 -22 465 -17 b 592 38 538 4 568 19 b 646 105 616 57 634 79 b 664 189 658 130 664 158 b 609 339 664 255 646 305 b 428 411 572 373 512 397 l 324 428 b 256 444 296 432 273 438 b 214 467 238 451 224 459 b 193 498 204 476 197 486 b 188 538 189 509 188 523 b 196 577 188 551 190 565 b 224 611 201 590 211 601 b 278 635 238 621 256 629 b 361 644 300 641 328 644 b 435 637 391 644 416 642 b 486 615 455 632 472 624 b 519 578 500 605 511 593 b 542 526 528 563 535 546 l 651 544 b 624 621 645 571 636 597 b 572 683 612 645 594 666 b 487 725 550 701 522 715 b 357 740 452 735 409 740 b 244 726 316 740 278 735 b 153 684 209 716 179 702 b 94 618 128 666 108 644 b 72 529 79 592 72 563 b 88 444 72 496 78 467 b 136 384 99 420 115 400 b 214 344 157 368 183 355 b 321 319 244 334 280 326 l 413 306 b 478 288 439 301 461 295 b 517 262 494 280 507 272 b 535 228 526 252 532 241 b 540 189 539 216 540 203 b 502 106 540 155 528 127 b 372 75 477 85 433 75 b 234 105 314 75 268 85 b 171 210 200 125 179 160 z "},"t":{"ha":482,"x_min":0,"x_max":0,"o":"m 135 622 l 135 233 b 142 133 135 197 137 164 b 172 54 147 103 157 76 b 232 3 187 32 207 15 b 331 -15 257 -9 290 -15 b 408 -9 360 -15 386 -13 b 468 7 429 -5 450 0 l 447 100 b 405 89 434 95 420 92 b 351 85 390 86 372 85 b 279 117 319 85 295 95 b 256 201 263 138 256 166 l 256 622 l 446 622 l 446 718 l 256 718 l 256 914 l 135 914 l 135 718 l 24 718 l 24 622 z "},"u":{"ha":779,"x_min":0,"x_max":0,"o":"m 89 718 l 89 242 b 144 44 89 154 107 88 b 321 -22 180 0 239 -22 b 453 10 368 -22 412 -12 b 567 111 494 31 531 65 l 567 0 l 686 0 l 686 718 l 565 718 l 565 293 b 547 205 565 257 559 228 b 494 140 535 182 518 161 b 349 82 451 101 402 82 b 242 124 300 82 264 96 b 210 265 221 151 210 199 l 210 718 z "},"v":{"ha":724,"x_min":0,"x_max":0,"o":"m 10 718 l 297 0 l 426 0 l 715 718 l 582 718 l 364 135 l 150 718 z "},"w":{"ha":1018,"x_min":0,"x_max":0,"o":"m 11 718 l 219 0 l 346 0 l 508 572 l 669 0 l 797 0 l 1007 718 l 879 718 l 736 146 l 575 714 l 453 714 l 288 146 l 143 718 z "},"x":{"ha":699,"x_min":0,"x_max":0,"o":"m 281 378 l 15 0 l 149 0 l 347 290 l 544 0 l 685 0 l 424 379 l 660 718 l 531 718 l 353 464 l 182 718 l 40 718 z "},"y":{"ha":726,"x_min":0,"x_max":0,"o":"m 90 -153 l 67 -250 b 125 -265 88 -257 107 -262 b 185 -269 143 -268 163 -269 b 265 -256 216 -269 243 -265 b 321 -217 286 -247 305 -234 b 364 -153 337 -199 351 -178 b 403 -68 377 -129 390 -100 l 717 718 l 583 718 l 376 154 l 150 718 l 10 718 l 314 18 l 285 -58 b 237 -144 269 -100 253 -128 b 168 -167 221 -159 198 -167 b 90 -153 142 -167 116 -162 z "},"z":{"ha":649,"x_min":0,"x_max":0,"o":"m 39 90 l 39 0 l 613 0 l 628 97 l 189 97 l 607 628 l 607 718 l 47 718 l 47 621 l 457 621 z "},"{":{"ha":400,"x_min":0,"x_max":0,"o":"m 138 269 l 138 0 b 184 -133 138 -63 153 -107 b 311 -172 215 -159 257 -172 l 393 -172 l 393 -71 l 328 -71 b 254 1 279 -71 254 -47 l 254 297 b 235 379 254 330 248 357 b 174 424 223 401 202 416 b 235 468 202 431 223 446 b 254 550 248 490 254 518 l 254 846 b 328 918 254 894 279 918 l 393 918 l 393 1019 l 311 1019 b 184 981 257 1019 215 1006 b 138 847 153 955 138 910 l 138 578 b 117 502 138 545 131 520 b 44 475 103 484 79 475 l 38 475 l 38 372 l 44 372 b 117 345 79 372 103 363 b 138 269 131 327 138 302 z "},"|":{"ha":317,"x_min":0,"x_max":0,"o":"m 99 1019 l 99 -172 l 218 -172 l 218 1019 z "},"}":{"ha":400,"x_min":0,"x_max":0,"o":"m 7 -71 l 7 -172 l 89 -172 b 216 -133 143 -172 185 -159 b 263 0 247 -107 263 -63 l 263 269 b 283 345 263 302 269 327 b 356 372 297 363 321 372 l 363 372 l 363 475 l 356 475 b 283 502 321 475 297 484 b 263 578 269 520 263 545 l 263 847 b 216 981 263 910 247 955 b 89 1019 185 1006 143 1019 l 7 1019 l 7 918 l 72 918 b 146 846 121 918 146 894 l 146 550 b 165 468 146 518 152 490 b 226 424 177 446 198 431 b 165 379 198 416 177 401 b 146 297 152 357 146 330 l 146 1 b 72 -71 146 -47 121 -71 z "},"~":{"ha":822,"x_min":0,"x_max":0,"o":"m 60 347 l 168 347 b 190 449 168 394 175 428 b 264 479 205 469 230 479 b 331 456 286 479 308 472 b 399 406 353 441 376 424 b 475 355 423 387 448 370 b 564 332 502 340 531 332 b 642 344 593 332 619 336 b 704 384 666 352 687 365 b 745 459 722 403 735 428 b 760 576 755 490 760 529 l 654 576 b 631 476 654 529 647 496 b 558 446 616 456 592 446 b 491 468 535 446 513 453 b 423 517 469 483 447 499 b 347 567 399 535 374 552 b 258 590 320 583 291 590 b 179 579 230 590 203 587 b 117 540 155 572 134 559 b 75 465 99 521 85 496 b 60 347 65 434 60 394 z "}," ":{"ha":310,"x_min":0,"x_max":0,"o":""},"¡":{"ha":319,"x_min":0,"x_max":0,"o":"m 103 433 l 99 -269 l 222 -269 l 218 433 z m 93 719 l 93 558 l 228 558 l 228 719 z "},"¢":{"ha":822,"x_min":0,"x_max":0,"o":"m 389 108 l 389 -12 l 481 -12 l 481 108 b 664 186 558 115 619 141 b 747 367 708 231 736 292 l 625 367 b 578 260 618 323 602 288 b 481 210 555 232 522 215 l 481 760 b 575 708 522 752 554 735 b 618 607 596 680 611 647 l 738 629 b 654 792 725 697 698 751 b 481 861 611 834 553 856 l 481 982 l 389 982 l 389 858 b 268 822 344 854 304 841 b 176 742 232 802 201 775 b 117 627 150 709 131 671 b 96 481 103 583 96 534 b 115 334 96 427 102 378 b 172 219 128 290 147 252 b 264 142 197 187 228 161 b 389 108 300 123 342 112 z m 389 757 l 389 210 b 313 241 359 214 334 225 b 260 301 291 257 274 277 b 231 384 247 325 237 353 b 221 483 224 415 221 448 b 231 584 221 519 224 553 b 260 666 237 615 247 642 b 313 725 274 690 291 709 b 389 757 334 741 359 751 z "},"£":{"ha":822,"x_min":0,"x_max":0,"o":"m 122 99 l 121 0 l 751 0 l 769 108 l 250 108 b 306 231 280 146 298 187 b 318 358 314 274 318 317 b 317 392 318 369 318 381 b 314 431 317 403 316 416 l 613 431 l 613 531 l 300 531 b 290 603 296 555 293 579 b 285 689 286 628 285 656 b 328 828 285 745 299 792 b 467 883 356 865 403 883 b 536 875 494 883 518 881 b 583 849 555 869 570 861 b 615 804 596 837 607 822 b 639 742 624 787 631 766 l 746 763 b 719 849 739 793 730 822 b 669 919 707 875 691 899 b 588 968 648 940 621 956 b 463 986 554 980 513 986 b 349 968 423 986 385 980 b 256 913 314 956 282 938 b 192 818 229 888 207 856 b 168 685 176 780 168 736 b 173 601 168 654 170 626 b 183 531 176 576 180 553 l 93 531 l 93 431 l 196 431 b 201 383 198 412 200 396 b 204 344 203 370 204 357 b 187 212 204 297 198 253 b 122 99 175 171 154 133 z "},"¤":{"ha":822,"x_min":0,"x_max":0,"o":"m 161 269 l 81 185 l 157 113 l 239 197 b 315 163 262 182 288 171 b 407 151 343 155 374 151 b 501 164 440 151 472 156 b 581 200 530 172 556 184 l 665 113 l 742 185 l 657 272 b 699 367 675 300 690 332 b 714 483 709 403 714 442 b 699 598 714 525 709 563 b 657 690 690 633 675 663 l 740 778 l 665 851 l 581 761 b 411 813 535 795 479 813 b 240 761 344 813 288 795 l 157 851 l 82 778 l 163 692 b 118 597 144 664 129 632 b 101 478 107 561 101 521 b 117 363 101 436 107 398 b 161 269 128 327 143 296 z m 408 247 b 319 265 373 247 343 253 b 258 313 294 276 274 292 b 224 388 243 334 231 359 b 213 481 216 416 213 447 b 224 575 213 515 216 546 b 258 649 231 604 243 628 b 319 699 274 670 294 687 b 408 717 343 711 373 717 b 499 699 444 717 474 711 b 560 649 524 687 544 670 b 594 575 575 628 587 604 b 604 481 601 546 604 515 b 594 388 604 447 601 416 b 560 313 587 359 575 334 b 499 265 544 292 524 276 b 408 247 474 253 444 247 z "},"¥":{"ha":822,"x_min":0,"x_max":0,"o":"m 101 311 l 101 218 l 353 218 l 353 0 l 474 0 l 474 218 l 728 218 l 728 311 l 474 311 l 474 414 l 489 444 l 728 444 l 728 538 l 547 538 l 790 960 l 667 960 l 414 511 l 165 960 l 32 960 l 278 538 l 101 538 l 101 444 l 335 444 l 353 414 l 353 311 z "},"¦":{"ha":317,"x_min":0,"x_max":0,"o":"m 99 1019 l 99 542 l 218 542 l 218 1019 z m 99 313 l 99 -172 l 218 -172 l 218 313 z "},"§":{"ha":732,"x_min":0,"x_max":0,"o":"m 175 76 l 57 76 b 89 -38 61 31 71 -7 b 158 -114 106 -69 129 -94 b 256 -156 186 -133 219 -147 b 381 -168 294 -164 335 -168 b 581 -122 463 -168 530 -153 b 667 21 633 -91 661 -43 b 669 56 669 33 669 44 b 664 89 668 67 667 78 b 622 177 657 124 643 153 b 536 236 600 201 571 220 b 640 314 582 255 617 281 b 675 429 663 347 675 386 b 621 568 675 487 657 533 b 449 650 585 603 527 631 l 319 683 b 252 708 292 691 269 699 b 213 736 235 716 222 726 b 194 769 203 746 197 757 b 189 804 191 780 189 792 b 228 884 189 836 202 862 b 369 917 254 906 301 917 b 447 908 400 917 426 914 b 501 884 469 903 487 895 b 537 845 516 873 528 860 b 560 793 546 830 553 813 l 669 818 b 643 888 664 841 655 865 b 591 952 631 912 614 933 b 503 999 568 971 539 987 b 368 1017 467 1011 422 1017 b 250 1003 325 1017 286 1012 b 156 963 214 995 183 981 b 94 897 130 945 109 923 b 71 806 78 870 71 840 b 107 691 71 756 83 718 b 206 624 131 664 164 641 b 102 549 160 606 126 581 b 67 439 78 516 67 480 b 120 292 67 377 84 328 b 297 207 156 256 215 227 l 421 175 b 488 150 449 168 471 159 b 528 119 505 141 519 131 b 547 84 537 108 543 97 b 551 46 550 72 551 59 b 543 0 551 29 549 14 b 515 -36 538 -14 528 -26 b 463 -60 502 -46 485 -54 b 378 -68 440 -65 412 -68 b 237 -37 316 -68 269 -58 b 175 76 205 -16 184 22 z m 353 293 l 313 303 b 242 331 283 311 259 320 b 201 364 224 341 210 352 b 181 401 191 376 184 388 b 176 440 178 414 176 427 b 206 531 176 476 186 506 b 288 574 226 555 253 569 b 326 576 300 576 313 577 b 371 568 340 575 355 573 l 428 553 b 499 526 457 544 481 535 b 540 493 516 516 530 505 b 559 456 549 481 556 469 b 564 417 562 444 564 431 b 527 326 564 379 552 348 b 432 285 503 303 471 289 b 353 293 407 282 381 285 z "},"¨":{"ha":543,"x_min":0,"x_max":0,"o":"m 89 992 l 89 854 l 211 854 l 211 992 z m 331 992 l 331 854 l 454 854 l 454 992 z "},"©":{"ha":1075,"x_min":0,"x_max":0,"o":"m 538 0 b 722 35 603 0 665 12 b 872 135 780 59 830 92 b 973 292 915 178 948 231 b 1010 496 997 353 1010 421 b 976 700 1010 571 998 639 b 879 856 953 761 921 813 b 730 956 838 899 788 933 b 538 992 672 980 608 992 b 352 956 472 992 410 980 b 201 856 294 933 244 899 b 99 700 158 813 124 761 b 63 496 75 639 63 571 b 97 292 63 421 74 353 b 194 135 120 231 153 178 b 344 35 236 92 286 59 b 538 0 403 12 467 0 z m 536 93 b 386 122 481 93 431 103 b 269 203 341 141 302 168 b 192 330 236 238 210 280 b 165 496 174 379 165 435 b 192 661 165 557 174 612 b 269 788 210 710 236 752 b 386 869 302 823 341 850 b 536 897 431 888 481 897 b 685 869 590 897 639 888 b 802 788 730 850 769 823 b 879 661 835 752 861 710 b 907 496 898 612 907 557 b 879 330 907 435 898 379 b 802 203 861 280 835 238 b 685 122 769 168 730 141 b 536 93 639 103 590 93 z m 769 415 l 665 415 b 624 333 660 377 646 350 b 539 307 601 316 573 307 b 473 322 513 307 491 312 b 429 363 455 332 440 346 b 405 423 418 380 410 400 b 397 496 400 446 397 470 b 405 569 397 522 400 546 b 430 628 410 591 418 611 b 474 669 441 646 456 659 b 540 683 492 678 514 683 b 619 656 575 683 601 674 b 658 579 638 638 651 613 l 760 597 b 692 725 750 651 728 694 b 543 772 657 756 607 772 b 436 752 503 772 468 766 b 356 695 405 739 378 720 b 305 607 333 671 316 641 b 288 493 293 573 288 535 b 351 292 288 409 309 342 b 539 218 394 243 456 218 b 699 271 608 218 662 236 b 769 415 737 306 760 354 z "},"ª":{"ha":590,"x_min":0,"x_max":0,"o":"m 418 539 l 418 475 l 514 475 l 514 815 b 503 899 514 847 510 875 b 467 963 495 924 483 945 b 401 1003 450 980 428 994 b 303 1017 375 1012 342 1017 b 85 874 177 1017 104 969 l 172 863 b 208 919 179 886 191 904 b 300 940 226 933 256 940 b 389 910 342 940 371 930 b 415 819 406 891 415 860 l 415 807 l 331 803 b 228 792 295 801 261 797 b 140 765 194 787 165 778 b 78 710 114 751 94 733 b 56 622 63 688 56 658 b 108 503 56 569 73 530 b 243 463 142 476 188 463 b 344 484 282 463 316 470 b 418 539 373 498 398 517 z m 415 735 l 415 679 b 403 615 415 654 411 633 b 364 571 396 598 382 583 b 310 549 345 560 327 552 b 257 543 292 545 275 543 b 180 565 221 543 195 550 b 157 625 165 579 157 599 b 165 669 157 642 159 656 b 192 701 170 682 179 693 b 247 722 206 710 224 716 b 336 732 270 727 300 730 z "},"«":{"ha":690,"x_min":0,"x_max":0,"o":"m 60 357 l 247 46 l 372 46 l 197 358 l 372 665 l 250 665 z m 338 357 l 525 46 l 650 46 l 475 358 l 650 665 l 528 665 z "},"¬":{"ha":822,"x_min":0,"x_max":0,"o":"m 92 600 l 92 493 l 599 493 l 599 229 l 708 229 l 708 600 z "},"­":{"ha":542,"x_min":0,"x_max":0,"o":"m 67 467 l 67 346 l 475 346 l 475 467 z "},"®":{"ha":671,"x_min":0,"x_max":0,"o":"m 224 865 l 224 579 l 289 579 l 289 685 l 342 685 l 394 579 l 467 579 l 406 699 b 442 728 423 706 435 716 b 453 778 449 741 453 757 b 448 810 453 789 451 800 b 430 838 445 821 439 830 b 393 858 421 846 409 853 b 331 865 377 863 356 865 z m 339 740 l 289 740 l 289 811 l 331 811 b 379 801 356 811 373 808 b 389 778 386 794 389 786 b 382 751 389 768 387 759 b 339 740 377 744 363 740 z m 335 417 b 447 438 375 417 412 424 b 540 497 482 451 513 471 b 601 592 566 523 587 555 b 624 717 616 629 624 670 b 603 842 624 763 617 805 b 544 936 589 879 569 910 b 453 996 519 962 489 982 b 335 1017 418 1010 378 1017 b 222 996 294 1017 256 1010 b 130 936 187 982 156 962 b 68 842 103 910 83 879 b 46 717 53 805 46 763 b 67 592 46 670 53 629 b 126 497 81 555 100 523 b 217 438 151 471 182 451 b 335 417 253 424 292 417 z m 333 482 b 178 543 269 482 218 502 b 119 717 139 584 119 642 b 178 890 119 792 139 850 b 333 951 218 931 269 951 b 490 890 397 951 449 931 b 550 717 530 850 550 792 b 490 543 550 642 530 584 b 333 482 449 502 397 482 z "},"¯":{"ha":543,"x_min":0,"x_max":0,"o":"m 90 963 l 90 864 l 453 864 l 453 963 z "},"°":{"ha":465,"x_min":0,"x_max":0,"o":"m 38 797 b 52 720 38 769 42 744 b 93 658 62 697 75 676 b 156 617 111 641 131 627 b 233 603 180 608 206 603 b 311 617 261 603 287 608 b 373 658 335 627 356 641 b 413 720 390 676 403 697 b 428 797 423 744 428 769 b 413 874 428 825 423 850 b 373 935 403 897 390 917 b 311 976 356 952 335 966 b 233 990 287 985 261 990 b 156 976 206 990 180 985 b 93 935 131 966 111 952 b 52 874 75 917 62 897 b 38 797 42 850 38 825 z m 233 690 b 159 719 203 690 178 700 b 131 797 140 738 131 764 b 159 874 131 829 140 854 b 233 904 178 894 203 904 b 306 874 263 904 287 894 b 335 797 325 854 335 829 b 306 719 335 764 325 738 b 233 690 287 700 263 690 z "},"±":{"ha":822,"x_min":0,"x_max":0,"o":"m 111 111 l 111 1 l 711 1 l 711 111 z m 356 419 l 356 133 l 467 133 l 467 419 l 733 419 l 733 526 l 467 526 l 467 813 l 356 813 l 356 526 l 89 526 l 89 419 z "},"²":{"ha":572,"x_min":0,"x_max":0,"o":"m 85 488 l 85 407 l 474 407 l 489 497 l 240 497 l 288 534 l 329 568 b 401 634 358 592 382 614 b 449 692 421 654 437 673 b 474 750 461 711 469 731 b 482 814 479 769 482 791 b 470 879 482 837 478 859 b 434 933 462 900 450 917 b 374 969 418 948 398 960 b 289 982 350 978 321 982 b 197 967 253 982 222 977 b 135 928 172 958 152 945 b 97 874 119 912 106 894 b 74 811 87 853 79 832 l 172 796 b 213 869 181 830 195 855 b 288 892 231 884 256 892 b 351 868 315 892 337 884 b 374 807 366 852 374 832 b 365 752 374 786 371 767 b 339 707 360 737 351 722 b 294 661 327 692 312 677 l 228 604 l 144 536 b 85 488 119 517 100 500 z "},"³":{"ha":572,"x_min":0,"x_max":0,"o":"m 168 572 l 74 572 b 85 510 75 553 78 532 b 120 449 92 489 104 468 b 185 403 136 430 158 415 b 288 385 212 391 246 385 b 445 435 360 385 412 402 b 494 565 478 469 494 513 b 476 645 494 595 488 622 b 411 701 463 669 442 688 b 464 755 434 717 452 735 b 482 829 476 775 482 800 b 433 939 482 874 466 910 b 285 982 401 968 351 982 b 197 968 250 982 221 977 b 135 931 172 959 152 947 b 97 880 119 916 106 899 b 76 822 87 861 80 842 l 171 807 b 209 876 179 838 192 862 b 285 899 226 891 251 899 b 382 819 350 899 382 872 b 357 756 382 791 374 770 b 293 736 340 743 319 736 l 226 736 l 226 650 l 292 650 b 364 631 321 650 345 644 b 392 564 382 619 392 596 b 285 469 392 501 356 469 b 201 497 246 469 218 478 b 168 572 184 515 173 540 z "},"´":{"ha":543,"x_min":0,"x_max":0,"o":"m 276 1018 l 118 821 l 238 821 l 425 1018 z "},"µ":{"ha":783,"x_min":0,"x_max":0,"o":"m 93 718 l 93 -269 l 214 -269 l 214 26 b 274 -12 231 7 251 -6 b 346 -21 296 -18 320 -21 b 467 10 389 -21 430 -10 b 571 108 504 31 538 64 l 571 0 l 690 0 l 690 718 l 569 718 l 569 281 b 550 201 569 251 563 225 b 500 140 537 178 520 158 b 431 96 476 120 453 105 b 361 82 409 87 386 82 b 251 121 312 82 275 95 b 214 260 226 147 214 193 l 214 718 z "},"¶":{"ha":846,"x_min":0,"x_max":0,"o":"m 340 411 l 340 -193 l 461 -193 l 461 889 l 626 889 l 626 -193 l 747 -193 l 747 992 l 417 992 b 231 969 343 992 281 984 b 113 906 182 953 142 933 b 49 813 83 880 62 849 b 29 700 36 778 29 740 b 45 594 29 663 34 628 b 98 503 56 560 73 530 b 194 439 122 477 154 456 b 340 411 233 422 282 413 z "},"·":{"ha":311,"x_min":0,"x_max":0,"o":"m 86 600 l 86 438 l 225 438 l 225 600 z "},"¸":{"ha":543,"x_min":0,"x_max":0,"o":"m 142 -206 l 142 -282 b 186 -287 157 -285 172 -287 b 226 -289 200 -288 213 -289 b 356 -264 281 -289 324 -281 b 403 -176 387 -247 403 -218 b 397 -139 403 -163 401 -151 b 377 -106 394 -127 387 -116 b 339 -81 367 -97 355 -88 b 278 -67 323 -74 303 -69 l 304 7 l 225 7 l 178 -124 l 207 -124 b 283 -134 244 -124 269 -127 b 303 -168 296 -141 303 -152 b 285 -200 303 -182 297 -193 b 225 -211 273 -207 253 -211 b 187 -210 212 -211 199 -211 b 142 -206 174 -209 159 -207 z "},"¹":{"ha":572,"x_min":0,"x_max":0,"o":"m 263 851 l 263 407 l 374 407 l 374 961 l 265 961 l 93 864 l 135 785 z "},"º":{"ha":594,"x_min":0,"x_max":0,"o":"m 296 457 b 403 477 336 457 372 464 b 485 533 435 491 463 509 b 538 622 508 557 525 587 b 556 739 550 656 556 695 b 486 942 556 825 532 893 b 299 1017 440 992 377 1017 b 193 997 260 1017 225 1010 b 111 941 162 984 134 966 b 58 852 88 916 70 887 b 39 736 45 817 39 779 b 108 532 39 650 62 582 b 296 457 155 482 217 457 z m 297 543 b 178 597 243 543 203 561 b 142 736 154 632 142 679 b 151 815 142 765 145 791 b 178 876 157 838 166 859 b 227 917 191 894 207 908 b 297 932 247 927 270 932 b 416 877 352 932 391 914 b 453 738 441 841 453 794 b 416 597 453 680 441 633 b 297 543 391 561 352 543 z "},"»":{"ha":690,"x_min":0,"x_max":0,"o":"m 215 353 l 40 46 l 163 46 l 353 354 l 165 665 l 40 665 z m 493 353 l 318 46 l 440 46 l 631 354 l 443 665 l 318 665 z "},"¼":{"ha":1265,"x_min":0,"x_max":0,"o":"m 422 0 l 910 960 l 792 960 l 304 0 z m 214 851 l 214 407 l 325 407 l 325 961 l 217 961 l 44 864 l 86 785 z m 751 199 l 751 131 l 1024 131 l 1024 1 l 1124 1 l 1124 131 l 1179 131 l 1193 213 l 1124 213 l 1124 556 l 1028 556 z m 1024 213 l 861 213 l 1024 422 z "},"½":{"ha":1265,"x_min":0,"x_max":0,"o":"m 386 0 l 874 960 l 756 960 l 268 0 z m 214 851 l 214 407 l 325 407 l 325 961 l 217 961 l 44 864 l 86 785 z m 774 82 l 774 1 l 1163 1 l 1178 92 l 929 92 l 976 128 l 1018 163 b 1090 228 1047 187 1071 209 b 1138 287 1110 248 1125 268 b 1163 344 1150 306 1158 325 b 1171 408 1168 364 1171 385 b 1159 474 1171 431 1167 453 b 1123 527 1151 494 1139 512 b 1063 563 1107 542 1087 554 b 978 576 1038 572 1010 576 b 886 562 942 576 911 572 b 824 523 861 552 841 539 b 785 468 808 507 795 488 b 763 406 776 448 768 427 l 861 390 b 902 464 870 425 884 449 b 976 486 920 479 945 486 b 1040 463 1004 486 1025 478 b 1063 401 1055 447 1063 426 b 1054 347 1063 380 1060 362 b 1028 301 1049 331 1040 316 b 983 256 1016 287 1001 271 l 917 199 l 833 131 b 774 82 808 111 788 95 z "},"¾":{"ha":1265,"x_min":0,"x_max":0,"o":"m 486 0 l 974 960 l 856 960 l 368 0 z m 751 199 l 751 131 l 1024 131 l 1024 1 l 1124 1 l 1124 131 l 1179 131 l 1193 213 l 1124 213 l 1124 556 l 1028 556 z m 1024 213 l 861 213 l 1024 422 z m 168 572 l 74 572 b 85 510 75 553 78 532 b 120 449 92 489 104 468 b 185 403 136 430 158 415 b 288 385 212 391 246 385 b 445 435 360 385 412 402 b 494 565 478 469 494 513 b 476 645 494 595 488 622 b 411 701 463 669 442 688 b 464 755 434 717 452 735 b 482 829 476 775 482 800 b 433 939 482 874 466 910 b 285 982 401 968 351 982 b 197 968 250 982 221 977 b 135 931 172 959 152 947 b 97 880 119 916 106 899 b 76 822 87 861 80 842 l 171 807 b 209 876 179 838 192 862 b 285 899 226 891 251 899 b 382 819 350 899 382 872 b 357 756 382 791 374 770 b 293 736 340 743 319 736 l 226 736 l 226 650 l 292 650 b 364 631 321 650 345 644 b 392 564 382 619 392 596 b 285 469 392 501 356 469 b 201 497 246 469 218 478 b 168 572 184 515 173 540 z "},"¿":{"ha":688,"x_min":0,"x_max":0,"o":"m 663 -31 l 551 -12 b 481 -141 536 -71 512 -114 b 344 -182 450 -168 405 -182 b 219 -137 289 -182 247 -167 b 179 -17 191 -107 177 -67 b 207 87 179 25 188 59 b 268 160 225 114 246 138 b 320 212 285 177 302 195 b 369 267 338 229 354 247 b 404 332 383 287 395 309 b 418 413 413 355 418 382 l 418 435 l 299 435 l 299 417 b 287 352 299 393 295 371 b 256 299 279 333 269 315 b 213 251 244 282 229 266 l 164 203 b 122 157 149 188 135 173 b 87 106 108 141 97 124 b 63 44 77 87 69 66 b 54 -32 57 21 54 -4 b 73 -134 54 -69 60 -103 b 128 -215 85 -165 104 -192 b 219 -267 153 -237 183 -255 b 343 -286 254 -280 296 -286 b 477 -265 395 -286 440 -279 b 571 -208 515 -250 546 -231 b 631 -126 596 -184 616 -157 b 663 -31 645 -96 656 -64 z m 292 718 l 292 557 l 426 557 l 426 718 z "},"À":{"ha":936,"x_min":0,"x_max":0,"o":"m 401 992 l 15 0 l 149 0 l 253 276 l 678 276 l 782 0 l 921 0 l 536 992 z m 639 388 l 292 388 l 464 847 z m 410 1261 l 260 1261 l 451 1074 l 572 1074 z "},"Á":{"ha":936,"x_min":0,"x_max":0,"o":"m 401 992 l 15 0 l 149 0 l 253 276 l 678 276 l 782 0 l 921 0 l 536 992 z m 639 388 l 292 388 l 464 847 z m 526 1261 l 364 1074 l 485 1074 l 676 1261 z "},"Â":{"ha":936,"x_min":0,"x_max":0,"o":"m 401 992 l 15 0 l 149 0 l 253 276 l 678 276 l 782 0 l 921 0 l 536 992 z m 639 388 l 292 388 l 464 847 z m 407 1261 l 246 1074 l 360 1074 l 467 1183 l 574 1074 l 688 1074 l 528 1261 z "},"Ã":{"ha":936,"x_min":0,"x_max":0,"o":"m 401 992 l 15 0 l 149 0 l 253 276 l 678 276 l 782 0 l 921 0 l 536 992 z m 639 388 l 292 388 l 464 847 z m 218 1082 l 310 1082 b 324 1133 310 1103 314 1120 b 374 1153 333 1146 350 1153 b 419 1141 390 1153 406 1149 l 463 1116 b 510 1091 477 1107 493 1099 b 571 1079 528 1083 548 1079 b 678 1120 616 1079 652 1093 b 717 1243 704 1147 717 1188 l 625 1243 b 611 1192 625 1222 620 1205 b 561 1172 602 1179 585 1172 b 515 1184 544 1172 529 1176 l 472 1209 b 424 1234 457 1218 441 1226 b 364 1246 407 1242 387 1246 b 257 1204 319 1246 283 1232 b 218 1082 231 1176 218 1136 z "},"Ä":{"ha":936,"x_min":0,"x_max":0,"o":"m 401 992 l 15 0 l 149 0 l 253 276 l 678 276 l 782 0 l 921 0 l 536 992 z m 639 388 l 292 388 l 464 847 z m 279 1239 l 279 1097 l 406 1097 l 406 1239 z m 528 1239 l 528 1097 l 656 1097 l 656 1239 z "},"Å":{"ha":936,"x_min":0,"x_max":0,"o":"m 388 957 l 15 0 l 149 0 l 253 276 l 678 276 l 782 0 l 921 0 l 549 958 b 594 1006 567 970 582 986 b 613 1081 606 1026 613 1051 b 601 1144 613 1105 609 1126 b 569 1189 593 1162 582 1177 b 522 1216 555 1201 540 1210 b 467 1225 505 1222 486 1225 b 365 1189 428 1225 394 1213 b 322 1081 337 1165 322 1129 b 340 1005 322 1051 328 1026 b 388 957 352 984 368 968 z m 639 388 l 292 388 l 464 847 z m 467 1010 b 417 1027 445 1010 429 1016 b 399 1081 405 1039 399 1056 b 417 1138 399 1107 405 1127 b 467 1156 429 1150 445 1156 b 517 1138 488 1156 505 1150 b 535 1081 529 1127 535 1107 b 467 1010 535 1033 512 1010 z "},"Æ":{"ha":1443,"x_min":0,"x_max":0,"o":"m 611 992 l 7 0 l 153 0 l 347 329 l 765 329 l 765 0 l 1375 0 l 1396 113 l 888 113 l 888 454 l 1342 454 l 1342 568 l 888 568 l 888 879 l 1369 879 l 1369 992 z m 765 439 l 411 439 l 674 879 l 765 879 z "},"Ç":{"ha":986,"x_min":0,"x_max":0,"o":"m 383 -221 l 383 -299 b 431 -304 401 -301 417 -303 b 472 -306 444 -305 458 -306 b 606 -280 529 -306 573 -297 b 656 -189 639 -263 656 -232 b 649 -150 656 -175 653 -162 b 628 -117 645 -138 638 -127 b 588 -90 618 -106 604 -98 b 524 -75 571 -83 550 -78 l 543 -24 b 699 8 602 -21 654 -10 b 813 83 743 27 781 52 b 887 191 844 114 869 150 b 922 326 905 232 917 277 l 790 326 b 764 229 785 291 776 259 b 715 153 752 200 735 174 b 635 103 694 131 667 115 b 519 86 603 92 565 86 b 387 115 469 86 425 96 b 290 199 348 135 316 163 b 229 328 263 235 243 278 b 208 496 215 379 208 435 b 229 663 208 557 215 613 b 290 792 243 714 263 757 b 387 876 316 828 348 856 b 518 906 425 896 469 906 b 624 890 560 906 595 900 b 699 843 653 879 678 863 b 751 769 720 823 737 798 b 783 671 764 740 775 707 l 908 692 b 865 824 898 740 884 784 b 790 926 846 863 821 898 b 676 993 759 955 721 977 b 518 1017 632 1009 579 1017 b 342 982 455 1017 397 1005 b 201 881 288 959 241 925 b 108 717 162 836 131 781 b 75 494 86 652 75 578 b 102 288 75 418 84 349 b 179 130 120 226 146 174 b 301 25 213 86 253 51 b 463 -22 348 -1 402 -17 l 422 -133 l 451 -133 b 530 -144 490 -133 516 -137 b 550 -179 543 -152 550 -163 b 532 -215 550 -195 544 -207 b 471 -228 520 -224 500 -228 b 431 -226 458 -228 445 -227 b 383 -221 418 -225 402 -224 z "},"È":{"ha":825,"x_min":0,"x_max":0,"o":"m 110 992 l 110 0 l 757 0 l 778 113 l 238 113 l 238 454 l 724 454 l 724 568 l 238 568 l 238 879 l 751 879 l 751 992 z m 392 1261 l 242 1261 l 433 1074 l 554 1074 z "},"É":{"ha":825,"x_min":0,"x_max":0,"o":"m 110 992 l 110 0 l 757 0 l 778 113 l 238 113 l 238 454 l 724 454 l 724 568 l 238 568 l 238 879 l 751 879 l 751 992 z m 485 1261 l 322 1074 l 443 1074 l 635 1261 z "},"Ê":{"ha":825,"x_min":0,"x_max":0,"o":"m 110 992 l 110 0 l 757 0 l 778 113 l 238 113 l 238 454 l 724 454 l 724 568 l 238 568 l 238 879 l 751 879 l 751 992 z m 374 1261 l 213 1074 l 326 1074 l 433 1183 l 540 1074 l 654 1074 l 494 1261 z "},"Ë":{"ha":825,"x_min":0,"x_max":0,"o":"m 110 992 l 110 0 l 757 0 l 778 113 l 238 113 l 238 454 l 724 454 l 724 568 l 238 568 l 238 879 l 751 879 l 751 992 z m 246 1239 l 246 1097 l 372 1097 l 372 1239 z m 494 1239 l 494 1097 l 622 1097 l 622 1239 z "},"Ì":{"ha":347,"x_min":0,"x_max":0,"o":"m 110 992 l 110 0 l 238 0 l 238 992 z m 107 1261 l -43 1261 l 149 1074 l 269 1074 z "},"Í":{"ha":347,"x_min":0,"x_max":0,"o":"m 110 992 l 110 0 l 238 0 l 238 992 z m 243 1261 l 81 1074 l 201 1074 l 393 1261 z "},"Î":{"ha":347,"x_min":0,"x_max":0,"o":"m 110 992 l 110 0 l 238 0 l 238 992 z m 114 1261 l -47 1074 l 67 1074 l 174 1183 l 281 1074 l 394 1074 l 235 1261 z "},"Ï":{"ha":347,"x_min":0,"x_max":0,"o":"m 110 992 l 110 0 l 238 0 l 238 992 z m -14 1239 l -14 1097 l 113 1097 l 113 1239 z m 235 1239 l 235 1097 l 363 1097 l 363 1239 z "},"Ð":{"ha":1010,"x_min":0,"x_max":0,"o":"m 128 458 l 128 0 l 443 0 b 649 32 519 0 588 11 b 804 126 710 53 762 85 b 902 283 847 168 879 220 b 936 503 925 346 936 419 b 904 718 936 585 925 657 b 813 871 883 779 853 830 b 669 962 774 912 726 942 b 475 992 612 982 547 992 l 128 992 l 128 567 l 14 567 l 14 458 z m 449 111 l 256 111 l 256 458 l 508 458 l 508 567 l 256 567 l 256 882 l 475 882 b 624 856 532 882 582 873 b 726 781 665 839 699 814 b 784 661 752 748 772 708 b 803 500 797 614 803 560 b 718 215 803 379 775 284 b 449 111 662 146 572 111 z "},"Ñ":{"ha":974,"x_min":0,"x_max":0,"o":"m 110 992 l 110 0 l 233 0 l 233 783 l 742 0 l 864 0 l 864 992 l 740 992 l 740 204 l 236 992 z m 242 1082 l 333 1082 b 347 1133 333 1103 338 1120 b 397 1153 356 1146 373 1153 b 443 1141 414 1153 429 1149 l 486 1116 b 534 1091 501 1107 517 1099 b 594 1079 551 1083 571 1079 b 701 1120 640 1079 675 1093 b 740 1243 727 1147 740 1188 l 649 1243 b 635 1192 649 1222 644 1205 b 585 1172 625 1179 609 1172 b 539 1184 568 1172 553 1176 l 496 1209 b 448 1234 481 1218 465 1226 b 388 1246 431 1242 411 1246 b 281 1204 342 1246 306 1232 b 242 1082 255 1176 242 1136 z "},"Ò":{"ha":1063,"x_min":0,"x_max":0,"o":"m 532 -25 b 719 10 600 -25 663 -13 b 863 111 775 33 823 67 b 955 276 902 156 933 210 b 988 499 977 341 988 415 b 954 720 988 582 976 656 b 861 883 932 784 901 839 b 717 983 821 927 773 960 b 532 1017 661 1005 600 1017 b 348 982 465 1017 404 1005 b 203 881 292 959 244 925 b 109 717 163 836 132 781 b 75 494 86 652 75 578 b 108 272 75 411 86 337 b 202 109 131 207 162 153 b 347 9 242 65 291 32 b 532 -25 403 -14 464 -25 z m 532 86 b 390 115 477 86 430 96 b 289 198 349 135 316 162 b 228 327 262 234 242 277 b 208 496 215 378 208 434 b 228 663 208 557 215 613 b 290 793 242 714 262 757 b 391 876 317 829 351 857 b 532 906 431 896 478 906 b 671 876 585 906 631 896 b 772 793 711 857 744 829 b 833 663 799 757 819 714 b 854 496 847 613 854 557 b 833 327 854 434 847 378 b 772 198 819 277 799 234 b 672 115 745 162 712 135 b 532 86 631 96 585 86 z m 486 1261 l 336 1261 l 528 1074 l 649 1074 z "},"Ó":{"ha":1063,"x_min":0,"x_max":0,"o":"m 532 -25 b 719 10 600 -25 663 -13 b 863 111 775 33 823 67 b 955 276 902 156 933 210 b 988 499 977 341 988 415 b 954 720 988 582 976 656 b 861 883 932 784 901 839 b 717 983 821 927 773 960 b 532 1017 661 1005 600 1017 b 348 982 465 1017 404 1005 b 203 881 292 959 244 925 b 109 717 163 836 132 781 b 75 494 86 652 75 578 b 108 272 75 411 86 337 b 202 109 131 207 162 153 b 347 9 242 65 291 32 b 532 -25 403 -14 464 -25 z m 532 86 b 390 115 477 86 430 96 b 289 198 349 135 316 162 b 228 327 262 234 242 277 b 208 496 215 378 208 434 b 228 663 208 557 215 613 b 290 793 242 714 262 757 b 391 876 317 829 351 857 b 532 906 431 896 478 906 b 671 876 585 906 631 896 b 772 793 711 857 744 829 b 833 663 799 757 819 714 b 854 496 847 613 854 557 b 833 327 854 434 847 378 b 772 198 819 277 799 234 b 672 115 745 162 712 135 b 532 86 631 96 585 86 z m 581 1261 l 418 1074 l 539 1074 l 731 1261 z "},"Ô":{"ha":1063,"x_min":0,"x_max":0,"o":"m 532 -25 b 719 10 600 -25 663 -13 b 863 111 775 33 823 67 b 955 276 902 156 933 210 b 988 499 977 341 988 415 b 954 720 988 582 976 656 b 861 883 932 784 901 839 b 717 983 821 927 773 960 b 532 1017 661 1005 600 1017 b 348 982 465 1017 404 1005 b 203 881 292 959 244 925 b 109 717 163 836 132 781 b 75 494 86 652 75 578 b 108 272 75 411 86 337 b 202 109 131 207 162 153 b 347 9 242 65 291 32 b 532 -25 403 -14 464 -25 z m 532 86 b 390 115 477 86 430 96 b 289 198 349 135 316 162 b 228 327 262 234 242 277 b 208 496 215 378 208 434 b 228 663 208 557 215 613 b 290 793 242 714 262 757 b 391 876 317 829 351 857 b 532 906 431 896 478 906 b 671 876 585 906 631 896 b 772 793 711 857 744 829 b 833 663 799 757 819 714 b 854 496 847 613 854 557 b 833 327 854 434 847 378 b 772 198 819 277 799 234 b 672 115 745 162 712 135 b 532 86 631 96 585 86 z m 471 1261 l 310 1074 l 424 1074 l 531 1183 l 638 1074 l 751 1074 l 592 1261 z "},"Õ":{"ha":1063,"x_min":0,"x_max":0,"o":"m 532 -25 b 719 10 600 -25 663 -13 b 863 111 775 33 823 67 b 955 276 902 156 933 210 b 988 499 977 341 988 415 b 954 720 988 582 976 656 b 861 883 932 784 901 839 b 717 983 821 927 773 960 b 532 1017 661 1005 600 1017 b 348 982 465 1017 404 1005 b 203 881 292 959 244 925 b 109 717 163 836 132 781 b 75 494 86 652 75 578 b 108 272 75 411 86 337 b 202 109 131 207 162 153 b 347 9 242 65 291 32 b 532 -25 403 -14 464 -25 z m 532 86 b 390 115 477 86 430 96 b 289 198 349 135 316 162 b 228 327 262 234 242 277 b 208 496 215 378 208 434 b 228 663 208 557 215 613 b 290 793 242 714 262 757 b 391 876 317 829 351 857 b 532 906 431 896 478 906 b 671 876 585 906 631 896 b 772 793 711 857 744 829 b 833 663 799 757 819 714 b 854 496 847 613 854 557 b 833 327 854 434 847 378 b 772 198 819 277 799 234 b 672 115 745 162 712 135 b 532 86 631 96 585 86 z m 282 1082 l 374 1082 b 388 1133 374 1103 378 1120 b 438 1153 397 1146 413 1153 b 483 1141 454 1153 469 1149 l 526 1116 b 574 1091 541 1107 557 1099 b 635 1079 591 1083 612 1079 b 742 1120 680 1079 716 1093 b 781 1243 768 1147 781 1188 l 689 1243 b 675 1192 689 1222 684 1205 b 625 1172 666 1179 649 1172 b 579 1184 608 1172 593 1176 l 536 1209 b 488 1234 521 1218 505 1226 b 428 1246 471 1242 451 1246 b 321 1204 382 1246 347 1232 b 282 1082 295 1176 282 1136 z "},"Ö":{"ha":1063,"x_min":0,"x_max":0,"o":"m 532 -25 b 719 10 600 -25 663 -13 b 863 111 775 33 823 67 b 955 276 902 156 933 210 b 988 499 977 341 988 415 b 954 720 988 582 976 656 b 861 883 932 784 901 839 b 717 983 821 927 773 960 b 532 1017 661 1005 600 1017 b 348 982 465 1017 404 1005 b 203 881 292 959 244 925 b 109 717 163 836 132 781 b 75 494 86 652 75 578 b 108 272 75 411 86 337 b 202 109 131 207 162 153 b 347 9 242 65 291 32 b 532 -25 403 -14 464 -25 z m 532 86 b 390 115 477 86 430 96 b 289 198 349 135 316 162 b 228 327 262 234 242 277 b 208 496 215 378 208 434 b 228 663 208 557 215 613 b 290 793 242 714 262 757 b 391 876 317 829 351 857 b 532 906 431 896 478 906 b 671 876 585 906 631 896 b 772 793 711 857 744 829 b 833 663 799 757 819 714 b 854 496 847 613 854 557 b 833 327 854 434 847 378 b 772 198 819 277 799 234 b 672 115 745 162 712 135 b 532 86 631 96 585 86 z m 343 1239 l 343 1097 l 469 1097 l 469 1239 z m 592 1239 l 592 1097 l 719 1097 l 719 1239 z "},"×":{"ha":822,"x_min":0,"x_max":0,"o":"m 122 254 l 196 178 l 411 393 l 626 178 l 700 254 l 485 468 l 710 694 l 636 768 l 411 546 l 186 768 l 113 694 l 338 468 z "},"Ø":{"ha":1063,"x_min":0,"x_max":0,"o":"m 210 100 l 132 -19 l 211 -74 l 286 39 b 532 -25 357 -4 439 -25 b 719 10 600 -25 663 -13 b 863 111 775 33 823 67 b 955 276 902 156 933 210 b 988 499 977 341 988 415 b 952 728 988 586 976 662 b 851 893 928 794 895 849 l 928 1010 l 849 1065 l 775 953 b 532 1017 706 995 625 1017 b 348 982 465 1017 404 1005 b 203 881 292 959 244 925 b 109 717 163 836 132 781 b 75 494 86 652 75 578 b 110 265 75 407 87 331 b 210 100 134 200 167 144 z m 351 138 l 778 783 b 854 496 829 711 854 615 b 833 327 854 434 847 378 b 772 198 819 277 799 234 b 672 115 745 162 712 135 b 532 86 631 96 585 86 b 351 138 460 86 400 103 z m 708 853 l 282 207 b 208 496 233 278 208 375 b 228 663 208 557 215 613 b 290 793 242 714 262 757 b 391 876 317 829 351 857 b 532 906 431 896 478 906 b 628 892 567 906 599 901 b 708 853 658 882 684 869 z "},"Ù":{"ha":947,"x_min":0,"x_max":0,"o":"m 99 992 l 99 399 b 197 75 99 250 131 142 b 474 -25 262 8 354 -25 b 631 -1 532 -25 584 -17 b 749 74 678 14 717 39 b 823 203 781 108 806 151 b 849 393 840 256 849 319 l 849 992 l 721 992 l 721 393 b 665 163 721 291 702 215 b 475 86 628 112 565 86 b 284 163 386 86 322 112 b 226 393 246 213 226 290 l 226 992 z m 421 1261 l 271 1261 l 463 1074 l 583 1074 z "},"Ú":{"ha":947,"x_min":0,"x_max":0,"o":"m 99 992 l 99 399 b 197 75 99 250 131 142 b 474 -25 262 8 354 -25 b 631 -1 532 -25 584 -17 b 749 74 678 14 717 39 b 823 203 781 108 806 151 b 849 393 840 256 849 319 l 849 992 l 721 992 l 721 393 b 665 163 721 291 702 215 b 475 86 628 112 565 86 b 284 163 386 86 322 112 b 226 393 246 213 226 290 l 226 992 z m 533 1261 l 371 1074 l 492 1074 l 683 1261 z "},"Û":{"ha":947,"x_min":0,"x_max":0,"o":"m 99 992 l 99 399 b 197 75 99 250 131 142 b 474 -25 262 8 354 -25 b 631 -1 532 -25 584 -17 b 749 74 678 14 717 39 b 823 203 781 108 806 151 b 849 393 840 256 849 319 l 849 992 l 721 992 l 721 393 b 665 163 721 291 702 215 b 475 86 628 112 565 86 b 284 163 386 86 322 112 b 226 393 246 213 226 290 l 226 992 z m 413 1261 l 251 1074 l 365 1074 l 472 1183 l 579 1074 l 693 1074 l 533 1261 z "},"Ü":{"ha":947,"x_min":0,"x_max":0,"o":"m 99 992 l 99 399 b 197 75 99 250 131 142 b 474 -25 262 8 354 -25 b 631 -1 532 -25 584 -17 b 749 74 678 14 717 39 b 823 203 781 108 806 151 b 849 393 840 256 849 319 l 849 992 l 721 992 l 721 393 b 665 163 721 291 702 215 b 475 86 628 112 565 86 b 284 163 386 86 322 112 b 226 393 246 213 226 290 l 226 992 z m 285 1239 l 285 1097 l 411 1097 l 411 1239 z m 533 1239 l 533 1097 l 661 1097 l 661 1239 z "},"Ý":{"ha":851,"x_min":0,"x_max":0,"o":"m 364 421 l 364 0 l 493 0 l 493 421 l 832 992 l 697 992 l 428 533 l 165 992 l 18 992 z m 486 1261 l 324 1074 l 444 1074 l 636 1261 z "},"Þ":{"ha":869,"x_min":0,"x_max":0,"o":"m 110 992 l 110 0 l 236 0 l 236 200 l 442 200 b 621 225 514 200 574 208 b 733 292 668 242 706 264 b 792 392 761 321 781 354 b 808 513 803 430 808 470 b 792 624 808 551 803 589 b 735 719 782 660 763 691 b 623 783 708 746 671 768 b 442 807 575 799 515 807 l 236 807 l 236 992 z m 440 308 l 236 308 l 236 699 l 439 699 b 556 687 486 699 525 695 b 631 651 587 679 612 667 b 669 591 649 634 662 615 b 681 508 677 567 681 540 b 670 425 681 478 677 450 b 633 362 663 400 651 379 b 560 322 616 345 591 331 b 440 308 528 313 488 308 z "},"ß":{"ha":800,"x_min":0,"x_max":0,"o":"m 94 717 l 94 0 l 213 0 l 213 714 b 257 858 213 777 227 825 b 389 907 287 891 331 907 b 462 895 418 907 442 903 b 511 863 482 887 498 876 b 540 814 524 849 534 832 b 549 754 546 795 549 775 b 379 576 549 636 492 576 l 322 576 l 322 478 l 390 478 b 564 431 463 478 521 462 b 628 281 606 400 628 350 b 619 200 628 251 625 224 b 588 138 613 176 603 155 b 531 97 574 120 555 106 b 439 83 506 88 476 83 b 372 90 417 83 394 85 b 319 103 350 94 332 98 l 299 8 b 367 -8 317 2 340 -4 b 449 -15 394 -13 421 -15 b 588 8 503 -15 550 -7 b 681 72 627 24 658 45 b 733 164 705 98 722 129 b 749 276 743 199 749 237 b 732 381 749 315 743 350 b 687 461 721 412 706 439 b 620 516 668 483 646 502 b 539 547 595 530 568 541 b 637 632 583 569 616 597 b 668 764 658 667 668 711 b 597 939 668 838 644 896 b 383 1003 550 981 479 1003 b 172 927 294 1003 224 978 b 94 717 120 877 94 806 z "},"à":{"ha":747,"x_min":0,"x_max":0,"o":"m 540 99 l 540 0 l 657 0 l 657 467 b 642 582 657 509 652 548 b 594 668 633 616 617 645 b 508 722 572 691 543 709 b 376 740 472 734 428 740 b 176 695 292 740 225 725 b 83 551 127 665 96 617 l 193 539 b 246 617 201 572 219 598 b 372 646 273 636 315 646 b 499 606 431 646 473 632 b 538 474 525 579 538 535 l 538 446 l 414 442 b 279 428 368 440 323 435 b 162 390 236 420 197 408 b 78 318 127 373 99 349 b 47 199 58 288 47 248 b 65 104 47 163 53 131 b 116 37 77 77 94 55 b 194 -3 138 19 164 5 b 293 -17 224 -12 257 -17 b 442 17 352 -17 402 -5 b 540 99 481 40 514 67 z m 538 360 l 538 279 b 478 135 538 218 518 170 b 311 82 438 100 382 82 b 203 115 261 82 225 93 b 171 201 182 136 171 165 b 183 265 171 225 175 247 b 223 312 191 284 204 299 b 300 342 242 324 268 334 b 422 356 332 349 373 354 z m 189 1018 l 376 821 l 496 821 l 338 1018 z "},"á":{"ha":747,"x_min":0,"x_max":0,"o":"m 540 99 l 540 0 l 657 0 l 657 467 b 642 582 657 509 652 548 b 594 668 633 616 617 645 b 508 722 572 691 543 709 b 376 740 472 734 428 740 b 176 695 292 740 225 725 b 83 551 127 665 96 617 l 193 539 b 246 617 201 572 219 598 b 372 646 273 636 315 646 b 499 606 431 646 473 632 b 538 474 525 579 538 535 l 538 446 l 414 442 b 279 428 368 440 323 435 b 162 390 236 420 197 408 b 78 318 127 373 99 349 b 47 199 58 288 47 248 b 65 104 47 163 53 131 b 116 37 77 77 94 55 b 194 -3 138 19 164 5 b 293 -17 224 -12 257 -17 b 442 17 352 -17 402 -5 b 540 99 481 40 514 67 z m 538 360 l 538 279 b 478 135 538 218 518 170 b 311 82 438 100 382 82 b 203 115 261 82 225 93 b 171 201 182 136 171 165 b 183 265 171 225 175 247 b 223 312 191 284 204 299 b 300 342 242 324 268 334 b 422 356 332 349 373 354 z m 431 1018 l 272 821 l 392 821 l 579 1018 z "},"â":{"ha":747,"x_min":0,"x_max":0,"o":"m 540 99 l 540 0 l 657 0 l 657 467 b 642 582 657 509 652 548 b 594 668 633 616 617 645 b 508 722 572 691 543 709 b 376 740 472 734 428 740 b 176 695 292 740 225 725 b 83 551 127 665 96 617 l 193 539 b 246 617 201 572 219 598 b 372 646 273 636 315 646 b 499 606 431 646 473 632 b 538 474 525 579 538 535 l 538 446 l 414 442 b 279 428 368 440 323 435 b 162 390 236 420 197 408 b 78 318 127 373 99 349 b 47 199 58 288 47 248 b 65 104 47 163 53 131 b 116 37 77 77 94 55 b 194 -3 138 19 164 5 b 293 -17 224 -12 257 -17 b 442 17 352 -17 402 -5 b 540 99 481 40 514 67 z m 538 360 l 538 279 b 478 135 538 218 518 170 b 311 82 438 100 382 82 b 203 115 261 82 225 93 b 171 201 182 136 171 165 b 183 265 171 225 175 247 b 223 312 191 284 204 299 b 300 342 242 324 268 334 b 422 356 332 349 373 354 z m 313 1018 l 153 821 l 264 821 l 372 943 l 481 821 l 593 821 l 433 1018 z "},"ã":{"ha":747,"x_min":0,"x_max":0,"o":"m 540 99 l 540 0 l 657 0 l 657 467 b 642 582 657 509 652 548 b 594 668 633 616 617 645 b 508 722 572 691 543 709 b 376 740 472 734 428 740 b 176 695 292 740 225 725 b 83 551 127 665 96 617 l 193 539 b 246 617 201 572 219 598 b 372 646 273 636 315 646 b 499 606 431 646 473 632 b 538 474 525 579 538 535 l 538 446 l 414 442 b 279 428 368 440 323 435 b 162 390 236 420 197 408 b 78 318 127 373 99 349 b 47 199 58 288 47 248 b 65 104 47 163 53 131 b 116 37 77 77 94 55 b 194 -3 138 19 164 5 b 293 -17 224 -12 257 -17 b 442 17 352 -17 402 -5 b 540 99 481 40 514 67 z m 538 360 l 538 279 b 478 135 538 218 518 170 b 311 82 438 100 382 82 b 203 115 261 82 225 93 b 171 201 182 136 171 165 b 183 265 171 225 175 247 b 223 312 191 284 204 299 b 300 342 242 324 268 334 b 422 356 332 349 373 354 z m 125 840 l 214 840 b 228 891 214 862 219 878 b 276 910 237 903 253 910 b 321 898 292 910 307 906 l 364 873 b 412 848 379 864 395 856 b 471 836 429 840 449 836 b 575 877 515 836 550 850 b 613 999 600 904 613 945 l 524 999 b 510 949 524 977 519 961 b 463 931 500 937 485 931 b 417 942 447 931 432 934 b 374 967 403 949 388 957 b 326 992 359 976 343 984 b 267 1003 309 999 289 1003 b 163 962 222 1003 188 989 b 125 840 138 934 125 894 z "},"ä":{"ha":747,"x_min":0,"x_max":0,"o":"m 540 99 l 540 0 l 657 0 l 657 467 b 642 582 657 509 652 548 b 594 668 633 616 617 645 b 508 722 572 691 543 709 b 376 740 472 734 428 740 b 176 695 292 740 225 725 b 83 551 127 665 96 617 l 193 539 b 246 617 201 572 219 598 b 372 646 273 636 315 646 b 499 606 431 646 473 632 b 538 474 525 579 538 535 l 538 446 l 414 442 b 279 428 368 440 323 435 b 162 390 236 420 197 408 b 78 318 127 373 99 349 b 47 199 58 288 47 248 b 65 104 47 163 53 131 b 116 37 77 77 94 55 b 194 -3 138 19 164 5 b 293 -17 224 -12 257 -17 b 442 17 352 -17 402 -5 b 540 99 481 40 514 67 z m 538 360 l 538 279 b 478 135 538 218 518 170 b 311 82 438 100 382 82 b 203 115 261 82 225 93 b 171 201 182 136 171 165 b 183 265 171 225 175 247 b 223 312 191 284 204 299 b 300 342 242 324 268 334 b 422 356 332 349 373 354 z m 188 992 l 188 854 l 310 854 l 310 992 z m 429 992 l 429 854 l 553 854 l 553 992 z "},"å":{"ha":747,"x_min":0,"x_max":0,"o":"m 540 99 l 540 0 l 657 0 l 657 467 b 642 582 657 509 652 548 b 594 668 633 616 617 645 b 508 722 572 691 543 709 b 376 740 472 734 428 740 b 176 695 292 740 225 725 b 83 551 127 665 96 617 l 193 539 b 246 617 201 572 219 598 b 372 646 273 636 315 646 b 499 606 431 646 473 632 b 538 474 525 579 538 535 l 538 446 l 414 442 b 279 428 368 440 323 435 b 162 390 236 420 197 408 b 78 318 127 373 99 349 b 47 199 58 288 47 248 b 65 104 47 163 53 131 b 116 37 77 77 94 55 b 194 -3 138 19 164 5 b 293 -17 224 -12 257 -17 b 442 17 352 -17 402 -5 b 540 99 481 40 514 67 z m 538 360 l 538 279 b 478 135 538 218 518 170 b 311 82 438 100 382 82 b 203 115 261 82 225 93 b 171 201 182 136 171 165 b 183 265 171 225 175 247 b 223 312 191 284 204 299 b 300 342 242 324 268 334 b 422 356 332 349 373 354 z m 231 957 b 272 853 231 911 244 876 b 371 818 300 830 333 818 b 424 826 389 818 407 821 b 470 852 441 832 457 841 b 502 896 484 864 494 878 b 514 957 510 913 514 934 b 502 1018 514 980 510 1000 b 470 1063 494 1036 484 1050 b 424 1090 457 1075 441 1084 b 371 1099 407 1096 389 1099 b 272 1063 333 1099 300 1087 b 231 957 244 1038 231 1003 z m 371 886 b 323 903 350 886 334 892 b 306 957 311 915 306 933 b 323 1012 306 982 311 1000 b 371 1029 334 1023 350 1029 b 420 1012 392 1029 409 1023 b 438 957 432 1000 438 982 b 420 903 438 933 432 915 b 371 886 409 892 392 886 z "},"æ":{"ha":1239,"x_min":0,"x_max":0,"o":"m 83 551 l 193 539 b 245 617 201 572 219 598 b 368 646 272 636 313 646 b 493 603 427 646 469 632 b 529 467 517 575 529 530 l 529 446 l 406 442 b 274 428 361 440 317 435 b 159 390 231 420 193 408 b 78 318 125 373 98 349 b 47 199 57 288 47 248 b 118 37 47 126 71 72 b 301 -17 165 1 226 -17 b 406 -3 340 -17 375 -12 b 485 33 436 6 463 18 b 544 81 508 47 528 63 b 585 135 560 99 574 117 b 690 20 608 87 643 48 b 860 -22 736 -8 793 -22 b 1069 38 950 -22 1020 -2 b 1161 201 1119 77 1149 132 l 1044 201 b 988 109 1034 163 1016 132 b 861 75 961 86 919 75 b 769 94 826 75 795 81 b 703 148 744 107 722 125 b 663 228 685 171 672 197 b 647 329 653 259 648 293 l 1172 329 l 1172 390 b 1154 531 1172 441 1166 488 b 1098 641 1142 573 1123 610 b 1001 714 1072 672 1040 696 b 860 740 961 731 914 740 b 722 710 810 740 764 730 b 611 613 679 689 643 657 b 432 736 579 683 519 724 b 386 740 417 738 402 739 b 338 738 370 740 354 739 b 166 687 265 734 208 717 b 83 551 124 657 96 612 z m 529 360 l 529 279 b 476 138 529 221 512 174 b 322 82 441 103 390 84 b 269 86 302 82 284 83 b 194 125 235 92 210 105 b 171 201 179 145 171 171 b 182 265 171 225 175 247 b 221 312 189 284 202 299 b 295 342 239 324 264 334 b 414 356 326 349 366 354 z m 1053 419 l 650 419 b 714 589 657 494 679 550 b 858 647 749 628 797 647 b 947 631 893 647 922 642 b 1007 584 971 619 991 604 b 1042 513 1023 564 1034 540 b 1053 419 1049 485 1053 454 z "},"ç":{"ha":776,"x_min":0,"x_max":0,"o":"m 261 -206 l 261 -282 b 306 -287 277 -285 292 -287 b 346 -289 319 -288 333 -289 b 475 -264 400 -289 444 -281 b 522 -176 506 -247 522 -218 b 517 -139 522 -163 520 -151 b 497 -106 513 -127 506 -116 b 458 -81 487 -97 474 -88 b 397 -67 443 -74 422 -69 l 413 -22 b 623 51 503 -20 573 4 b 715 243 672 97 703 162 l 593 243 b 538 122 585 192 566 152 b 408 78 510 93 467 78 b 310 100 369 78 337 85 b 244 160 283 115 261 135 b 208 250 228 186 216 216 b 197 360 201 284 197 321 b 209 469 197 399 201 435 b 247 559 217 504 229 534 b 313 619 264 584 286 604 b 410 640 339 633 372 640 b 481 628 438 640 461 636 b 532 595 501 621 518 609 b 565 544 546 581 557 564 b 583 481 572 525 579 504 l 704 503 b 614 677 691 577 661 635 b 414 740 567 719 500 740 b 269 713 360 740 312 731 b 161 635 227 694 191 668 b 93 514 131 601 109 561 b 69 357 77 467 69 414 b 137 103 69 253 92 169 b 336 -17 182 37 248 -3 l 297 -124 l 326 -124 b 402 -134 363 -124 389 -127 b 422 -168 416 -141 422 -152 b 404 -200 422 -182 416 -193 b 344 -211 392 -207 372 -211 b 306 -210 331 -211 319 -211 b 261 -206 294 -209 279 -207 z "},"è":{"ha":792,"x_min":0,"x_max":0,"o":"m 714 201 l 597 201 b 540 109 587 163 568 132 b 408 75 513 86 469 75 b 315 94 373 75 342 81 b 248 148 288 107 266 125 b 206 228 230 171 216 197 b 192 329 197 259 192 293 l 725 329 l 725 390 b 706 531 725 441 719 488 b 649 641 694 573 675 610 b 551 714 624 672 591 696 b 408 740 512 731 464 740 b 272 715 359 740 314 732 b 165 640 231 697 195 673 b 94 519 134 608 111 568 b 69 354 78 471 69 416 b 157 77 69 236 99 143 b 408 -22 215 11 299 -22 b 622 38 501 -22 572 -2 b 714 201 671 77 702 132 z m 604 419 l 194 419 b 258 589 201 494 222 550 b 407 647 293 628 343 647 b 497 631 442 647 472 642 b 558 584 522 619 543 604 b 593 513 574 564 586 540 b 604 419 600 485 604 454 z m 211 1018 l 399 821 l 518 821 l 360 1018 z "},"é":{"ha":792,"x_min":0,"x_max":0,"o":"m 714 201 l 597 201 b 540 109 587 163 568 132 b 408 75 513 86 469 75 b 315 94 373 75 342 81 b 248 148 288 107 266 125 b 206 228 230 171 216 197 b 192 329 197 259 192 293 l 725 329 l 725 390 b 706 531 725 441 719 488 b 649 641 694 573 675 610 b 551 714 624 672 591 696 b 408 740 512 731 464 740 b 272 715 359 740 314 732 b 165 640 231 697 195 673 b 94 519 134 608 111 568 b 69 354 78 471 69 416 b 157 77 69 236 99 143 b 408 -22 215 11 299 -22 b 622 38 501 -22 572 -2 b 714 201 671 77 702 132 z m 604 419 l 194 419 b 258 589 201 494 222 550 b 407 647 293 628 343 647 b 497 631 442 647 472 642 b 558 584 522 619 543 604 b 593 513 574 564 586 540 b 604 419 600 485 604 454 z m 469 1018 l 311 821 l 431 821 l 618 1018 z "},"ê":{"ha":792,"x_min":0,"x_max":0,"o":"m 714 201 l 597 201 b 540 109 587 163 568 132 b 408 75 513 86 469 75 b 315 94 373 75 342 81 b 248 148 288 107 266 125 b 206 228 230 171 216 197 b 192 329 197 259 192 293 l 725 329 l 725 390 b 706 531 725 441 719 488 b 649 641 694 573 675 610 b 551 714 624 672 591 696 b 408 740 512 731 464 740 b 272 715 359 740 314 732 b 165 640 231 697 195 673 b 94 519 134 608 111 568 b 69 354 78 471 69 416 b 157 77 69 236 99 143 b 408 -22 215 11 299 -22 b 622 38 501 -22 572 -2 b 714 201 671 77 702 132 z m 604 419 l 194 419 b 258 589 201 494 222 550 b 407 647 293 628 343 647 b 497 631 442 647 472 642 b 558 584 522 619 543 604 b 593 513 574 564 586 540 b 604 419 600 485 604 454 z m 344 1018 l 185 821 l 296 821 l 404 943 l 513 821 l 625 821 l 465 1018 z "},"ë":{"ha":792,"x_min":0,"x_max":0,"o":"m 714 201 l 597 201 b 540 109 587 163 568 132 b 408 75 513 86 469 75 b 315 94 373 75 342 81 b 248 148 288 107 266 125 b 206 228 230 171 216 197 b 192 329 197 259 192 293 l 725 329 l 725 390 b 706 531 725 441 719 488 b 649 641 694 573 675 610 b 551 714 624 672 591 696 b 408 740 512 731 464 740 b 272 715 359 740 314 732 b 165 640 231 697 195 673 b 94 519 134 608 111 568 b 69 354 78 471 69 416 b 157 77 69 236 99 143 b 408 -22 215 11 299 -22 b 622 38 501 -22 572 -2 b 714 201 671 77 702 132 z m 604 419 l 194 419 b 258 589 201 494 222 550 b 407 647 293 628 343 647 b 497 631 442 647 472 642 b 558 584 522 619 543 604 b 593 513 574 564 586 540 b 604 419 600 485 604 454 z m 222 992 l 222 854 l 344 854 l 344 992 z m 464 992 l 464 854 l 588 854 l 588 992 z "},"ì":{"ha":313,"x_min":0,"x_max":0,"o":"m 96 718 l 96 0 l 217 0 l 217 718 z m -71 1018 l 117 821 l 236 821 l 78 1018 z "},"í":{"ha":313,"x_min":0,"x_max":0,"o":"m 96 718 l 96 0 l 217 0 l 217 718 z m 242 1018 l 83 821 l 203 821 l 390 1018 z "},"î":{"ha":313,"x_min":0,"x_max":0,"o":"m 96 718 l 96 0 l 217 0 l 217 718 z m 97 1018 l -62 821 l 49 821 l 157 943 l 265 821 l 378 821 l 218 1018 z "},"ï":{"ha":313,"x_min":0,"x_max":0,"o":"m 96 718 l 96 0 l 217 0 l 217 718 z m -25 992 l -25 854 l 97 854 l 97 992 z m 217 992 l 217 854 l 340 854 l 340 992 z "},"ð":{"ha":835,"x_min":0,"x_max":0,"o":"m 265 810 l 321 753 l 428 858 b 625 590 534 806 600 716 b 530 659 596 621 565 644 b 401 682 495 674 452 682 b 269 656 354 682 310 673 b 164 583 229 638 194 614 b 94 471 134 552 111 514 b 69 328 78 427 69 380 b 93 185 69 276 77 228 b 162 75 109 142 132 106 b 271 3 192 44 228 21 b 415 -22 313 -14 362 -22 b 559 5 468 -22 516 -13 b 669 84 602 23 639 49 b 740 212 700 119 724 161 b 765 385 757 262 765 320 b 501 931 765 650 677 832 l 567 996 l 511 1054 l 422 967 b 319 997 390 980 355 990 b 201 1014 282 1003 243 1009 l 183 917 b 267 907 213 915 241 912 b 343 889 294 902 319 896 z m 638 350 l 638 331 b 624 232 638 295 633 263 b 583 152 616 201 602 175 b 514 99 565 129 542 112 b 417 79 486 86 454 79 b 319 99 379 79 346 86 b 251 153 291 112 269 130 b 210 233 233 176 219 203 b 197 331 202 263 197 295 b 210 428 197 365 202 397 b 250 508 219 458 232 485 b 317 562 268 530 290 548 b 410 582 344 575 375 582 b 512 566 450 582 484 577 b 586 511 540 555 565 537 b 638 350 620 472 638 419 z "},"ñ":{"ha":792,"x_min":0,"x_max":0,"o":"m 93 718 l 93 0 l 214 0 l 214 425 b 232 513 214 461 220 491 b 285 578 244 536 262 557 b 356 622 306 598 330 613 b 436 636 383 631 409 636 b 547 595 486 636 523 622 b 583 454 571 568 583 521 l 583 0 l 704 0 l 704 478 b 645 674 704 564 684 629 b 464 740 606 718 545 740 b 329 710 417 740 372 730 b 213 608 287 689 248 656 l 213 718 z m 160 840 l 249 840 b 263 891 249 862 253 878 b 311 910 272 903 288 910 b 356 898 327 910 342 906 l 399 873 b 447 848 413 864 429 856 b 506 836 464 840 483 836 b 610 877 550 836 585 850 b 647 999 635 904 647 945 l 558 999 b 544 949 558 977 554 961 b 497 931 535 937 519 931 b 452 942 481 931 466 934 b 408 967 438 949 423 957 b 360 992 394 976 378 984 b 301 1003 343 999 324 1003 b 197 962 257 1003 222 989 b 160 840 172 934 160 894 z "},"ò":{"ha":835,"x_min":0,"x_max":0,"o":"m 415 -22 b 561 5 469 -22 518 -13 b 672 82 605 23 641 49 b 741 203 702 115 725 156 b 765 363 757 250 765 303 b 742 519 765 421 757 473 b 673 638 726 566 703 605 b 564 714 643 671 606 696 b 419 740 521 731 473 740 b 276 713 367 740 319 731 b 165 636 233 695 196 669 b 94 515 135 603 111 563 b 69 357 78 468 69 415 b 93 199 69 299 77 246 b 161 79 109 151 131 112 b 269 4 191 47 227 22 b 415 -22 312 -13 361 -22 z m 417 78 b 317 99 378 78 344 85 b 249 157 289 113 266 132 b 210 246 231 182 218 212 b 197 360 201 280 197 318 b 210 474 197 401 201 439 b 249 562 218 508 231 537 b 317 619 267 586 290 606 b 417 640 345 633 378 640 b 517 619 456 640 489 633 b 585 562 544 606 567 586 b 625 474 603 537 617 508 b 638 361 633 439 638 402 b 625 247 638 319 633 281 b 585 157 617 212 603 182 b 517 99 567 132 544 113 b 417 78 489 85 456 78 z m 226 1018 l 414 821 l 533 821 l 375 1018 z "},"ó":{"ha":835,"x_min":0,"x_max":0,"o":"m 415 -22 b 561 5 469 -22 518 -13 b 672 82 605 23 641 49 b 741 203 702 115 725 156 b 765 363 757 250 765 303 b 742 519 765 421 757 473 b 673 638 726 566 703 605 b 564 714 643 671 606 696 b 419 740 521 731 473 740 b 276 713 367 740 319 731 b 165 636 233 695 196 669 b 94 515 135 603 111 563 b 69 357 78 468 69 415 b 93 199 69 299 77 246 b 161 79 109 151 131 112 b 269 4 191 47 227 22 b 415 -22 312 -13 361 -22 z m 417 78 b 317 99 378 78 344 85 b 249 157 289 113 266 132 b 210 246 231 182 218 212 b 197 360 201 280 197 318 b 210 474 197 401 201 439 b 249 562 218 508 231 537 b 317 619 267 586 290 606 b 417 640 345 633 378 640 b 517 619 456 640 489 633 b 585 562 544 606 567 586 b 625 474 603 537 617 508 b 638 361 633 439 638 402 b 625 247 638 319 633 281 b 585 157 617 212 603 182 b 517 99 567 132 544 113 b 417 78 489 85 456 78 z m 476 1018 l 318 821 l 438 821 l 625 1018 z "},"ô":{"ha":835,"x_min":0,"x_max":0,"o":"m 415 -22 b 561 5 469 -22 518 -13 b 672 82 605 23 641 49 b 741 203 702 115 725 156 b 765 363 757 250 765 303 b 742 519 765 421 757 473 b 673 638 726 566 703 605 b 564 714 643 671 606 696 b 419 740 521 731 473 740 b 276 713 367 740 319 731 b 165 636 233 695 196 669 b 94 515 135 603 111 563 b 69 357 78 468 69 415 b 93 199 69 299 77 246 b 161 79 109 151 131 112 b 269 4 191 47 227 22 b 415 -22 312 -13 361 -22 z m 417 78 b 317 99 378 78 344 85 b 249 157 289 113 266 132 b 210 246 231 182 218 212 b 197 360 201 280 197 318 b 210 474 197 401 201 439 b 249 562 218 508 231 537 b 317 619 267 586 290 606 b 417 640 345 633 378 640 b 517 619 456 640 489 633 b 585 562 544 606 567 586 b 625 474 603 537 617 508 b 638 361 633 439 638 402 b 625 247 638 319 633 281 b 585 157 617 212 603 182 b 517 99 567 132 544 113 b 417 78 489 85 456 78 z m 357 1018 l 197 821 l 308 821 l 417 943 l 525 821 l 638 821 l 478 1018 z "},"õ":{"ha":835,"x_min":0,"x_max":0,"o":"m 415 -22 b 561 5 469 -22 518 -13 b 672 82 605 23 641 49 b 741 203 702 115 725 156 b 765 363 757 250 765 303 b 742 519 765 421 757 473 b 673 638 726 566 703 605 b 564 714 643 671 606 696 b 419 740 521 731 473 740 b 276 713 367 740 319 731 b 165 636 233 695 196 669 b 94 515 135 603 111 563 b 69 357 78 468 69 415 b 93 199 69 299 77 246 b 161 79 109 151 131 112 b 269 4 191 47 227 22 b 415 -22 312 -13 361 -22 z m 417 78 b 317 99 378 78 344 85 b 249 157 289 113 266 132 b 210 246 231 182 218 212 b 197 360 201 280 197 318 b 210 474 197 401 201 439 b 249 562 218 508 231 537 b 317 619 267 586 290 606 b 417 640 345 633 378 640 b 517 619 456 640 489 633 b 585 562 544 606 567 586 b 625 474 603 537 617 508 b 638 361 633 439 638 402 b 625 247 638 319 633 281 b 585 157 617 212 603 182 b 517 99 567 132 544 113 b 417 78 489 85 456 78 z m 174 840 l 263 840 b 276 891 263 862 267 878 b 325 910 286 903 302 910 b 369 898 341 910 356 906 l 413 873 b 460 848 427 864 443 856 b 519 836 478 840 497 836 b 624 877 564 836 599 850 b 661 999 649 904 661 945 l 572 999 b 558 949 572 977 568 961 b 511 931 549 937 533 931 b 466 942 495 931 480 934 b 422 967 452 949 437 957 b 374 992 407 976 391 984 b 315 1003 357 999 338 1003 b 211 962 271 1003 236 989 b 174 840 186 934 174 894 z "},"ö":{"ha":835,"x_min":0,"x_max":0,"o":"m 415 -22 b 561 5 469 -22 518 -13 b 672 82 605 23 641 49 b 741 203 702 115 725 156 b 765 363 757 250 765 303 b 742 519 765 421 757 473 b 673 638 726 566 703 605 b 564 714 643 671 606 696 b 419 740 521 731 473 740 b 276 713 367 740 319 731 b 165 636 233 695 196 669 b 94 515 135 603 111 563 b 69 357 78 468 69 415 b 93 199 69 299 77 246 b 161 79 109 151 131 112 b 269 4 191 47 227 22 b 415 -22 312 -13 361 -22 z m 417 78 b 317 99 378 78 344 85 b 249 157 289 113 266 132 b 210 246 231 182 218 212 b 197 360 201 280 197 318 b 210 474 197 401 201 439 b 249 562 218 508 231 537 b 317 619 267 586 290 606 b 417 640 345 633 378 640 b 517 619 456 640 489 633 b 585 562 544 606 567 586 b 625 474 603 537 617 508 b 638 361 633 439 638 402 b 625 247 638 319 633 281 b 585 157 617 212 603 182 b 517 99 567 132 544 113 b 417 78 489 85 456 78 z m 235 992 l 235 854 l 357 854 l 357 992 z m 476 992 l 476 854 l 600 854 l 600 992 z "},"÷":{"ha":822,"x_min":0,"x_max":0,"o":"m 347 797 l 347 649 l 476 649 l 476 797 z m 347 297 l 347 149 l 476 149 l 476 297 z m 111 528 l 111 418 l 711 418 l 711 528 z "},"ø":{"ha":835,"x_min":0,"x_max":0,"o":"m 169 69 l 104 -28 l 178 -81 l 243 15 b 322 -12 267 3 294 -6 b 415 -22 351 -19 382 -22 b 561 5 469 -22 518 -13 b 672 82 605 23 641 49 b 741 203 702 115 725 156 b 765 363 757 250 765 303 b 740 525 765 424 757 478 b 665 646 722 572 698 613 l 728 739 l 654 790 l 593 700 b 419 740 544 727 486 740 b 276 713 367 740 319 731 b 165 636 233 695 196 669 b 94 515 135 603 111 563 b 69 357 78 468 69 415 b 169 69 69 232 103 136 z m 533 610 l 239 172 b 207 256 224 196 213 224 b 197 360 200 287 197 322 b 210 474 197 401 201 439 b 249 562 218 508 231 537 b 317 619 267 586 290 606 b 417 640 345 633 378 640 b 481 633 441 640 462 638 b 533 610 500 628 518 620 z m 303 106 l 597 544 b 628 462 611 520 621 493 b 638 361 634 431 638 397 b 625 247 638 319 633 281 b 585 157 617 212 603 182 b 517 99 567 132 544 113 b 417 78 489 85 456 78 b 303 106 372 78 334 87 z "},"ù":{"ha":779,"x_min":0,"x_max":0,"o":"m 89 718 l 89 242 b 144 44 89 154 107 88 b 321 -22 180 0 239 -22 b 453 10 368 -22 412 -12 b 567 111 494 31 531 65 l 567 0 l 686 0 l 686 718 l 565 718 l 565 293 b 547 205 565 257 559 228 b 494 140 535 182 518 161 b 349 82 451 101 402 82 b 242 124 300 82 264 96 b 210 265 221 151 210 199 l 210 718 z m 186 1018 l 374 821 l 493 821 l 335 1018 z "},"ú":{"ha":779,"x_min":0,"x_max":0,"o":"m 89 718 l 89 242 b 144 44 89 154 107 88 b 321 -22 180 0 239 -22 b 453 10 368 -22 412 -12 b 567 111 494 31 531 65 l 567 0 l 686 0 l 686 718 l 565 718 l 565 293 b 547 205 565 257 559 228 b 494 140 535 182 518 161 b 349 82 451 101 402 82 b 242 124 300 82 264 96 b 210 265 221 151 210 199 l 210 718 z m 450 1018 l 292 821 l 411 821 l 599 1018 z "},"û":{"ha":779,"x_min":0,"x_max":0,"o":"m 89 718 l 89 242 b 144 44 89 154 107 88 b 321 -22 180 0 239 -22 b 453 10 368 -22 412 -12 b 567 111 494 31 531 65 l 567 0 l 686 0 l 686 718 l 565 718 l 565 293 b 547 205 565 257 559 228 b 494 140 535 182 518 161 b 349 82 451 101 402 82 b 242 124 300 82 264 96 b 210 265 221 151 210 199 l 210 718 z m 329 1018 l 169 821 l 281 821 l 389 943 l 497 821 l 610 821 l 450 1018 z "},"ü":{"ha":779,"x_min":0,"x_max":0,"o":"m 89 718 l 89 242 b 144 44 89 154 107 88 b 321 -22 180 0 239 -22 b 453 10 368 -22 412 -12 b 567 111 494 31 531 65 l 567 0 l 686 0 l 686 718 l 565 718 l 565 293 b 547 205 565 257 559 228 b 494 140 535 182 518 161 b 349 82 451 101 402 82 b 242 124 300 82 264 96 b 210 265 221 151 210 199 l 210 718 z m 206 992 l 206 854 l 328 854 l 328 992 z m 447 992 l 447 854 l 571 854 l 571 992 z "},"ý":{"ha":726,"x_min":0,"x_max":0,"o":"m 90 -153 l 67 -250 b 125 -265 88 -257 107 -262 b 185 -269 143 -268 163 -269 b 265 -256 216 -269 243 -265 b 321 -217 286 -247 305 -234 b 364 -153 337 -199 351 -178 b 403 -68 377 -129 390 -100 l 717 718 l 583 718 l 376 154 l 150 718 l 10 718 l 314 18 l 285 -58 b 237 -144 269 -100 253 -128 b 168 -167 221 -159 198 -167 b 90 -153 142 -167 116 -162 z m 419 1018 l 261 821 l 381 821 l 568 1018 z "},"þ":{"ha":829,"x_min":0,"x_max":0,"o":"m 93 992 l 93 -269 l 214 -269 l 214 89 b 321 2 246 47 282 18 b 440 -22 360 -14 400 -22 b 573 5 489 -22 534 -13 b 674 82 612 23 646 49 b 738 203 701 115 723 156 b 760 364 752 251 760 305 b 741 516 760 419 753 470 b 684 635 728 562 709 601 b 588 713 659 668 627 694 b 454 740 550 731 505 740 b 318 709 402 740 357 730 b 214 618 279 688 244 658 l 214 992 z m 213 339 l 213 388 b 229 498 213 429 218 466 b 276 577 240 530 256 556 b 346 624 296 598 319 614 b 433 640 373 635 402 640 b 506 626 458 640 483 636 b 569 581 530 617 551 602 b 615 495 588 559 603 531 b 632 363 626 459 632 415 b 616 231 632 311 627 267 b 572 142 605 194 591 165 b 506 93 554 120 532 103 b 424 78 481 83 453 78 b 339 92 393 78 365 83 b 272 139 313 102 291 118 b 228 220 254 160 239 187 b 213 339 218 253 213 293 z "},"ÿ":{"ha":726,"x_min":0,"x_max":0,"o":"m 90 -153 l 67 -250 b 125 -265 88 -257 107 -262 b 185 -269 143 -268 163 -269 b 265 -256 216 -269 243 -265 b 321 -217 286 -247 305 -234 b 364 -153 337 -199 351 -178 b 403 -68 377 -129 390 -100 l 717 718 l 583 718 l 376 154 l 150 718 l 10 718 l 314 18 l 285 -58 b 237 -144 269 -100 253 -128 b 168 -167 221 -159 198 -167 b 90 -153 142 -167 116 -162 z m 181 992 l 181 854 l 303 854 l 303 992 z m 422 992 l 422 854 l 546 854 l 546 992 z "},"Ā":{"ha":936,"x_min":0,"x_max":0,"o":"m 401 992 l 15 0 l 149 0 l 253 276 l 678 276 l 782 0 l 921 0 l 536 992 z m 639 388 l 292 388 l 464 847 z m 264 1207 l 264 1104 l 669 1104 l 669 1207 z "},"ā":{"ha":747,"x_min":0,"x_max":0,"o":"m 540 99 l 540 0 l 657 0 l 657 467 b 642 582 657 509 652 548 b 594 668 633 616 617 645 b 508 722 572 691 543 709 b 376 740 472 734 428 740 b 176 695 292 740 225 725 b 83 551 127 665 96 617 l 193 539 b 246 617 201 572 219 598 b 372 646 273 636 315 646 b 499 606 431 646 473 632 b 538 474 525 579 538 535 l 538 446 l 414 442 b 279 428 368 440 323 435 b 162 390 236 420 197 408 b 78 318 127 373 99 349 b 47 199 58 288 47 248 b 65 104 47 163 53 131 b 116 37 77 77 94 55 b 194 -3 138 19 164 5 b 293 -17 224 -12 257 -17 b 442 17 352 -17 402 -5 b 540 99 481 40 514 67 z m 538 360 l 538 279 b 478 135 538 218 518 170 b 311 82 438 100 382 82 b 203 115 261 82 225 93 b 171 201 182 136 171 165 b 183 265 171 225 175 247 b 223 312 191 284 204 299 b 300 342 242 324 268 334 b 422 356 332 349 373 354 z m 183 963 l 183 864 l 546 864 l 546 963 z "},"Ă":{"ha":936,"x_min":0,"x_max":0,"o":"m 401 992 l 15 0 l 149 0 l 253 276 l 678 276 l 782 0 l 921 0 l 536 992 z m 639 388 l 292 388 l 464 847 z m 369 1267 l 275 1267 b 326 1123 275 1204 292 1156 b 467 1074 359 1090 406 1074 b 608 1123 527 1074 574 1090 b 660 1267 643 1156 660 1204 l 565 1267 b 536 1182 565 1228 556 1200 b 467 1156 517 1164 494 1156 b 397 1182 439 1156 416 1164 b 369 1267 379 1200 369 1228 z "},"ă":{"ha":747,"x_min":0,"x_max":0,"o":"m 540 99 l 540 0 l 657 0 l 657 467 b 642 582 657 509 652 548 b 594 668 633 616 617 645 b 508 722 572 691 543 709 b 376 740 472 734 428 740 b 176 695 292 740 225 725 b 83 551 127 665 96 617 l 193 539 b 246 617 201 572 219 598 b 372 646 273 636 315 646 b 499 606 431 646 473 632 b 538 474 525 579 538 535 l 538 446 l 414 442 b 279 428 368 440 323 435 b 162 390 236 420 197 408 b 78 318 127 373 99 349 b 47 199 58 288 47 248 b 65 104 47 163 53 131 b 116 37 77 77 94 55 b 194 -3 138 19 164 5 b 293 -17 224 -12 257 -17 b 442 17 352 -17 402 -5 b 540 99 481 40 514 67 z m 538 360 l 538 279 b 478 135 538 218 518 170 b 311 82 438 100 382 82 b 203 115 261 82 225 93 b 171 201 182 136 171 165 b 183 265 171 225 175 247 b 223 312 191 284 204 299 b 300 342 242 324 268 334 b 422 356 332 349 373 354 z m 272 1013 l 181 1013 b 231 869 181 950 197 903 b 369 819 264 836 310 819 b 509 869 429 819 475 836 b 560 1013 543 903 560 950 l 468 1013 b 439 927 468 974 458 945 b 369 900 419 909 396 900 b 301 927 343 900 320 909 b 272 1013 282 945 272 974 z "},"Ą":{"ha":936,"x_min":0,"x_max":0,"o":"m 401 992 l 15 0 l 149 0 l 253 276 l 678 276 l 782 0 l 811 0 b 740 -72 780 -24 756 -48 b 717 -144 725 -95 717 -119 b 753 -228 717 -181 729 -209 b 879 -258 778 -248 820 -258 b 903 -258 887 -258 895 -258 b 924 -256 912 -257 919 -256 l 924 -169 b 907 -171 919 -170 913 -171 l 889 -171 b 847 -161 872 -171 858 -168 b 829 -122 835 -155 829 -142 b 921 0 829 -84 860 -44 l 536 992 z m 639 388 l 292 388 l 464 847 z "},"ą":{"ha":747,"x_min":0,"x_max":0,"o":"m 663 -247 l 663 -165 b 644 -167 655 -166 649 -167 l 628 -167 b 587 -157 612 -167 598 -163 b 569 -119 575 -150 569 -138 b 657 0 569 -83 599 -44 l 657 467 b 642 582 657 509 652 548 b 594 668 633 616 617 645 b 508 722 572 691 543 709 b 376 740 472 734 428 740 b 176 695 292 740 225 725 b 83 551 127 665 96 617 l 193 539 b 246 617 201 572 219 598 b 372 646 273 636 315 646 b 499 606 431 646 473 632 b 538 474 525 579 538 535 l 538 446 l 414 442 b 279 428 368 440 323 435 b 162 390 236 420 197 408 b 78 318 127 373 99 349 b 47 199 58 288 47 248 b 65 104 47 163 53 131 b 116 37 77 77 94 55 b 194 -3 138 19 164 5 b 293 -17 224 -12 257 -17 b 442 17 352 -17 402 -5 b 540 99 481 40 514 67 l 540 0 l 554 0 b 461 -140 492 -45 461 -92 b 496 -222 461 -175 473 -203 b 618 -250 519 -241 560 -250 b 641 -249 625 -250 633 -250 b 663 -247 649 -249 656 -248 z m 538 360 l 538 279 b 478 135 538 218 518 170 b 311 82 438 100 382 82 b 203 115 261 82 225 93 b 171 201 182 136 171 165 b 183 265 171 225 175 247 b 223 312 191 284 204 299 b 300 342 242 324 268 334 b 422 356 332 349 373 354 z "},"Ć":{"ha":986,"x_min":0,"x_max":0,"o":"m 922 326 l 790 326 b 764 229 785 291 776 259 b 715 153 752 200 735 174 b 635 103 694 131 667 115 b 519 86 603 92 565 86 b 387 115 469 86 425 96 b 290 199 348 135 316 163 b 229 328 263 235 243 278 b 208 496 215 379 208 435 b 229 663 208 557 215 613 b 290 792 243 714 263 757 b 387 876 316 828 348 856 b 518 906 425 896 469 906 b 624 890 560 906 595 900 b 699 843 653 879 678 863 b 751 769 720 823 737 798 b 783 671 764 740 775 707 l 908 692 b 865 824 898 740 884 784 b 790 926 846 863 821 898 b 676 993 759 955 721 977 b 518 1017 632 1009 579 1017 b 342 982 455 1017 397 1005 b 201 881 288 959 241 925 b 108 717 162 836 131 781 b 75 494 86 652 75 578 b 106 274 75 412 85 339 b 194 111 127 210 156 156 b 333 10 232 67 279 33 b 518 -25 388 -13 450 -25 b 684 1 581 -25 636 -16 b 806 75 732 19 772 44 b 885 187 839 106 865 144 b 922 326 904 230 917 276 z m 571 1261 l 408 1074 l 529 1074 l 721 1261 z "},"ć":{"ha":776,"x_min":0,"x_max":0,"o":"m 715 243 l 593 243 b 538 122 585 192 566 152 b 408 78 510 93 467 78 b 310 100 369 78 337 85 b 244 160 283 115 261 135 b 208 250 228 186 216 216 b 197 360 201 284 197 321 b 209 469 197 399 201 435 b 247 559 217 504 229 534 b 313 619 264 584 286 604 b 410 640 339 633 372 640 b 481 628 438 640 461 636 b 532 595 501 621 518 609 b 565 544 546 581 557 564 b 583 481 572 525 579 504 l 704 503 b 614 677 691 577 661 635 b 414 740 567 719 500 740 b 269 713 360 740 312 731 b 161 635 227 694 191 668 b 93 514 131 601 109 561 b 69 357 77 467 69 414 b 91 199 69 299 77 246 b 155 80 105 153 127 113 b 260 4 183 47 218 22 b 406 -22 303 -13 351 -22 b 621 49 498 -22 570 1 b 715 243 672 96 703 161 z m 458 1018 l 300 821 l 419 821 l 607 1018 z "},"Ĉ":{"ha":986,"x_min":0,"x_max":0,"o":"m 922 326 l 790 326 b 764 229 785 291 776 259 b 715 153 752 200 735 174 b 635 103 694 131 667 115 b 519 86 603 92 565 86 b 387 115 469 86 425 96 b 290 199 348 135 316 163 b 229 328 263 235 243 278 b 208 496 215 379 208 435 b 229 663 208 557 215 613 b 290 792 243 714 263 757 b 387 876 316 828 348 856 b 518 906 425 896 469 906 b 624 890 560 906 595 900 b 699 843 653 879 678 863 b 751 769 720 823 737 798 b 783 671 764 740 775 707 l 908 692 b 865 824 898 740 884 784 b 790 926 846 863 821 898 b 676 993 759 955 721 977 b 518 1017 632 1009 579 1017 b 342 982 455 1017 397 1005 b 201 881 288 959 241 925 b 108 717 162 836 131 781 b 75 494 86 652 75 578 b 106 274 75 412 85 339 b 194 111 127 210 156 156 b 333 10 232 67 279 33 b 518 -25 388 -13 450 -25 b 684 1 581 -25 636 -16 b 806 75 732 19 772 44 b 885 187 839 106 865 144 b 922 326 904 230 917 276 z m 458 1261 l 297 1074 l 411 1074 l 518 1183 l 625 1074 l 739 1074 l 579 1261 z "},"ĉ":{"ha":776,"x_min":0,"x_max":0,"o":"m 715 243 l 593 243 b 538 122 585 192 566 152 b 408 78 510 93 467 78 b 310 100 369 78 337 85 b 244 160 283 115 261 135 b 208 250 228 186 216 216 b 197 360 201 284 197 321 b 209 469 197 399 201 435 b 247 559 217 504 229 534 b 313 619 264 584 286 604 b 410 640 339 633 372 640 b 481 628 438 640 461 636 b 532 595 501 621 518 609 b 565 544 546 581 557 564 b 583 481 572 525 579 504 l 704 503 b 614 677 691 577 661 635 b 414 740 567 719 500 740 b 269 713 360 740 312 731 b 161 635 227 694 191 668 b 93 514 131 601 109 561 b 69 357 77 467 69 414 b 91 199 69 299 77 246 b 155 80 105 153 127 113 b 260 4 183 47 218 22 b 406 -22 303 -13 351 -22 b 621 49 498 -22 570 1 b 715 243 672 96 703 161 z m 350 1018 l 190 821 l 301 821 l 410 943 l 518 821 l 631 821 l 471 1018 z "},"Ċ":{"ha":986,"x_min":0,"x_max":0,"o":"m 922 326 l 790 326 b 764 229 785 291 776 259 b 715 153 752 200 735 174 b 635 103 694 131 667 115 b 519 86 603 92 565 86 b 387 115 469 86 425 96 b 290 199 348 135 316 163 b 229 328 263 235 243 278 b 208 496 215 379 208 435 b 229 663 208 557 215 613 b 290 792 243 714 263 757 b 387 876 316 828 348 856 b 518 906 425 896 469 906 b 624 890 560 906 595 900 b 699 843 653 879 678 863 b 751 769 720 823 737 798 b 783 671 764 740 775 707 l 908 692 b 865 824 898 740 884 784 b 790 926 846 863 821 898 b 676 993 759 955 721 977 b 518 1017 632 1009 579 1017 b 342 982 455 1017 397 1005 b 201 881 288 959 241 925 b 108 717 162 836 131 781 b 75 494 86 652 75 578 b 106 274 75 412 85 339 b 194 111 127 210 156 156 b 333 10 232 67 279 33 b 518 -25 388 -13 450 -25 b 684 1 581 -25 636 -16 b 806 75 732 19 772 44 b 885 187 839 106 865 144 b 922 326 904 230 917 276 z m 454 1242 l 454 1096 l 583 1096 l 583 1242 z "},"ċ":{"ha":776,"x_min":0,"x_max":0,"o":"m 715 243 l 593 243 b 538 122 585 192 566 152 b 408 78 510 93 467 78 b 310 100 369 78 337 85 b 244 160 283 115 261 135 b 208 250 228 186 216 216 b 197 360 201 284 197 321 b 209 469 197 399 201 435 b 247 559 217 504 229 534 b 313 619 264 584 286 604 b 410 640 339 633 372 640 b 481 628 438 640 461 636 b 532 595 501 621 518 609 b 565 544 546 581 557 564 b 583 481 572 525 579 504 l 704 503 b 614 677 691 577 661 635 b 414 740 567 719 500 740 b 269 713 360 740 312 731 b 161 635 227 694 191 668 b 93 514 131 601 109 561 b 69 357 77 467 69 414 b 91 199 69 299 77 246 b 155 80 105 153 127 113 b 260 4 183 47 218 22 b 406 -22 303 -13 351 -22 b 621 49 498 -22 570 1 b 715 243 672 96 703 161 z m 349 993 l 349 853 l 472 853 l 472 993 z "},"Č":{"ha":986,"x_min":0,"x_max":0,"o":"m 922 326 l 790 326 b 764 229 785 291 776 259 b 715 153 752 200 735 174 b 635 103 694 131 667 115 b 519 86 603 92 565 86 b 387 115 469 86 425 96 b 290 199 348 135 316 163 b 229 328 263 235 243 278 b 208 496 215 379 208 435 b 229 663 208 557 215 613 b 290 792 243 714 263 757 b 387 876 316 828 348 856 b 518 906 425 896 469 906 b 624 890 560 906 595 900 b 699 843 653 879 678 863 b 751 769 720 823 737 798 b 783 671 764 740 775 707 l 908 692 b 865 824 898 740 884 784 b 790 926 846 863 821 898 b 676 993 759 955 721 977 b 518 1017 632 1009 579 1017 b 342 982 455 1017 397 1005 b 201 881 288 959 241 925 b 108 717 162 836 131 781 b 75 494 86 652 75 578 b 106 274 75 412 85 339 b 194 111 127 210 156 156 b 333 10 232 67 279 33 b 518 -25 388 -13 450 -25 b 684 1 581 -25 636 -16 b 806 75 732 19 772 44 b 885 187 839 106 865 144 b 922 326 904 230 917 276 z m 297 1265 l 458 1079 l 579 1079 l 739 1265 l 626 1265 l 519 1154 l 413 1265 z "},"č":{"ha":776,"x_min":0,"x_max":0,"o":"m 715 243 l 593 243 b 538 122 585 192 566 152 b 408 78 510 93 467 78 b 310 100 369 78 337 85 b 244 160 283 115 261 135 b 208 250 228 186 216 216 b 197 360 201 284 197 321 b 209 469 197 399 201 435 b 247 559 217 504 229 534 b 313 619 264 584 286 604 b 410 640 339 633 372 640 b 481 628 438 640 461 636 b 532 595 501 621 518 609 b 565 544 546 581 557 564 b 583 481 572 525 579 504 l 704 503 b 614 677 691 577 661 635 b 414 740 567 719 500 740 b 269 713 360 740 312 731 b 161 635 227 694 191 668 b 93 514 131 601 109 561 b 69 357 77 467 69 414 b 91 199 69 299 77 246 b 155 80 105 153 127 113 b 260 4 183 47 218 22 b 406 -22 303 -13 351 -22 b 621 49 498 -22 570 1 b 715 243 672 96 703 161 z m 469 824 l 629 1021 l 518 1021 l 410 899 l 301 1021 l 189 1021 l 349 824 z "},"Ď":{"ha":992,"x_min":0,"x_max":0,"o":"m 110 992 l 110 0 l 425 0 b 631 32 501 0 569 11 b 786 126 692 53 744 85 b 884 283 829 168 861 220 b 918 503 907 346 918 419 b 886 718 918 585 907 657 b 795 871 865 779 834 830 b 651 962 756 912 708 942 b 457 992 594 982 529 992 z m 431 111 l 238 111 l 238 882 l 457 882 b 606 856 514 882 564 873 b 708 781 647 839 681 814 b 766 661 734 748 753 708 b 785 500 778 614 785 560 b 700 215 785 379 756 284 b 431 111 644 146 554 111 z m 208 1265 l 369 1079 l 490 1079 l 650 1265 l 538 1265 l 431 1154 l 324 1265 z "},"ď":{"ha":828,"x_min":0,"x_max":0,"o":"m 615 103 l 615 0 l 733 0 l 733 992 l 613 992 l 613 631 b 504 717 579 673 543 702 b 389 740 465 733 427 740 b 255 714 339 740 294 731 b 155 638 216 696 182 671 b 92 516 128 604 106 564 b 69 356 77 468 69 415 b 88 207 69 303 75 253 b 143 87 100 161 118 121 b 238 7 168 53 200 26 b 375 -22 277 -12 322 -22 b 513 10 428 -22 474 -11 b 615 103 551 32 586 63 z m 617 381 l 617 332 b 595 206 617 281 609 239 b 532 122 581 172 560 144 b 468 89 511 106 489 95 b 396 79 447 82 423 79 b 323 93 371 79 347 84 b 259 139 299 102 278 118 b 213 225 240 160 225 189 b 196 358 202 261 196 306 b 212 488 196 409 201 453 b 256 576 222 524 237 553 b 323 625 275 598 297 615 b 406 640 348 635 376 640 b 474 631 431 640 453 637 b 536 596 495 624 516 613 b 598 515 565 574 585 547 b 617 381 610 483 617 438 z m 863 992 l 825 708 l 918 708 l 982 992 z "},"Đ":{"ha":1010,"x_min":0,"x_max":0,"o":"m 128 458 l 128 0 l 443 0 b 649 32 519 0 588 11 b 804 126 710 53 762 85 b 902 283 847 168 879 220 b 936 503 925 346 936 419 b 904 718 936 585 925 657 b 813 871 883 779 853 830 b 669 962 774 912 726 942 b 475 992 612 982 547 992 l 128 992 l 128 567 l 14 567 l 14 458 z m 449 111 l 256 111 l 256 458 l 508 458 l 508 567 l 256 567 l 256 882 l 475 882 b 624 856 532 882 582 873 b 726 781 665 839 699 814 b 784 661 752 748 772 708 b 803 500 797 614 803 560 b 718 215 803 379 775 284 b 449 111 662 146 572 111 z "},"đ":{"ha":844,"x_min":0,"x_max":0,"o":"m 617 103 l 617 0 l 735 0 l 735 801 l 831 801 l 831 889 l 735 889 l 735 992 l 614 992 l 614 889 l 379 889 l 379 801 l 614 801 l 614 599 b 505 686 580 642 543 671 b 389 708 466 701 428 708 b 255 681 339 708 294 699 b 155 606 216 663 182 638 b 92 489 128 573 106 534 b 69 339 77 444 69 394 b 88 201 69 291 75 245 b 143 86 100 158 118 119 b 238 7 168 53 200 26 b 375 -22 277 -12 322 -22 b 513 10 428 -22 474 -11 b 617 103 553 32 587 63 z m 617 356 l 617 315 b 595 203 617 272 609 234 b 532 122 581 171 560 144 b 469 89 511 106 490 95 b 397 79 448 82 424 79 b 324 93 372 79 348 84 b 259 138 300 102 278 117 b 213 219 240 159 225 186 b 196 340 202 252 196 292 b 212 460 196 387 201 427 b 256 544 222 494 237 522 b 323 592 275 566 297 582 b 406 608 348 603 376 608 b 474 599 431 608 453 605 b 538 564 495 592 516 581 b 598 483 565 542 585 515 b 617 356 610 452 617 409 z "},"Ē":{"ha":825,"x_min":0,"x_max":0,"o":"m 110 992 l 110 0 l 757 0 l 778 113 l 238 113 l 238 454 l 724 454 l 724 568 l 238 568 l 238 879 l 751 879 l 751 992 z m 232 1207 l 232 1104 l 638 1104 l 638 1207 z "},"ē":{"ha":792,"x_min":0,"x_max":0,"o":"m 714 201 l 597 201 b 540 109 587 163 568 132 b 408 75 513 86 469 75 b 315 94 373 75 342 81 b 248 148 288 107 266 125 b 206 228 230 171 216 197 b 192 329 197 259 192 293 l 725 329 l 725 390 b 706 531 725 441 719 488 b 649 641 694 573 675 610 b 551 714 624 672 591 696 b 408 740 512 731 464 740 b 272 715 359 740 314 732 b 165 640 231 697 195 673 b 94 519 134 608 111 568 b 69 354 78 471 69 416 b 157 77 69 236 99 143 b 408 -22 215 11 299 -22 b 622 38 501 -22 572 -2 b 714 201 671 77 702 132 z m 604 419 l 194 419 b 258 589 201 494 222 550 b 407 647 293 628 343 647 b 497 631 442 647 472 642 b 558 584 522 619 543 604 b 593 513 574 564 586 540 b 604 419 600 485 604 454 z m 228 963 l 228 864 l 590 864 l 590 963 z "},"Ĕ":{"ha":825,"x_min":0,"x_max":0,"o":"m 110 992 l 110 0 l 757 0 l 778 113 l 238 113 l 238 454 l 724 454 l 724 568 l 238 568 l 238 879 l 751 879 l 751 992 z m 338 1267 l 243 1267 b 294 1123 243 1204 260 1156 b 435 1074 328 1090 375 1074 b 576 1123 495 1074 542 1090 b 628 1267 611 1156 628 1204 l 533 1267 b 504 1182 533 1228 524 1200 b 435 1156 485 1164 462 1156 b 365 1182 407 1156 384 1164 b 338 1267 347 1200 338 1228 z "},"ĕ":{"ha":792,"x_min":0,"x_max":0,"o":"m 714 201 l 597 201 b 540 109 587 163 568 132 b 408 75 513 86 469 75 b 315 94 373 75 342 81 b 248 148 288 107 266 125 b 206 228 230 171 216 197 b 192 329 197 259 192 293 l 725 329 l 725 390 b 706 531 725 441 719 488 b 649 641 694 573 675 610 b 551 714 624 672 591 696 b 408 740 512 731 464 740 b 272 715 359 740 314 732 b 165 640 231 697 195 673 b 94 519 134 608 111 568 b 69 354 78 471 69 416 b 157 77 69 236 99 143 b 408 -22 215 11 299 -22 b 622 38 501 -22 572 -2 b 714 201 671 77 702 132 z m 604 419 l 194 419 b 258 589 201 494 222 550 b 407 647 293 628 343 647 b 497 631 442 647 472 642 b 558 584 522 619 543 604 b 593 513 574 564 586 540 b 604 419 600 485 604 454 z m 311 1013 l 219 1013 b 269 869 219 950 236 903 b 408 819 303 836 349 819 b 548 869 468 819 514 836 b 599 1013 582 903 599 950 l 507 1013 b 478 927 507 974 497 945 b 408 900 458 909 435 900 b 340 927 381 900 359 909 b 311 1013 321 945 311 974 z "},"Ė":{"ha":825,"x_min":0,"x_max":0,"o":"m 110 992 l 110 0 l 757 0 l 778 113 l 238 113 l 238 454 l 724 454 l 724 568 l 238 568 l 238 879 l 751 879 l 751 992 z m 371 1242 l 371 1096 l 500 1096 l 500 1242 z "},"ė":{"ha":792,"x_min":0,"x_max":0,"o":"m 714 201 l 597 201 b 540 109 587 163 568 132 b 408 75 513 86 469 75 b 315 94 373 75 342 81 b 248 148 288 107 266 125 b 206 228 230 171 216 197 b 192 329 197 259 192 293 l 725 329 l 725 390 b 706 531 725 441 719 488 b 649 641 694 573 675 610 b 551 714 624 672 591 696 b 408 740 512 731 464 740 b 272 715 359 740 314 732 b 165 640 231 697 195 673 b 94 519 134 608 111 568 b 69 354 78 471 69 416 b 157 77 69 236 99 143 b 408 -22 215 11 299 -22 b 622 38 501 -22 572 -2 b 714 201 671 77 702 132 z m 604 419 l 194 419 b 258 589 201 494 222 550 b 407 647 293 628 343 647 b 497 631 442 647 472 642 b 558 584 522 619 543 604 b 593 513 574 564 586 540 b 604 419 600 485 604 454 z m 347 993 l 347 853 l 471 853 l 471 993 z "},"Ę":{"ha":825,"x_min":0,"x_max":0,"o":"m 110 992 l 110 0 l 647 0 b 576 -72 616 -24 592 -48 b 553 -144 561 -95 553 -119 b 590 -228 553 -181 565 -209 b 715 -258 614 -248 656 -258 b 740 -258 723 -258 731 -258 b 760 -256 748 -257 755 -256 l 760 -169 b 743 -171 755 -170 750 -171 l 725 -171 b 683 -161 708 -171 694 -168 b 665 -122 671 -155 665 -142 b 757 0 665 -84 696 -44 l 778 113 l 238 113 l 238 454 l 724 454 l 724 568 l 238 568 l 238 879 l 751 879 l 751 992 z "},"ę":{"ha":792,"x_min":0,"x_max":0,"o":"m 556 -247 l 556 -165 b 537 -167 548 -166 542 -167 l 521 -167 b 480 -157 505 -167 491 -163 b 463 -119 468 -150 463 -138 b 549 -1 463 -83 491 -44 b 661 76 597 16 634 42 b 714 201 688 111 706 152 l 597 201 b 540 109 587 163 568 132 b 408 75 513 86 469 75 b 315 94 373 75 342 81 b 248 148 288 107 266 125 b 206 228 230 171 216 197 b 192 329 197 259 192 293 l 725 329 l 725 390 b 706 531 725 441 719 488 b 649 641 694 573 675 610 b 551 714 624 672 591 696 b 408 740 512 731 464 740 b 272 715 359 740 314 732 b 165 640 231 697 195 673 b 94 519 134 608 111 568 b 69 354 78 471 69 416 b 157 77 69 236 99 143 b 408 -22 215 11 299 -22 l 419 -22 b 354 -140 376 -60 354 -100 b 389 -222 354 -175 366 -203 b 511 -250 412 -241 453 -250 b 534 -249 519 -250 526 -250 b 556 -247 542 -249 549 -248 z m 604 419 l 194 419 b 258 589 201 494 222 550 b 407 647 293 628 343 647 b 497 631 442 647 472 642 b 558 584 522 619 543 604 b 593 513 574 564 586 540 b 604 419 600 485 604 454 z "},"Ě":{"ha":825,"x_min":0,"x_max":0,"o":"m 110 992 l 110 0 l 757 0 l 778 113 l 238 113 l 238 454 l 724 454 l 724 568 l 238 568 l 238 879 l 751 879 l 751 992 z m 214 1265 l 375 1079 l 496 1079 l 656 1265 l 543 1265 l 436 1154 l 329 1265 z "},"ě":{"ha":792,"x_min":0,"x_max":0,"o":"m 714 201 l 597 201 b 540 109 587 163 568 132 b 408 75 513 86 469 75 b 315 94 373 75 342 81 b 248 148 288 107 266 125 b 206 228 230 171 216 197 b 192 329 197 259 192 293 l 725 329 l 725 390 b 706 531 725 441 719 488 b 649 641 694 573 675 610 b 551 714 624 672 591 696 b 408 740 512 731 464 740 b 272 715 359 740 314 732 b 165 640 231 697 195 673 b 94 519 134 608 111 568 b 69 354 78 471 69 416 b 157 77 69 236 99 143 b 408 -22 215 11 299 -22 b 622 38 501 -22 572 -2 b 714 201 671 77 702 132 z m 604 419 l 194 419 b 258 589 201 494 222 550 b 407 647 293 628 343 647 b 497 631 442 647 472 642 b 558 584 522 619 543 604 b 593 513 574 564 586 540 b 604 419 600 485 604 454 z m 469 824 l 629 1021 l 518 1021 l 410 899 l 301 1021 l 189 1021 l 349 824 z "},"Ĝ":{"ha":994,"x_min":0,"x_max":0,"o":"m 544 510 l 544 399 l 794 399 l 794 161 b 676 104 759 135 720 116 b 535 86 632 92 585 86 b 390 115 479 86 431 96 b 288 199 350 135 316 163 b 228 328 261 235 241 278 b 208 496 215 379 208 435 b 228 663 208 557 215 613 b 288 793 242 714 262 757 b 385 877 313 829 346 857 b 521 907 424 897 469 907 b 623 893 561 907 595 902 b 694 853 651 884 675 871 b 742 792 714 836 730 816 b 772 713 755 768 765 741 l 896 733 b 851 849 886 776 871 815 b 777 939 832 884 807 914 b 668 997 747 964 711 983 b 521 1017 625 1010 576 1017 b 342 982 456 1017 396 1005 b 201 881 287 959 240 925 b 108 717 161 836 131 781 b 75 494 86 652 75 578 b 106 276 75 413 85 340 b 195 113 126 211 156 157 b 340 10 234 68 283 34 b 535 -25 397 -13 462 -25 b 637 -17 568 -25 602 -22 b 738 9 672 -11 705 -3 b 833 52 771 21 803 35 b 915 113 863 69 890 89 l 915 510 z m 463 1261 l 301 1074 l 415 1074 l 522 1183 l 629 1074 l 743 1074 l 583 1261 z "},"ĝ":{"ha":826,"x_min":0,"x_max":0,"o":"m 215 -67 l 96 -67 b 190 -234 105 -144 137 -200 b 413 -285 244 -268 318 -285 b 574 -257 478 -285 532 -275 b 672 -177 615 -238 648 -212 b 720 -51 695 -142 711 -100 b 733 117 729 -1 733 55 l 733 718 l 614 718 l 614 626 b 506 716 581 670 546 700 b 388 740 467 732 427 740 b 255 714 338 740 294 731 b 154 640 216 696 182 672 b 90 524 126 608 105 569 b 68 375 75 479 68 430 b 87 235 68 325 74 278 b 143 120 99 191 118 153 b 238 42 168 87 200 61 b 374 14 277 23 322 14 b 512 46 426 14 472 25 b 613 136 551 67 585 97 l 613 60 b 569 -124 613 -21 598 -82 b 411 -187 540 -166 487 -187 b 274 -160 349 -187 303 -178 b 215 -67 245 -141 225 -110 z m 615 386 l 615 363 b 599 253 615 321 610 284 b 553 176 588 222 572 197 b 484 131 533 156 510 141 b 397 115 458 120 429 115 b 323 129 372 115 347 120 b 258 174 298 138 277 153 b 213 254 240 194 225 221 b 196 376 202 288 196 328 b 212 497 196 424 201 464 b 256 579 222 531 237 558 b 323 626 275 600 297 616 b 406 640 348 635 376 640 b 485 627 433 640 460 636 b 553 583 511 618 533 604 b 599 505 572 563 588 537 b 615 386 610 473 615 433 z m 363 1018 l 203 821 l 314 821 l 422 943 l 531 821 l 643 821 l 483 1018 z "},"Ğ":{"ha":994,"x_min":0,"x_max":0,"o":"m 544 510 l 544 399 l 794 399 l 794 161 b 676 104 759 135 720 116 b 535 86 632 92 585 86 b 390 115 479 86 431 96 b 288 199 350 135 316 163 b 228 328 261 235 241 278 b 208 496 215 379 208 435 b 228 663 208 557 215 613 b 288 793 242 714 262 757 b 385 877 313 829 346 857 b 521 907 424 897 469 907 b 623 893 561 907 595 902 b 694 853 651 884 675 871 b 742 792 714 836 730 816 b 772 713 755 768 765 741 l 896 733 b 851 849 886 776 871 815 b 777 939 832 884 807 914 b 668 997 747 964 711 983 b 521 1017 625 1010 576 1017 b 342 982 456 1017 396 1005 b 201 881 287 959 240 925 b 108 717 161 836 131 781 b 75 494 86 652 75 578 b 106 276 75 413 85 340 b 195 113 126 211 156 157 b 340 10 234 68 283 34 b 535 -25 397 -13 462 -25 b 637 -17 568 -25 602 -22 b 738 9 672 -11 705 -3 b 833 52 771 21 803 35 b 915 113 863 69 890 89 l 915 510 z m 425 1267 l 331 1267 b 381 1123 331 1204 347 1156 b 522 1074 415 1090 462 1074 b 664 1123 582 1074 630 1090 b 715 1267 698 1156 715 1204 l 621 1267 b 592 1182 621 1228 611 1200 b 522 1156 572 1164 549 1156 b 453 1182 494 1156 471 1164 b 425 1267 434 1200 425 1228 z "},"ğ":{"ha":826,"x_min":0,"x_max":0,"o":"m 215 -67 l 96 -67 b 190 -234 105 -144 137 -200 b 413 -285 244 -268 318 -285 b 574 -257 478 -285 532 -275 b 672 -177 615 -238 648 -212 b 720 -51 695 -142 711 -100 b 733 117 729 -1 733 55 l 733 718 l 614 718 l 614 626 b 506 716 581 670 546 700 b 388 740 467 732 427 740 b 255 714 338 740 294 731 b 154 640 216 696 182 672 b 90 524 126 608 105 569 b 68 375 75 479 68 430 b 87 235 68 325 74 278 b 143 120 99 191 118 153 b 238 42 168 87 200 61 b 374 14 277 23 322 14 b 512 46 426 14 472 25 b 613 136 551 67 585 97 l 613 60 b 569 -124 613 -21 598 -82 b 411 -187 540 -166 487 -187 b 274 -160 349 -187 303 -178 b 215 -67 245 -141 225 -110 z m 615 386 l 615 363 b 599 253 615 321 610 284 b 553 176 588 222 572 197 b 484 131 533 156 510 141 b 397 115 458 120 429 115 b 323 129 372 115 347 120 b 258 174 298 138 277 153 b 213 254 240 194 225 221 b 196 376 202 288 196 328 b 212 497 196 424 201 464 b 256 579 222 531 237 558 b 323 626 275 600 297 616 b 406 640 348 635 376 640 b 485 627 433 640 460 636 b 553 583 511 618 533 604 b 599 505 572 563 588 537 b 615 386 610 473 615 433 z m 325 1013 l 233 1013 b 283 869 233 950 250 903 b 422 819 317 836 363 819 b 562 869 481 819 528 836 b 613 1013 596 903 613 950 l 521 1013 b 492 927 521 974 511 945 b 422 900 472 909 449 900 b 353 927 395 900 372 909 b 325 1013 334 945 325 974 z "},"Ġ":{"ha":994,"x_min":0,"x_max":0,"o":"m 544 510 l 544 399 l 794 399 l 794 161 b 676 104 759 135 720 116 b 535 86 632 92 585 86 b 390 115 479 86 431 96 b 288 199 350 135 316 163 b 228 328 261 235 241 278 b 208 496 215 379 208 435 b 228 663 208 557 215 613 b 288 793 242 714 262 757 b 385 877 313 829 346 857 b 521 907 424 897 469 907 b 623 893 561 907 595 902 b 694 853 651 884 675 871 b 742 792 714 836 730 816 b 772 713 755 768 765 741 l 896 733 b 851 849 886 776 871 815 b 777 939 832 884 807 914 b 668 997 747 964 711 983 b 521 1017 625 1010 576 1017 b 342 982 456 1017 396 1005 b 201 881 287 959 240 925 b 108 717 161 836 131 781 b 75 494 86 652 75 578 b 106 276 75 413 85 340 b 195 113 126 211 156 157 b 340 10 234 68 283 34 b 535 -25 397 -13 462 -25 b 637 -17 568 -25 602 -22 b 738 9 672 -11 705 -3 b 833 52 771 21 803 35 b 915 113 863 69 890 89 l 915 510 z m 458 1242 l 458 1096 l 588 1096 l 588 1242 z "},"ġ":{"ha":826,"x_min":0,"x_max":0,"o":"m 215 -67 l 96 -67 b 190 -234 105 -144 137 -200 b 413 -285 244 -268 318 -285 b 574 -257 478 -285 532 -275 b 672 -177 615 -238 648 -212 b 720 -51 695 -142 711 -100 b 733 117 729 -1 733 55 l 733 718 l 614 718 l 614 626 b 506 716 581 670 546 700 b 388 740 467 732 427 740 b 255 714 338 740 294 731 b 154 640 216 696 182 672 b 90 524 126 608 105 569 b 68 375 75 479 68 430 b 87 235 68 325 74 278 b 143 120 99 191 118 153 b 238 42 168 87 200 61 b 374 14 277 23 322 14 b 512 46 426 14 472 25 b 613 136 551 67 585 97 l 613 60 b 569 -124 613 -21 598 -82 b 411 -187 540 -166 487 -187 b 274 -160 349 -187 303 -178 b 215 -67 245 -141 225 -110 z m 615 386 l 615 363 b 599 253 615 321 610 284 b 553 176 588 222 572 197 b 484 131 533 156 510 141 b 397 115 458 120 429 115 b 323 129 372 115 347 120 b 258 174 298 138 277 153 b 213 254 240 194 225 221 b 196 376 202 288 196 328 b 212 497 196 424 201 464 b 256 579 222 531 237 558 b 323 626 275 600 297 616 b 406 640 348 635 376 640 b 485 627 433 640 460 636 b 553 583 511 618 533 604 b 599 505 572 563 588 537 b 615 386 610 473 615 433 z m 354 993 l 354 853 l 478 853 l 478 993 z "},"Ģ":{"ha":994,"x_min":0,"x_max":0,"o":"m 544 510 l 544 399 l 794 399 l 794 161 b 676 104 759 135 720 116 b 535 86 632 92 585 86 b 390 115 479 86 431 96 b 288 199 350 135 316 163 b 228 328 261 235 241 278 b 208 496 215 379 208 435 b 228 663 208 557 215 613 b 288 793 242 714 262 757 b 385 877 313 829 346 857 b 521 907 424 897 469 907 b 623 893 561 907 595 902 b 694 853 651 884 675 871 b 742 792 714 836 730 816 b 772 713 755 768 765 741 l 896 733 b 851 849 886 776 871 815 b 777 939 832 884 807 914 b 668 997 747 964 711 983 b 521 1017 625 1010 576 1017 b 342 982 456 1017 396 1005 b 201 881 287 959 240 925 b 108 717 161 836 131 781 b 75 494 86 652 75 578 b 106 276 75 413 85 340 b 195 113 126 211 156 157 b 340 10 234 68 283 34 b 535 -25 397 -13 462 -25 b 637 -17 568 -25 602 -22 b 738 9 672 -11 705 -3 b 833 52 771 21 803 35 b 915 113 863 69 890 89 l 915 510 z m 476 -93 l 371 -301 l 481 -301 l 614 -93 z "},"ģ":{"ha":826,"x_min":0,"x_max":0,"o":"m 215 -67 l 96 -67 b 190 -234 105 -144 137 -200 b 413 -285 244 -268 318 -285 b 574 -257 478 -285 532 -275 b 672 -177 615 -238 648 -212 b 720 -51 695 -142 711 -100 b 733 117 729 -1 733 55 l 733 718 l 614 718 l 614 626 b 506 716 581 670 546 700 b 388 740 467 732 427 740 b 255 714 338 740 294 731 b 154 640 216 696 182 672 b 90 524 126 608 105 569 b 68 375 75 479 68 430 b 87 235 68 325 74 278 b 143 120 99 191 118 153 b 238 42 168 87 200 61 b 374 14 277 23 322 14 b 512 46 426 14 472 25 b 613 136 551 67 585 97 l 613 60 b 569 -124 613 -21 598 -82 b 411 -187 540 -166 487 -187 b 274 -160 349 -187 303 -178 b 215 -67 245 -141 225 -110 z m 615 386 l 615 363 b 599 253 615 321 610 284 b 553 176 588 222 572 197 b 484 131 533 156 510 141 b 397 115 458 120 429 115 b 323 129 372 115 347 120 b 258 174 298 138 277 153 b 213 254 240 194 225 221 b 196 376 202 288 196 328 b 212 497 196 424 201 464 b 256 579 222 531 237 558 b 323 626 275 600 297 616 b 406 640 348 635 376 640 b 485 627 433 640 460 636 b 553 583 511 618 533 604 b 599 505 572 563 588 537 b 615 386 610 473 615 433 z m 465 1018 l 336 817 l 468 817 l 571 1018 z "},"Ĥ":{"ha":976,"x_min":0,"x_max":0,"o":"m 110 992 l 110 0 l 238 0 l 238 453 l 739 453 l 739 0 l 867 0 l 867 992 l 739 992 l 739 572 l 238 572 l 238 992 z m 428 1261 l 267 1074 l 381 1074 l 488 1183 l 594 1074 l 708 1074 l 549 1261 z "},"ĥ":{"ha":792,"x_min":0,"x_max":0,"o":"m 93 992 l 93 0 l 214 0 l 214 425 b 232 513 214 461 220 491 b 285 578 244 536 262 557 b 356 622 306 598 330 613 b 436 636 383 631 409 636 b 547 595 486 636 523 622 b 582 454 570 568 582 521 l 582 0 l 704 0 l 704 478 b 645 674 704 564 684 629 b 464 740 606 718 545 740 b 330 710 417 740 372 730 b 214 611 288 689 249 656 l 214 992 z m 258 1261 l 97 1074 l 211 1074 l 318 1183 l 425 1074 l 539 1074 l 379 1261 z "},"Ħ":{"ha":1013,"x_min":0,"x_max":0,"o":"m 128 724 l 128 0 l 256 0 l 256 442 l 757 442 l 757 0 l 885 0 l 885 724 l 999 724 l 999 829 l 885 829 l 885 992 l 757 992 l 757 829 l 256 829 l 256 992 l 128 992 l 128 829 l 14 829 l 14 724 z m 757 561 l 256 561 l 256 724 l 757 724 z "},"ħ":{"ha":808,"x_min":0,"x_max":0,"o":"m 110 801 l 110 0 l 231 0 l 231 393 b 248 480 231 428 236 457 b 300 544 259 503 277 524 b 373 590 322 565 347 580 b 453 604 399 599 426 604 b 563 563 503 604 540 590 b 599 421 587 535 599 488 l 599 0 l 721 0 l 721 444 b 663 641 721 531 702 596 b 479 708 625 686 563 708 b 347 678 433 708 389 698 b 231 579 304 657 266 625 l 231 801 l 465 801 l 465 889 l 231 889 l 231 992 l 110 992 l 110 889 l 14 889 l 14 801 z "},"Ĩ":{"ha":347,"x_min":0,"x_max":0,"o":"m 110 992 l 110 0 l 238 0 l 238 992 z m -75 1082 l 17 1082 b 31 1133 17 1103 21 1120 b 81 1153 40 1146 56 1153 b 126 1141 97 1153 113 1149 l 169 1116 b 217 1091 184 1107 200 1099 b 278 1079 234 1083 255 1079 b 385 1120 323 1079 359 1093 b 424 1243 411 1147 424 1188 l 332 1243 b 318 1192 332 1222 327 1205 b 268 1172 309 1179 292 1172 b 222 1184 251 1172 236 1176 l 179 1209 b 131 1234 164 1218 148 1226 b 71 1246 114 1242 94 1246 b -36 1204 25 1246 -10 1232 b -75 1082 -62 1176 -75 1136 z "},"ĩ":{"ha":313,"x_min":0,"x_max":0,"o":"m 96 718 l 96 0 l 217 0 l 217 718 z m -86 840 l 3 840 b 17 891 3 862 7 878 b 65 910 26 903 42 910 b 110 898 81 910 96 906 l 153 873 b 201 848 168 864 184 856 b 260 836 218 840 238 836 b 364 877 304 836 339 850 b 401 999 389 904 401 945 l 313 999 b 299 949 313 977 308 961 b 251 931 289 937 274 931 b 206 942 236 931 221 934 b 163 967 192 949 177 957 b 115 992 148 976 132 984 b 56 1003 97 999 78 1003 b -49 962 11 1003 -24 989 b -86 840 -74 934 -86 894 z "},"Ī":{"ha":347,"x_min":0,"x_max":0,"o":"m 110 992 l 110 0 l 238 0 l 238 992 z m -29 1207 l -29 1104 l 376 1104 l 376 1207 z "},"ī":{"ha":313,"x_min":0,"x_max":0,"o":"m 96 718 l 96 0 l 217 0 l 217 718 z m -24 963 l -24 864 l 339 864 l 339 963 z "},"Ĭ":{"ha":347,"x_min":0,"x_max":0,"o":"m 110 992 l 110 0 l 238 0 l 238 992 z m 76 1267 l -18 1267 b 33 1123 -18 1204 -1 1156 b 174 1074 66 1090 113 1074 b 315 1123 234 1074 281 1090 b 367 1267 350 1156 367 1204 l 272 1267 b 243 1182 272 1228 263 1200 b 174 1156 224 1164 200 1156 b 104 1182 146 1156 123 1164 b 76 1267 86 1200 76 1228 z "},"ĭ":{"ha":313,"x_min":0,"x_max":0,"o":"m 96 718 l 96 0 l 217 0 l 217 718 z m 60 1013 l -32 1013 b 18 869 -32 950 -15 903 b 157 819 51 836 98 819 b 297 869 216 819 263 836 b 347 1013 330 903 347 950 l 256 1013 b 226 927 256 974 246 945 b 157 900 207 909 184 900 b 88 927 130 900 107 909 b 60 1013 69 945 60 974 z "},"Į":{"ha":347,"x_min":0,"x_max":0,"o":"m 240 -256 l 240 -169 b 224 -171 236 -170 230 -171 l 206 -171 b 163 -161 189 -171 175 -168 b 146 -122 152 -155 146 -142 b 238 0 146 -84 176 -44 l 238 992 l 110 992 l 110 0 l 128 0 b 57 -72 96 -24 73 -48 b 33 -144 41 -95 33 -119 b 70 -228 33 -181 46 -209 b 196 -258 95 -248 137 -258 b 220 -258 203 -258 211 -258 b 240 -256 229 -257 236 -256 z "},"į":{"ha":313,"x_min":0,"x_max":0,"o":"m 222 -247 l 222 -165 b 203 -167 215 -166 209 -167 l 188 -167 b 147 -157 172 -167 158 -163 b 129 -119 135 -150 129 -138 b 217 0 129 -83 158 -44 l 217 718 l 96 718 l 96 0 l 114 0 b 21 -140 52 -45 21 -92 b 56 -222 21 -175 32 -203 b 178 -250 79 -241 119 -250 b 201 -249 185 -250 193 -250 b 222 -247 209 -249 216 -248 z m 92 992 l 92 851 l 221 851 l 221 992 z "},"İ":{"ha":347,"x_min":0,"x_max":0,"o":"m 110 992 l 110 0 l 238 0 l 238 992 z m 110 1242 l 110 1096 l 239 1096 l 239 1242 z "},"ı":{"ha":313,"x_min":0,"x_max":0,"o":"m 96 718 l 96 0 l 217 0 l 217 718 z "},"Ĳ":{"ha":1178,"x_min":0,"x_max":0,"o":"m 110 992 l 110 0 l 238 0 l 238 992 z m 515 297 l 386 297 b 493 53 396 186 432 105 b 740 -25 554 1 637 -25 b 988 63 845 -25 927 4 b 1078 326 1048 121 1078 209 l 1078 992 l 950 992 l 950 336 b 902 151 950 256 934 195 b 738 86 870 108 815 86 b 640 102 699 86 666 91 b 574 146 613 113 591 127 b 535 213 557 164 544 187 b 515 297 525 238 519 267 z "},"ĳ":{"ha":626,"x_min":0,"x_max":0,"o":"m 96 718 l 96 0 l 217 0 l 217 718 z m 92 992 l 92 851 l 221 851 l 221 992 z m 406 992 l 406 851 l 535 851 l 535 992 z m 222 -140 l 201 -236 b 261 -252 220 -243 240 -248 b 336 -258 282 -256 307 -258 b 433 -240 375 -258 407 -252 b 492 -187 458 -227 478 -210 b 522 -108 507 -165 517 -139 b 531 -8 528 -78 531 -44 l 531 718 l 410 718 l 410 -40 b 389 -126 410 -79 403 -108 b 317 -154 375 -145 351 -154 b 265 -151 297 -154 280 -153 b 222 -140 249 -148 235 -145 z "},"Ĵ":{"ha":829,"x_min":0,"x_max":0,"o":"m 167 297 l 38 297 b 144 53 48 186 83 105 b 392 -25 206 1 288 -25 b 639 63 496 -25 579 4 b 729 326 699 121 729 209 l 729 992 l 601 992 l 601 336 b 553 151 601 256 585 195 b 389 86 522 108 467 86 b 291 102 350 86 317 91 b 226 146 265 113 243 127 b 186 213 209 164 195 187 b 167 297 177 238 170 267 z m 603 1261 l 442 1074 l 556 1074 l 663 1183 l 769 1074 l 883 1074 l 724 1261 z "},"ĵ":{"ha":313,"x_min":0,"x_max":0,"o":"m -92 -140 l -112 -236 b -53 -252 -94 -243 -74 -248 b 22 -258 -31 -256 -6 -258 b 119 -240 61 -258 93 -252 b 178 -187 144 -227 164 -210 b 208 -108 193 -165 203 -139 b 217 -8 214 -78 217 -44 l 217 718 l 96 718 l 96 -40 b 75 -126 96 -79 89 -108 b 3 -154 61 -145 37 -154 b -49 -151 -17 -154 -34 -153 b -92 -140 -65 -148 -79 -145 z m 97 1018 l -62 821 l 49 821 l 157 943 l 265 821 l 378 821 l 218 1018 z "},"Ķ":{"ha":903,"x_min":0,"x_max":0,"o":"m 110 992 l 110 0 l 239 0 l 239 372 l 403 536 l 739 0 l 886 0 l 496 621 l 850 992 l 704 992 l 239 517 l 239 992 z m 418 -93 l 313 -301 l 422 -301 l 556 -93 z "},"ķ":{"ha":726,"x_min":0,"x_max":0,"o":"m 93 992 l 93 0 l 213 0 l 213 286 l 347 407 l 585 0 l 722 0 l 438 478 l 694 718 l 549 718 l 213 414 l 213 992 z m 331 -93 l 228 -296 l 333 -296 l 463 -93 z "},"ĸ":{"ha":726,"x_min":0,"x_max":0,"o":"m 93 718 l 93 0 l 213 0 l 213 247 l 350 382 l 585 0 l 722 0 l 439 456 l 693 718 l 551 718 l 213 378 l 213 718 z "},"Ĺ":{"ha":781,"x_min":0,"x_max":0,"o":"m 110 992 l 110 0 l 732 0 l 751 114 l 238 114 l 238 992 z m 258 1261 l 96 1074 l 217 1074 l 408 1261 z "},"ĺ":{"ha":313,"x_min":0,"x_max":0,"o":"m 96 992 l 96 0 l 217 0 l 217 992 z m 243 1261 l 81 1074 l 201 1074 l 393 1261 z "},"Ļ":{"ha":781,"x_min":0,"x_max":0,"o":"m 110 992 l 110 0 l 732 0 l 751 114 l 238 114 l 238 992 z m 367 -93 l 261 -301 l 371 -301 l 504 -93 z "},"ļ":{"ha":313,"x_min":0,"x_max":0,"o":"m 96 992 l 96 0 l 217 0 l 217 992 z m 93 -93 l -10 -296 l 96 -296 l 225 -93 z "},"Ľ":{"ha":781,"x_min":0,"x_max":0,"o":"m 110 992 l 110 0 l 732 0 l 751 114 l 238 114 l 238 992 z m 498 993 l 459 701 l 555 701 l 621 993 z "},"ľ":{"ha":313,"x_min":0,"x_max":0,"o":"m 96 992 l 96 0 l 217 0 l 217 992 z m 344 992 l 307 708 l 400 708 l 464 992 z "},"Ŀ":{"ha":781,"x_min":0,"x_max":0,"o":"m 110 992 l 110 0 l 732 0 l 751 114 l 238 114 l 238 992 z m 479 633 l 479 471 l 618 471 l 618 633 z "},"ŀ":{"ha":478,"x_min":0,"x_max":0,"o":"m 96 992 l 96 0 l 217 0 l 217 992 z m 325 600 l 325 438 l 464 438 l 464 600 z "},"Ł":{"ha":799,"x_min":0,"x_max":0,"o":"m 128 342 l 128 0 l 750 0 l 769 114 l 256 114 l 256 432 l 532 625 l 532 744 l 256 551 l 256 992 l 128 992 l 128 461 l 14 382 l 14 263 z "},"ł":{"ha":388,"x_min":0,"x_max":0,"o":"m 133 450 l 133 0 l 254 0 l 254 525 l 381 614 l 381 721 l 254 631 l 254 992 l 133 992 l 133 556 l 7 467 l 7 361 z "},"Ń":{"ha":974,"x_min":0,"x_max":0,"o":"m 110 992 l 110 0 l 233 0 l 233 783 l 742 0 l 864 0 l 864 992 l 740 992 l 740 204 l 236 992 z m 549 1261 l 386 1074 l 507 1074 l 699 1261 z "},"ń":{"ha":792,"x_min":0,"x_max":0,"o":"m 93 718 l 93 0 l 214 0 l 214 425 b 232 513 214 461 220 491 b 285 578 244 536 262 557 b 356 622 306 598 330 613 b 436 636 383 631 409 636 b 547 595 486 636 523 622 b 583 454 571 568 583 521 l 583 0 l 704 0 l 704 478 b 645 674 704 564 684 629 b 464 740 606 718 545 740 b 329 710 417 740 372 730 b 213 608 287 689 248 656 l 213 718 z m 436 1018 l 278 821 l 397 821 l 585 1018 z "},"Ņ":{"ha":974,"x_min":0,"x_max":0,"o":"m 110 992 l 110 0 l 233 0 l 233 783 l 742 0 l 864 0 l 864 992 l 740 992 l 740 204 l 236 992 z m 432 -93 l 326 -301 l 436 -301 l 569 -93 z "},"ņ":{"ha":792,"x_min":0,"x_max":0,"o":"m 93 718 l 93 0 l 214 0 l 214 425 b 232 513 214 461 220 491 b 285 578 244 536 262 557 b 356 622 306 598 330 613 b 436 636 383 631 409 636 b 547 595 486 636 523 622 b 583 454 571 568 583 521 l 583 0 l 704 0 l 704 478 b 645 674 704 564 684 629 b 464 740 606 718 545 740 b 329 710 417 740 372 730 b 213 608 287 689 248 656 l 213 718 z m 342 -93 l 239 -296 l 344 -296 l 474 -93 z "},"Ň":{"ha":974,"x_min":0,"x_max":0,"o":"m 110 992 l 110 0 l 233 0 l 233 783 l 742 0 l 864 0 l 864 992 l 740 992 l 740 204 l 236 992 z m 268 1265 l 429 1079 l 550 1079 l 710 1265 l 597 1265 l 490 1154 l 383 1265 z "},"ň":{"ha":792,"x_min":0,"x_max":0,"o":"m 93 718 l 93 0 l 214 0 l 214 425 b 232 513 214 461 220 491 b 285 578 244 536 262 557 b 356 622 306 598 330 613 b 436 636 383 631 409 636 b 547 595 486 636 523 622 b 583 454 571 568 583 521 l 583 0 l 704 0 l 704 478 b 645 674 704 564 684 629 b 464 740 606 718 545 740 b 329 710 417 740 372 730 b 213 608 287 689 248 656 l 213 718 z m 464 824 l 624 1021 l 513 1021 l 404 899 l 296 1021 l 183 1021 l 343 824 z "},"ŉ":{"ha":878,"x_min":0,"x_max":0,"o":"m 179 718 l 179 0 l 300 0 l 300 425 b 318 513 300 461 306 491 b 371 578 330 536 348 557 b 442 622 392 598 416 613 b 522 636 469 631 495 636 b 633 595 572 636 609 622 b 669 454 657 568 669 521 l 669 0 l 790 0 l 790 478 b 731 674 790 564 771 629 b 550 740 692 718 631 740 b 415 710 503 740 458 730 b 299 608 373 689 334 656 l 299 718 z m 40 992 l 1 700 l 94 700 l 168 992 z "},"Ŋ":{"ha":974,"x_min":0,"x_max":0,"o":"m 382 -143 l 350 -251 b 444 -278 381 -264 412 -273 b 547 -285 476 -282 510 -285 b 678 -268 595 -285 639 -279 b 778 -215 717 -257 750 -239 b 842 -122 806 -191 827 -160 b 864 17 856 -84 864 -38 l 864 992 l 740 992 l 740 204 l 236 992 l 110 992 l 110 0 l 233 0 l 233 783 l 735 11 b 688 -128 735 -52 719 -98 b 543 -172 657 -157 609 -172 b 450 -164 506 -172 475 -169 b 382 -143 425 -158 402 -151 z "},"ŋ":{"ha":792,"x_min":0,"x_max":0,"o":"m 93 718 l 93 0 l 214 0 l 214 425 b 232 513 214 461 220 491 b 285 578 244 536 262 557 b 356 622 306 598 330 613 b 436 636 383 631 409 636 b 547 595 486 636 523 622 b 583 454 571 568 583 521 l 583 -40 b 562 -126 583 -79 576 -108 b 490 -154 547 -145 524 -154 b 438 -151 470 -154 452 -153 b 396 -140 423 -148 409 -145 l 376 -236 b 435 -252 395 -243 414 -248 b 510 -258 455 -256 480 -258 b 606 -240 549 -258 581 -252 b 665 -188 631 -227 650 -210 b 696 -110 680 -166 690 -140 b 704 -10 701 -79 704 -46 l 704 478 b 645 674 704 564 684 629 b 464 740 606 718 545 740 b 329 710 417 740 372 730 b 213 608 287 689 248 656 l 213 718 z "},"Ō":{"ha":1063,"x_min":0,"x_max":0,"o":"m 532 -25 b 719 10 600 -25 663 -13 b 863 111 775 33 823 67 b 955 276 902 156 933 210 b 988 499 977 341 988 415 b 954 720 988 582 976 656 b 861 883 932 784 901 839 b 717 983 821 927 773 960 b 532 1017 661 1005 600 1017 b 348 982 465 1017 404 1005 b 203 881 292 959 244 925 b 109 717 163 836 132 781 b 75 494 86 652 75 578 b 108 272 75 411 86 337 b 202 109 131 207 162 153 b 347 9 242 65 291 32 b 532 -25 403 -14 464 -25 z m 532 86 b 390 115 477 86 430 96 b 289 198 349 135 316 162 b 228 327 262 234 242 277 b 208 496 215 378 208 434 b 228 663 208 557 215 613 b 290 793 242 714 262 757 b 391 876 317 829 351 857 b 532 906 431 896 478 906 b 671 876 585 906 631 896 b 772 793 711 857 744 829 b 833 663 799 757 819 714 b 854 496 847 613 854 557 b 833 327 854 434 847 378 b 772 198 819 277 799 234 b 672 115 745 162 712 135 b 532 86 631 96 585 86 z m 328 1207 l 328 1104 l 733 1104 l 733 1207 z "},"ō":{"ha":835,"x_min":0,"x_max":0,"o":"m 415 -22 b 561 5 469 -22 518 -13 b 672 82 605 23 641 49 b 741 203 702 115 725 156 b 765 363 757 250 765 303 b 742 519 765 421 757 473 b 673 638 726 566 703 605 b 564 714 643 671 606 696 b 419 740 521 731 473 740 b 276 713 367 740 319 731 b 165 636 233 695 196 669 b 94 515 135 603 111 563 b 69 357 78 468 69 415 b 93 199 69 299 77 246 b 161 79 109 151 131 112 b 269 4 191 47 227 22 b 415 -22 312 -13 361 -22 z m 417 78 b 317 99 378 78 344 85 b 249 157 289 113 266 132 b 210 246 231 182 218 212 b 197 360 201 280 197 318 b 210 474 197 401 201 439 b 249 562 218 508 231 537 b 317 619 267 586 290 606 b 417 640 345 633 378 640 b 517 619 456 640 489 633 b 585 562 544 606 567 586 b 625 474 603 537 617 508 b 638 361 633 439 638 402 b 625 247 638 319 633 281 b 585 157 617 212 603 182 b 517 99 567 132 544 113 b 417 78 489 85 456 78 z m 236 963 l 236 864 l 599 864 l 599 963 z "},"Ŏ":{"ha":1063,"x_min":0,"x_max":0,"o":"m 532 -25 b 719 10 600 -25 663 -13 b 863 111 775 33 823 67 b 955 276 902 156 933 210 b 988 499 977 341 988 415 b 954 720 988 582 976 656 b 861 883 932 784 901 839 b 717 983 821 927 773 960 b 532 1017 661 1005 600 1017 b 348 982 465 1017 404 1005 b 203 881 292 959 244 925 b 109 717 163 836 132 781 b 75 494 86 652 75 578 b 108 272 75 411 86 337 b 202 109 131 207 162 153 b 347 9 242 65 291 32 b 532 -25 403 -14 464 -25 z m 532 86 b 390 115 477 86 430 96 b 289 198 349 135 316 162 b 228 327 262 234 242 277 b 208 496 215 378 208 434 b 228 663 208 557 215 613 b 290 793 242 714 262 757 b 391 876 317 829 351 857 b 532 906 431 896 478 906 b 671 876 585 906 631 896 b 772 793 711 857 744 829 b 833 663 799 757 819 714 b 854 496 847 613 854 557 b 833 327 854 434 847 378 b 772 198 819 277 799 234 b 672 115 745 162 712 135 b 532 86 631 96 585 86 z m 433 1267 l 339 1267 b 390 1123 339 1204 356 1156 b 531 1074 423 1090 470 1074 b 672 1123 591 1074 638 1090 b 724 1267 706 1156 724 1204 l 629 1267 b 600 1182 629 1228 619 1200 b 531 1156 581 1164 557 1156 b 461 1182 503 1156 480 1164 b 433 1267 443 1200 433 1228 z "},"ŏ":{"ha":835,"x_min":0,"x_max":0,"o":"m 415 -22 b 561 5 469 -22 518 -13 b 672 82 605 23 641 49 b 741 203 702 115 725 156 b 765 363 757 250 765 303 b 742 519 765 421 757 473 b 673 638 726 566 703 605 b 564 714 643 671 606 696 b 419 740 521 731 473 740 b 276 713 367 740 319 731 b 165 636 233 695 196 669 b 94 515 135 603 111 563 b 69 357 78 468 69 415 b 93 199 69 299 77 246 b 161 79 109 151 131 112 b 269 4 191 47 227 22 b 415 -22 312 -13 361 -22 z m 417 78 b 317 99 378 78 344 85 b 249 157 289 113 266 132 b 210 246 231 182 218 212 b 197 360 201 280 197 318 b 210 474 197 401 201 439 b 249 562 218 508 231 537 b 317 619 267 586 290 606 b 417 640 345 633 378 640 b 517 619 456 640 489 633 b 585 562 544 606 567 586 b 625 474 603 537 617 508 b 638 361 633 439 638 402 b 625 247 638 319 633 281 b 585 157 617 212 603 182 b 517 99 567 132 544 113 b 417 78 489 85 456 78 z m 319 1013 l 228 1013 b 278 869 228 950 244 903 b 417 819 311 836 357 819 b 556 869 476 819 522 836 b 607 1013 590 903 607 950 l 515 1013 b 486 927 515 974 506 945 b 417 900 467 909 444 900 b 348 927 390 900 367 909 b 319 1013 329 945 319 974 z "},"Ő":{"ha":1063,"x_min":0,"x_max":0,"o":"m 532 -25 b 719 10 600 -25 663 -13 b 863 111 775 33 823 67 b 955 276 902 156 933 210 b 988 499 977 341 988 415 b 954 720 988 582 976 656 b 861 883 932 784 901 839 b 717 983 821 927 773 960 b 532 1017 661 1005 600 1017 b 348 982 465 1017 404 1005 b 203 881 292 959 244 925 b 109 717 163 836 132 781 b 75 494 86 652 75 578 b 108 272 75 411 86 337 b 202 109 131 207 162 153 b 347 9 242 65 291 32 b 532 -25 403 -14 464 -25 z m 532 86 b 390 115 477 86 430 96 b 289 198 349 135 316 162 b 228 327 262 234 242 277 b 208 496 215 378 208 434 b 228 663 208 557 215 613 b 290 793 242 714 262 757 b 391 876 317 829 351 857 b 532 906 431 896 478 906 b 671 876 585 906 631 896 b 772 793 711 857 744 829 b 833 663 799 757 819 714 b 854 496 847 613 854 557 b 833 327 854 434 847 378 b 772 198 819 277 799 234 b 672 115 745 162 712 135 b 532 86 631 96 585 86 z m 492 1261 l 342 1074 l 453 1074 l 633 1261 z m 742 1261 l 590 1074 l 701 1074 l 883 1261 z "},"ő":{"ha":835,"x_min":0,"x_max":0,"o":"m 415 -22 b 561 5 469 -22 518 -13 b 672 82 605 23 641 49 b 741 203 702 115 725 156 b 765 363 757 250 765 303 b 742 519 765 421 757 473 b 673 638 726 566 703 605 b 564 714 643 671 606 696 b 419 740 521 731 473 740 b 276 713 367 740 319 731 b 165 636 233 695 196 669 b 94 515 135 603 111 563 b 69 357 78 468 69 415 b 93 199 69 299 77 246 b 161 79 109 151 131 112 b 269 4 191 47 227 22 b 415 -22 312 -13 361 -22 z m 417 78 b 317 99 378 78 344 85 b 249 157 289 113 266 132 b 210 246 231 182 218 212 b 197 360 201 280 197 318 b 210 474 197 401 201 439 b 249 562 218 508 231 537 b 317 619 267 586 290 606 b 417 640 345 633 378 640 b 517 619 456 640 489 633 b 585 562 544 606 567 586 b 625 474 603 537 617 508 b 638 361 633 439 638 402 b 625 247 638 319 633 281 b 585 157 617 212 603 182 b 517 99 567 132 544 113 b 417 78 489 85 456 78 z m 372 1018 l 229 821 l 339 821 l 511 1018 z m 614 1018 l 471 821 l 579 821 l 753 1018 z "},"Œ":{"ha":1494,"x_min":0,"x_max":0,"o":"m 817 147 l 817 0 l 1426 0 l 1447 113 l 940 113 l 940 454 l 1393 454 l 1393 568 l 940 568 l 940 879 l 1421 879 l 1421 992 l 817 992 l 817 849 b 689 974 781 904 738 946 b 508 1017 640 1003 580 1017 b 338 982 447 1017 390 1005 b 200 881 285 959 239 925 b 108 717 161 836 131 781 b 75 494 86 652 75 578 b 108 272 75 411 86 337 b 200 109 131 207 161 153 b 338 9 239 65 285 32 b 508 -25 390 -14 447 -25 b 691 19 581 -25 642 -10 b 817 147 740 49 781 92 z m 513 85 b 382 114 463 85 420 94 b 287 197 344 133 312 161 b 228 327 261 233 242 277 b 208 496 215 378 208 434 b 228 663 208 557 215 613 b 288 793 242 714 262 757 b 383 877 313 829 345 857 b 513 907 420 897 463 907 b 644 877 563 907 606 897 b 739 792 681 857 713 829 b 797 659 765 755 784 710 b 817 489 810 608 817 551 b 795 323 816 428 809 372 b 737 196 782 273 762 231 b 642 114 711 161 680 133 b 513 85 605 94 562 85 z "},"œ":{"ha":1344,"x_min":0,"x_max":0,"o":"m 1267 201 l 1150 201 b 1094 109 1140 163 1121 132 b 965 75 1066 86 1024 75 b 874 94 931 75 901 81 b 808 148 848 107 826 125 b 767 228 790 171 776 197 b 753 329 757 259 753 293 l 1278 329 l 1278 390 b 1260 531 1278 441 1272 488 b 1203 641 1248 573 1229 610 b 1105 714 1177 672 1144 696 b 965 740 1066 731 1019 740 b 803 699 904 740 850 726 b 690 574 757 671 719 629 b 581 698 663 628 627 670 b 415 740 535 726 480 740 b 274 713 363 740 316 731 b 165 636 231 695 195 669 b 94 515 134 603 111 563 b 69 357 78 468 69 415 b 93 199 69 299 77 246 b 160 79 109 151 131 112 b 267 4 190 47 225 22 b 411 -22 309 -13 357 -22 b 578 22 478 -22 534 -8 b 689 149 623 51 660 93 b 796 23 716 95 751 53 b 965 -22 840 -7 897 -22 b 1175 38 1056 -22 1126 -2 b 1267 201 1224 77 1255 132 z m 413 78 b 315 99 375 78 342 85 b 248 157 287 113 265 132 b 210 246 231 182 218 212 b 197 360 201 280 197 318 b 210 474 197 401 201 439 b 249 562 218 508 231 537 b 315 619 266 586 288 606 b 413 640 342 633 375 640 b 512 619 451 640 484 633 b 578 561 539 606 561 586 b 617 472 596 536 608 506 b 629 360 625 438 629 400 b 617 246 629 318 625 280 b 577 157 608 212 595 182 b 509 99 559 132 536 113 b 413 78 482 85 450 78 z m 1157 419 l 756 419 b 819 589 762 494 783 550 b 964 647 854 628 903 647 b 1051 631 998 647 1027 642 b 1111 584 1075 619 1095 604 b 1146 513 1127 564 1138 540 b 1157 419 1153 485 1157 454 z "},"Ŕ":{"ha":878,"x_min":0,"x_max":0,"o":"m 110 992 l 110 0 l 236 0 l 236 411 l 432 411 b 469 412 443 411 456 411 b 508 415 483 412 496 413 l 696 0 l 839 0 l 631 446 b 760 550 691 471 734 506 b 800 711 787 594 800 648 b 785 813 800 745 795 779 b 728 902 775 846 756 876 b 617 967 701 928 664 950 b 435 992 569 983 509 992 z m 447 521 l 236 521 l 236 883 l 431 883 b 547 872 478 883 517 879 b 620 837 578 864 602 852 b 658 782 638 822 651 803 b 669 708 666 761 669 736 b 660 631 669 680 666 654 b 625 572 653 607 642 588 b 557 534 608 555 586 543 b 447 521 528 525 492 521 z m 474 1261 l 311 1074 l 432 1074 l 624 1261 z "},"ŕ":{"ha":508,"x_min":0,"x_max":0,"o":"m 93 718 l 93 0 l 214 0 l 214 426 b 231 507 214 457 220 484 b 279 568 243 530 259 550 b 344 608 300 587 321 600 b 413 619 368 616 390 619 b 443 617 424 619 434 619 b 471 613 452 616 462 614 l 486 725 b 422 731 469 729 447 731 b 307 699 381 731 343 720 b 213 607 271 677 239 647 l 213 718 z m 353 1018 l 194 821 l 314 821 l 501 1018 z "},"Ŗ":{"ha":878,"x_min":0,"x_max":0,"o":"m 110 992 l 110 0 l 236 0 l 236 411 l 432 411 b 469 412 443 411 456 411 b 508 415 483 412 496 413 l 696 0 l 839 0 l 631 446 b 760 550 691 471 734 506 b 800 711 787 594 800 648 b 785 813 800 745 795 779 b 728 902 775 846 756 876 b 617 967 701 928 664 950 b 435 992 569 983 509 992 z m 447 521 l 236 521 l 236 883 l 431 883 b 547 872 478 883 517 879 b 620 837 578 864 602 852 b 658 782 638 822 651 803 b 669 708 666 761 669 736 b 660 631 669 680 666 654 b 625 572 653 607 642 588 b 557 534 608 555 586 543 b 447 521 528 525 492 521 z m 396 -93 l 290 -301 l 400 -301 l 533 -93 z "},"ŗ":{"ha":508,"x_min":0,"x_max":0,"o":"m 93 718 l 93 0 l 214 0 l 214 426 b 231 507 214 457 220 484 b 279 568 243 530 259 550 b 344 608 300 587 321 600 b 413 619 368 616 390 619 b 443 617 424 619 434 619 b 471 613 452 616 462 614 l 486 725 b 422 731 469 729 447 731 b 307 699 381 731 343 720 b 213 607 271 677 239 647 l 213 718 z m 97 -93 l -6 -296 l 100 -296 l 229 -93 z "},"Ř":{"ha":878,"x_min":0,"x_max":0,"o":"m 110 992 l 110 0 l 236 0 l 236 411 l 432 411 b 469 412 443 411 456 411 b 508 415 483 412 496 413 l 696 0 l 839 0 l 631 446 b 760 550 691 471 734 506 b 800 711 787 594 800 648 b 785 813 800 745 795 779 b 728 902 775 846 756 876 b 617 967 701 928 664 950 b 435 992 569 983 509 992 z m 447 521 l 236 521 l 236 883 l 431 883 b 547 872 478 883 517 879 b 620 837 578 864 602 852 b 658 782 638 822 651 803 b 669 708 666 761 669 736 b 660 631 669 680 666 654 b 625 572 653 607 642 588 b 557 534 608 555 586 543 b 447 521 528 525 492 521 z m 182 1265 l 343 1079 l 464 1079 l 624 1265 l 511 1265 l 404 1154 l 297 1265 z "},"ř":{"ha":508,"x_min":0,"x_max":0,"o":"m 93 718 l 93 0 l 214 0 l 214 426 b 231 507 214 457 220 484 b 279 568 243 530 259 550 b 344 608 300 587 321 600 b 413 619 368 616 390 619 b 443 617 424 619 434 619 b 471 613 452 616 462 614 l 486 725 b 422 731 469 729 447 731 b 307 699 381 731 343 720 b 213 607 271 677 239 647 l 213 718 z m 350 824 l 510 1021 l 399 1021 l 290 899 l 182 1021 l 69 1021 l 229 824 z "},"Ś":{"ha":893,"x_min":0,"x_max":0,"o":"m 182 282 l 54 282 b 93 143 59 228 72 182 b 178 47 114 104 143 72 b 302 -8 213 22 254 4 b 461 -25 350 -19 403 -25 b 621 -3 522 -25 575 -18 b 734 58 666 12 704 32 b 802 149 764 84 787 115 b 825 261 817 184 825 221 b 753 459 825 348 801 414 b 526 556 705 504 629 536 l 388 581 b 301 603 353 587 325 595 b 245 637 278 612 259 623 b 215 684 231 650 221 666 b 206 747 209 702 206 723 b 217 810 206 769 209 791 b 257 862 225 830 238 847 b 331 896 275 876 300 888 b 444 908 361 904 399 908 b 546 897 484 908 518 905 b 616 865 574 890 597 879 b 662 810 635 850 650 832 b 690 736 673 789 683 764 l 810 760 b 777 855 802 792 791 824 b 714 938 763 886 742 913 b 606 995 686 962 650 981 b 442 1017 562 1009 507 1017 b 297 1000 390 1017 342 1011 b 182 949 253 989 214 972 b 105 863 150 925 124 897 b 76 743 86 828 76 788 b 97 625 76 697 83 657 b 156 544 110 593 130 566 b 253 490 183 522 215 504 b 383 457 291 476 334 465 l 508 435 b 599 408 545 428 576 419 b 655 369 623 397 641 384 b 682 320 668 355 677 338 b 689 264 687 302 689 283 b 678 195 689 240 685 217 b 640 138 670 173 658 154 b 570 99 623 122 599 109 b 461 85 541 90 505 85 b 265 131 374 85 309 100 b 182 282 221 162 193 213 z m 500 1261 l 338 1074 l 458 1074 l 650 1261 z "},"ś":{"ha":725,"x_min":0,"x_max":0,"o":"m 171 210 l 54 210 b 85 101 57 167 67 131 b 154 30 102 72 125 48 b 253 -10 183 12 216 -1 b 375 -22 291 -18 331 -22 b 501 -6 423 -22 465 -17 b 592 38 538 4 568 19 b 646 105 616 57 634 79 b 664 189 658 130 664 158 b 609 339 664 255 646 305 b 428 411 572 373 512 397 l 324 428 b 256 444 296 432 273 438 b 214 467 238 451 224 459 b 193 498 204 476 197 486 b 188 538 189 509 188 523 b 196 577 188 551 190 565 b 224 611 201 590 211 601 b 278 635 238 621 256 629 b 361 644 300 641 328 644 b 435 637 391 644 416 642 b 486 615 455 632 472 624 b 519 578 500 605 511 593 b 542 526 528 563 535 546 l 651 544 b 624 621 645 571 636 597 b 572 683 612 645 594 666 b 487 725 550 701 522 715 b 357 740 452 735 409 740 b 244 726 316 740 278 735 b 153 684 209 716 179 702 b 94 618 128 666 108 644 b 72 529 79 592 72 563 b 88 444 72 496 78 467 b 136 384 99 420 115 400 b 214 344 157 368 183 355 b 321 319 244 334 280 326 l 413 306 b 478 288 439 301 461 295 b 517 262 494 280 507 272 b 535 228 526 252 532 241 b 540 189 539 216 540 203 b 502 106 540 155 528 127 b 372 75 477 85 433 75 b 234 105 314 75 268 85 b 171 210 200 125 179 160 z m 426 1018 l 268 821 l 388 821 l 575 1018 z "},"Ŝ":{"ha":893,"x_min":0,"x_max":0,"o":"m 182 282 l 54 282 b 93 143 59 228 72 182 b 178 47 114 104 143 72 b 302 -8 213 22 254 4 b 461 -25 350 -19 403 -25 b 621 -3 522 -25 575 -18 b 734 58 666 12 704 32 b 802 149 764 84 787 115 b 825 261 817 184 825 221 b 753 459 825 348 801 414 b 526 556 705 504 629 536 l 388 581 b 301 603 353 587 325 595 b 245 637 278 612 259 623 b 215 684 231 650 221 666 b 206 747 209 702 206 723 b 217 810 206 769 209 791 b 257 862 225 830 238 847 b 331 896 275 876 300 888 b 444 908 361 904 399 908 b 546 897 484 908 518 905 b 616 865 574 890 597 879 b 662 810 635 850 650 832 b 690 736 673 789 683 764 l 810 760 b 777 855 802 792 791 824 b 714 938 763 886 742 913 b 606 995 686 962 650 981 b 442 1017 562 1009 507 1017 b 297 1000 390 1017 342 1011 b 182 949 253 989 214 972 b 105 863 150 925 124 897 b 76 743 86 828 76 788 b 97 625 76 697 83 657 b 156 544 110 593 130 566 b 253 490 183 522 215 504 b 383 457 291 476 334 465 l 508 435 b 599 408 545 428 576 419 b 655 369 623 397 641 384 b 682 320 668 355 677 338 b 689 264 687 302 689 283 b 678 195 689 240 685 217 b 640 138 670 173 658 154 b 570 99 623 122 599 109 b 461 85 541 90 505 85 b 265 131 374 85 309 100 b 182 282 221 162 193 213 z m 386 1261 l 225 1074 l 339 1074 l 446 1183 l 553 1074 l 667 1074 l 507 1261 z "},"ŝ":{"ha":725,"x_min":0,"x_max":0,"o":"m 171 210 l 54 210 b 85 101 57 167 67 131 b 154 30 102 72 125 48 b 253 -10 183 12 216 -1 b 375 -22 291 -18 331 -22 b 501 -6 423 -22 465 -17 b 592 38 538 4 568 19 b 646 105 616 57 634 79 b 664 189 658 130 664 158 b 609 339 664 255 646 305 b 428 411 572 373 512 397 l 324 428 b 256 444 296 432 273 438 b 214 467 238 451 224 459 b 193 498 204 476 197 486 b 188 538 189 509 188 523 b 196 577 188 551 190 565 b 224 611 201 590 211 601 b 278 635 238 621 256 629 b 361 644 300 641 328 644 b 435 637 391 644 416 642 b 486 615 455 632 472 624 b 519 578 500 605 511 593 b 542 526 528 563 535 546 l 651 544 b 624 621 645 571 636 597 b 572 683 612 645 594 666 b 487 725 550 701 522 715 b 357 740 452 735 409 740 b 244 726 316 740 278 735 b 153 684 209 716 179 702 b 94 618 128 666 108 644 b 72 529 79 592 72 563 b 88 444 72 496 78 467 b 136 384 99 420 115 400 b 214 344 157 368 183 355 b 321 319 244 334 280 326 l 413 306 b 478 288 439 301 461 295 b 517 262 494 280 507 272 b 535 228 526 252 532 241 b 540 189 539 216 540 203 b 502 106 540 155 528 127 b 372 75 477 85 433 75 b 234 105 314 75 268 85 b 171 210 200 125 179 160 z m 303 1018 l 143 821 l 254 821 l 363 943 l 471 821 l 583 821 l 424 1018 z "},"Ş":{"ha":893,"x_min":0,"x_max":0,"o":"m 304 -221 l 304 -299 b 351 -304 322 -301 338 -303 b 393 -306 365 -305 379 -306 b 527 -280 450 -306 494 -297 b 576 -189 560 -263 576 -232 b 570 -150 576 -175 574 -162 b 549 -117 566 -138 559 -127 b 508 -90 538 -106 525 -98 b 444 -75 492 -83 470 -78 l 464 -25 b 622 -2 524 -25 577 -17 b 734 59 666 13 704 34 b 802 149 764 84 787 115 b 825 261 817 184 825 221 b 753 459 825 348 801 414 b 526 556 705 504 629 536 l 388 581 b 301 604 353 587 325 595 b 245 638 278 613 259 625 b 215 684 231 650 221 666 b 206 747 209 702 206 723 b 217 810 206 769 209 791 b 257 862 225 830 238 847 b 331 896 275 876 300 888 b 444 908 361 904 399 908 b 546 897 484 908 518 905 b 616 865 574 890 597 879 b 662 810 635 850 650 832 b 690 736 673 789 683 764 l 810 760 b 777 855 802 792 791 824 b 714 938 763 886 742 913 b 606 995 686 962 650 981 b 442 1017 562 1009 507 1017 b 297 1000 390 1017 342 1011 b 182 949 253 989 214 972 b 105 863 150 925 124 897 b 76 743 86 828 76 788 b 97 625 76 697 83 657 b 156 544 110 593 130 566 b 253 490 183 522 215 504 b 383 457 291 476 334 465 l 508 435 b 599 408 545 428 576 419 b 655 369 623 397 641 384 b 682 320 668 355 677 338 b 689 264 687 302 689 283 b 678 195 689 240 685 217 b 640 138 670 173 658 154 b 570 99 623 122 599 109 b 461 85 541 90 505 85 b 265 131 374 85 309 100 b 182 282 221 162 193 213 l 54 282 b 153 66 63 187 96 115 b 383 -21 211 17 288 -12 l 343 -133 l 372 -133 b 451 -144 411 -133 437 -137 b 471 -179 464 -152 471 -163 b 453 -215 471 -195 465 -207 b 392 -228 441 -224 420 -228 b 352 -226 379 -228 366 -227 b 304 -221 339 -225 323 -224 z "},"ş":{"ha":725,"x_min":0,"x_max":0,"o":"m 231 -206 l 231 -282 b 275 -287 246 -285 261 -287 b 315 -289 289 -288 302 -289 b 444 -264 370 -289 413 -281 b 492 -176 476 -247 492 -218 b 486 -139 492 -163 490 -151 b 466 -106 482 -127 476 -116 b 428 -81 456 -97 444 -88 b 367 -67 412 -74 392 -69 l 382 -22 b 594 40 476 -20 547 0 b 664 189 641 79 664 129 b 609 339 664 255 646 305 b 428 411 572 373 512 397 l 324 428 b 256 444 296 432 273 438 b 214 467 238 451 224 459 b 193 498 204 476 197 486 b 188 538 189 509 188 523 b 196 577 188 551 190 565 b 224 611 201 590 211 601 b 278 635 238 621 256 629 b 361 644 300 641 328 644 b 435 637 391 644 416 642 b 486 615 455 632 472 624 b 519 578 500 605 511 593 b 542 526 528 563 535 546 l 651 544 b 624 621 645 571 636 597 b 572 683 612 645 594 666 b 487 725 550 701 522 715 b 357 740 452 735 409 740 b 244 726 316 740 278 735 b 153 684 209 716 179 702 b 94 618 128 666 108 644 b 72 529 79 592 72 563 b 88 444 72 496 78 467 b 136 384 99 420 115 400 b 214 344 157 368 183 355 b 321 319 244 334 280 326 l 413 306 b 478 288 439 301 461 295 b 517 262 494 280 507 272 b 535 228 526 252 532 241 b 540 189 539 216 540 203 b 502 106 540 155 528 127 b 372 75 477 85 433 75 b 234 105 314 75 268 85 b 171 210 200 125 179 160 l 54 210 b 78 114 57 173 65 141 b 131 47 91 87 108 65 b 208 3 153 28 178 14 b 304 -18 237 -7 269 -14 l 267 -124 l 296 -124 b 372 -134 333 -124 358 -127 b 392 -168 385 -141 392 -152 b 374 -200 392 -182 386 -193 b 314 -211 362 -207 342 -211 b 276 -210 301 -211 288 -211 b 231 -206 263 -209 248 -207 z "},"Š":{"ha":893,"x_min":0,"x_max":0,"o":"m 182 282 l 54 282 b 93 143 59 228 72 182 b 178 47 114 104 143 72 b 302 -8 213 22 254 4 b 461 -25 350 -19 403 -25 b 621 -3 522 -25 575 -18 b 734 58 666 12 704 32 b 802 149 764 84 787 115 b 825 261 817 184 825 221 b 753 459 825 348 801 414 b 526 556 705 504 629 536 l 388 581 b 301 603 353 587 325 595 b 245 637 278 612 259 623 b 215 684 231 650 221 666 b 206 747 209 702 206 723 b 217 810 206 769 209 791 b 257 862 225 830 238 847 b 331 896 275 876 300 888 b 444 908 361 904 399 908 b 546 897 484 908 518 905 b 616 865 574 890 597 879 b 662 810 635 850 650 832 b 690 736 673 789 683 764 l 810 760 b 777 855 802 792 791 824 b 714 938 763 886 742 913 b 606 995 686 962 650 981 b 442 1017 562 1009 507 1017 b 297 1000 390 1017 342 1011 b 182 949 253 989 214 972 b 105 863 150 925 124 897 b 76 743 86 828 76 788 b 97 625 76 697 83 657 b 156 544 110 593 130 566 b 253 490 183 522 215 504 b 383 457 291 476 334 465 l 508 435 b 599 408 545 428 576 419 b 655 369 623 397 641 384 b 682 320 668 355 677 338 b 689 264 687 302 689 283 b 678 195 689 240 685 217 b 640 138 670 173 658 154 b 570 99 623 122 599 109 b 461 85 541 90 505 85 b 265 131 374 85 309 100 b 182 282 221 162 193 213 z m 226 1265 l 388 1079 l 508 1079 l 668 1265 l 556 1265 l 449 1154 l 342 1265 z "},"š":{"ha":725,"x_min":0,"x_max":0,"o":"m 171 210 l 54 210 b 85 101 57 167 67 131 b 154 30 102 72 125 48 b 253 -10 183 12 216 -1 b 375 -22 291 -18 331 -22 b 501 -6 423 -22 465 -17 b 592 38 538 4 568 19 b 646 105 616 57 634 79 b 664 189 658 130 664 158 b 609 339 664 255 646 305 b 428 411 572 373 512 397 l 324 428 b 256 444 296 432 273 438 b 214 467 238 451 224 459 b 193 498 204 476 197 486 b 188 538 189 509 188 523 b 196 577 188 551 190 565 b 224 611 201 590 211 601 b 278 635 238 621 256 629 b 361 644 300 641 328 644 b 435 637 391 644 416 642 b 486 615 455 632 472 624 b 519 578 500 605 511 593 b 542 526 528 563 535 546 l 651 544 b 624 621 645 571 636 597 b 572 683 612 645 594 666 b 487 725 550 701 522 715 b 357 740 452 735 409 740 b 244 726 316 740 278 735 b 153 684 209 716 179 702 b 94 618 128 666 108 644 b 72 529 79 592 72 563 b 88 444 72 496 78 467 b 136 384 99 420 115 400 b 214 344 157 368 183 355 b 321 319 244 334 280 326 l 413 306 b 478 288 439 301 461 295 b 517 262 494 280 507 272 b 535 228 526 252 532 241 b 540 189 539 216 540 203 b 502 106 540 155 528 127 b 372 75 477 85 433 75 b 234 105 314 75 268 85 b 171 210 200 125 179 160 z m 425 824 l 585 1021 l 474 1021 l 365 899 l 257 1021 l 144 1021 l 304 824 z "},"Ţ":{"ha":835,"x_min":0,"x_max":0,"o":"m 353 878 l 353 0 l 372 0 l 328 -124 l 357 -124 b 433 -134 394 -124 419 -127 b 453 -168 446 -141 453 -152 b 435 -200 453 -182 447 -193 b 375 -211 423 -207 403 -211 b 337 -210 362 -211 349 -211 b 292 -206 324 -209 309 -207 l 292 -282 b 336 -287 307 -285 322 -287 b 376 -289 350 -288 363 -289 b 506 -264 431 -289 474 -281 b 553 -176 537 -247 553 -218 b 547 -139 553 -163 551 -151 b 527 -106 544 -127 537 -116 b 489 -81 517 -97 505 -88 b 428 -67 473 -74 453 -69 l 451 0 l 482 0 l 482 878 l 810 878 l 810 992 l 25 992 l 25 878 z "},"ţ":{"ha":482,"x_min":0,"x_max":0,"o":"m 176 -206 l 176 -282 b 221 -287 192 -285 207 -287 b 261 -289 235 -288 248 -289 b 390 -264 316 -289 359 -281 b 438 -176 422 -247 438 -218 b 432 -139 438 -163 436 -151 b 412 -106 428 -127 422 -116 b 374 -81 402 -97 389 -88 b 313 -67 358 -74 338 -69 l 331 -15 b 408 -9 360 -15 386 -13 b 468 7 429 -5 450 0 l 447 100 b 405 89 434 95 420 92 b 351 85 390 86 372 85 b 279 117 319 85 295 95 b 256 201 263 138 256 166 l 256 622 l 446 622 l 446 718 l 256 718 l 256 914 l 135 914 l 135 718 l 24 718 l 24 622 l 135 622 l 135 233 b 140 150 135 204 136 176 b 158 80 143 124 149 101 b 195 27 168 59 180 41 b 254 -6 210 13 230 2 l 213 -124 l 242 -124 b 317 -134 279 -124 304 -127 b 338 -168 331 -141 338 -152 b 319 -200 338 -182 331 -193 b 260 -211 307 -207 288 -211 b 222 -210 247 -211 234 -211 b 176 -206 209 -209 194 -207 z "},"Ť":{"ha":835,"x_min":0,"x_max":0,"o":"m 353 878 l 353 0 l 482 0 l 482 878 l 810 878 l 810 992 l 25 992 l 25 878 z m 196 1265 l 357 1079 l 478 1079 l 638 1265 l 525 1265 l 418 1154 l 311 1265 z "},"ť":{"ha":482,"x_min":0,"x_max":0,"o":"m 374 1018 l 338 797 l 426 797 l 486 1018 z m 135 622 l 135 233 b 142 133 135 197 137 164 b 172 54 147 103 157 76 b 232 3 187 32 207 15 b 331 -15 257 -9 290 -15 b 408 -9 360 -15 386 -13 b 468 7 429 -5 450 0 l 447 100 b 405 89 434 95 420 92 b 351 85 390 86 372 85 b 279 117 319 85 295 95 b 256 201 263 138 256 166 l 256 622 l 446 622 l 446 718 l 256 718 l 256 914 l 135 914 l 135 718 l 24 718 l 24 622 z "},"Ŧ":{"ha":835,"x_min":0,"x_max":0,"o":"m 353 431 l 353 0 l 482 0 l 482 431 l 692 431 l 692 539 l 482 539 l 482 878 l 810 878 l 810 992 l 25 992 l 25 878 l 353 878 l 353 539 l 142 539 l 142 431 z "},"ŧ":{"ha":482,"x_min":0,"x_max":0,"o":"m 24 428 l 24 332 l 135 332 l 135 233 b 142 133 135 197 137 164 b 172 54 147 103 157 76 b 232 3 187 32 207 15 b 331 -15 257 -9 290 -15 b 408 -9 360 -15 386 -13 b 468 7 429 -5 450 0 l 447 100 b 405 89 434 95 420 92 b 351 85 390 86 372 85 b 279 117 319 85 295 95 b 256 201 263 138 256 166 l 256 332 l 446 332 l 446 428 l 256 428 l 256 622 l 446 622 l 446 718 l 256 718 l 256 914 l 135 914 l 135 718 l 24 718 l 24 622 l 135 622 l 135 428 z "},"Ũ":{"ha":947,"x_min":0,"x_max":0,"o":"m 99 992 l 99 399 b 197 75 99 250 131 142 b 474 -25 262 8 354 -25 b 631 -1 532 -25 584 -17 b 749 74 678 14 717 39 b 823 203 781 108 806 151 b 849 393 840 256 849 319 l 849 992 l 721 992 l 721 393 b 665 163 721 291 702 215 b 475 86 628 112 565 86 b 284 163 386 86 322 112 b 226 393 246 213 226 290 l 226 992 z m 229 1082 l 321 1082 b 335 1133 321 1103 325 1120 b 385 1153 344 1146 361 1153 b 431 1141 401 1153 417 1149 l 474 1116 b 522 1091 488 1107 504 1099 b 582 1079 539 1083 559 1079 b 689 1120 627 1079 663 1093 b 728 1243 715 1147 728 1188 l 636 1243 b 622 1192 636 1222 631 1205 b 572 1172 613 1179 596 1172 b 526 1184 556 1172 540 1176 l 483 1209 b 435 1234 469 1218 453 1226 b 375 1246 418 1242 398 1246 b 268 1204 330 1246 294 1232 b 229 1082 242 1176 229 1136 z "},"ũ":{"ha":779,"x_min":0,"x_max":0,"o":"m 89 718 l 89 242 b 144 44 89 154 107 88 b 321 -22 180 0 239 -22 b 453 10 368 -22 412 -12 b 567 111 494 31 531 65 l 567 0 l 686 0 l 686 718 l 565 718 l 565 293 b 547 205 565 257 559 228 b 494 140 535 182 518 161 b 349 82 451 101 402 82 b 242 124 300 82 264 96 b 210 265 221 151 210 199 l 210 718 z m 149 840 l 238 840 b 251 891 238 862 242 878 b 300 910 261 903 277 910 b 344 898 316 910 331 906 l 388 873 b 435 848 402 864 418 856 b 494 836 453 840 472 836 b 599 877 539 836 574 850 b 636 999 624 904 636 945 l 547 999 b 533 949 547 977 543 961 b 486 931 524 937 508 931 b 441 942 470 931 455 934 b 397 967 427 949 412 957 b 349 992 382 976 366 984 b 290 1003 332 999 313 1003 b 186 962 246 1003 211 989 b 149 840 161 934 149 894 z "},"Ū":{"ha":947,"x_min":0,"x_max":0,"o":"m 99 992 l 99 399 b 197 75 99 250 131 142 b 474 -25 262 8 354 -25 b 631 -1 532 -25 584 -17 b 749 74 678 14 717 39 b 823 203 781 108 806 151 b 849 393 840 256 849 319 l 849 992 l 721 992 l 721 393 b 665 163 721 291 702 215 b 475 86 628 112 565 86 b 284 163 386 86 322 112 b 226 393 246 213 226 290 l 226 992 z m 269 1207 l 269 1104 l 675 1104 l 675 1207 z "},"ū":{"ha":779,"x_min":0,"x_max":0,"o":"m 89 718 l 89 242 b 144 44 89 154 107 88 b 321 -22 180 0 239 -22 b 453 10 368 -22 412 -12 b 567 111 494 31 531 65 l 567 0 l 686 0 l 686 718 l 565 718 l 565 293 b 547 205 565 257 559 228 b 494 140 535 182 518 161 b 349 82 451 101 402 82 b 242 124 300 82 264 96 b 210 265 221 151 210 199 l 210 718 z m 208 963 l 208 864 l 571 864 l 571 963 z "},"Ŭ":{"ha":947,"x_min":0,"x_max":0,"o":"m 99 992 l 99 399 b 197 75 99 250 131 142 b 474 -25 262 8 354 -25 b 631 -1 532 -25 584 -17 b 749 74 678 14 717 39 b 823 203 781 108 806 151 b 849 393 840 256 849 319 l 849 992 l 721 992 l 721 393 b 665 163 721 291 702 215 b 475 86 628 112 565 86 b 284 163 386 86 322 112 b 226 393 246 213 226 290 l 226 992 z m 375 1267 l 281 1267 b 331 1123 281 1204 297 1156 b 472 1074 365 1090 412 1074 b 614 1123 532 1074 580 1090 b 665 1267 648 1156 665 1204 l 571 1267 b 542 1182 571 1228 561 1200 b 472 1156 522 1164 499 1156 b 403 1182 444 1156 421 1164 b 375 1267 384 1200 375 1228 z "},"ŭ":{"ha":779,"x_min":0,"x_max":0,"o":"m 89 718 l 89 242 b 144 44 89 154 107 88 b 321 -22 180 0 239 -22 b 453 10 368 -22 412 -12 b 567 111 494 31 531 65 l 567 0 l 686 0 l 686 718 l 565 718 l 565 293 b 547 205 565 257 559 228 b 494 140 535 182 518 161 b 349 82 451 101 402 82 b 242 124 300 82 264 96 b 210 265 221 151 210 199 l 210 718 z m 292 1013 l 200 1013 b 250 869 200 950 217 903 b 389 819 283 836 330 819 b 528 869 448 819 495 836 b 579 1013 562 903 579 950 l 488 1013 b 458 927 488 974 478 945 b 389 900 439 909 416 900 b 320 927 362 900 339 909 b 292 1013 301 945 292 974 z "},"Ů":{"ha":947,"x_min":0,"x_max":0,"o":"m 99 992 l 99 399 b 197 75 99 250 131 142 b 474 -25 262 8 354 -25 b 631 -1 532 -25 584 -17 b 749 74 678 14 717 39 b 823 203 781 108 806 151 b 849 393 840 256 849 319 l 849 992 l 721 992 l 721 393 b 665 163 721 291 702 215 b 475 86 628 112 565 86 b 284 163 386 86 322 112 b 226 393 246 213 226 290 l 226 992 z m 328 1165 b 371 1058 328 1118 342 1082 b 472 1022 400 1034 433 1022 b 528 1031 492 1022 510 1025 b 574 1058 545 1037 561 1046 b 606 1103 588 1070 598 1085 b 618 1165 614 1120 618 1141 b 606 1228 618 1189 614 1210 b 574 1274 598 1247 588 1262 b 528 1301 561 1286 545 1295 b 472 1310 510 1307 492 1310 b 371 1274 433 1310 400 1298 b 328 1165 342 1250 328 1213 z m 472 1094 b 422 1112 451 1094 434 1100 b 404 1165 410 1123 404 1141 b 422 1223 404 1192 410 1211 b 472 1240 434 1234 451 1240 b 522 1223 494 1240 510 1234 b 540 1165 534 1211 540 1192 b 472 1094 540 1118 518 1094 z "},"ů":{"ha":779,"x_min":0,"x_max":0,"o":"m 89 718 l 89 242 b 144 44 89 154 107 88 b 321 -22 180 0 239 -22 b 453 10 368 -22 412 -12 b 567 111 494 31 531 65 l 567 0 l 686 0 l 686 718 l 565 718 l 565 293 b 547 205 565 257 559 228 b 494 140 535 182 518 161 b 349 82 451 101 402 82 b 242 124 300 82 264 96 b 210 265 221 151 210 199 l 210 718 z m 249 957 b 290 853 249 911 263 876 b 389 818 318 830 351 818 b 442 826 407 818 425 821 b 488 852 459 832 475 841 b 520 896 502 864 512 878 b 532 957 528 913 532 934 b 520 1018 532 980 528 1000 b 488 1063 512 1036 502 1050 b 442 1090 475 1075 459 1084 b 389 1099 425 1096 407 1099 b 290 1063 351 1099 318 1087 b 249 957 263 1038 249 1003 z m 389 886 b 341 903 369 886 353 892 b 324 957 329 915 324 933 b 341 1012 324 982 329 1000 b 389 1029 353 1023 369 1029 b 438 1012 410 1029 427 1023 b 456 957 450 1000 456 982 b 438 903 456 933 450 915 b 389 886 427 892 410 886 z "},"Ű":{"ha":947,"x_min":0,"x_max":0,"o":"m 99 992 l 99 399 b 197 75 99 250 131 142 b 474 -25 262 8 354 -25 b 631 -1 532 -25 584 -17 b 749 74 678 14 717 39 b 823 203 781 108 806 151 b 849 393 840 256 849 319 l 849 992 l 721 992 l 721 393 b 665 163 721 291 702 215 b 475 86 628 112 565 86 b 284 163 386 86 322 112 b 226 393 246 213 226 290 l 226 992 z m 407 1261 l 257 1074 l 368 1074 l 549 1261 z m 657 1261 l 506 1074 l 617 1074 l 799 1261 z "},"ű":{"ha":779,"x_min":0,"x_max":0,"o":"m 89 718 l 89 242 b 144 44 89 154 107 88 b 321 -22 180 0 239 -22 b 453 10 368 -22 412 -12 b 567 111 494 31 531 65 l 567 0 l 686 0 l 686 718 l 565 718 l 565 293 b 547 205 565 257 559 228 b 494 140 535 182 518 161 b 349 82 451 101 402 82 b 242 124 300 82 264 96 b 210 265 221 151 210 199 l 210 718 z m 333 1018 l 190 821 l 300 821 l 472 1018 z m 575 1018 l 432 821 l 540 821 l 714 1018 z "},"Ų":{"ha":947,"x_min":0,"x_max":0,"o":"m 636 -256 l 636 -169 b 619 -171 631 -170 626 -171 l 601 -171 b 559 -161 585 -171 571 -168 b 542 -122 547 -155 542 -142 b 563 -64 542 -104 549 -84 b 631 -1 578 -44 600 -23 b 792 131 700 23 754 67 b 849 393 830 194 849 282 l 849 992 l 721 992 l 721 393 b 665 163 721 291 702 215 b 475 86 628 112 565 86 b 284 163 386 86 322 112 b 226 393 246 213 226 290 l 226 992 l 99 992 l 99 399 b 197 75 99 250 131 142 b 474 -25 262 8 354 -25 l 493 -25 b 429 -144 450 -64 429 -104 b 466 -228 429 -181 441 -209 b 592 -258 491 -248 532 -258 b 616 -258 599 -258 607 -258 b 636 -256 625 -257 631 -256 z "},"ų":{"ha":779,"x_min":0,"x_max":0,"o":"m 89 718 l 89 242 b 144 44 89 154 107 88 b 321 -22 180 0 239 -22 b 453 10 368 -22 412 -12 b 567 111 494 31 531 65 l 567 0 l 583 0 b 490 -140 521 -45 490 -92 b 525 -222 490 -175 502 -203 b 647 -250 548 -241 589 -250 b 670 -249 655 -250 662 -250 b 692 -247 678 -249 685 -248 l 692 -165 b 673 -167 684 -166 678 -167 l 657 -167 b 616 -157 641 -167 628 -163 b 599 -119 604 -150 599 -138 b 686 0 599 -83 628 -44 l 686 718 l 565 718 l 565 293 b 547 205 565 257 559 228 b 494 140 535 182 518 161 b 349 82 451 101 402 82 b 242 124 300 82 264 96 b 210 265 221 151 210 199 l 210 718 z "},"Ŵ":{"ha":1293,"x_min":0,"x_max":0,"o":"m 17 992 l 299 0 l 429 0 l 646 829 l 867 0 l 1001 0 l 1276 992 l 1140 992 l 935 176 l 721 988 l 583 988 l 368 176 l 161 992 z m 588 1261 l 426 1074 l 540 1074 l 647 1183 l 754 1074 l 868 1074 l 708 1261 z "},"ŵ":{"ha":1018,"x_min":0,"x_max":0,"o":"m 11 718 l 219 0 l 346 0 l 508 572 l 669 0 l 797 0 l 1007 718 l 879 718 l 736 146 l 575 714 l 453 714 l 288 146 l 143 718 z m 449 1018 l 289 821 l 400 821 l 508 943 l 617 821 l 729 821 l 569 1018 z "},"Ŷ":{"ha":851,"x_min":0,"x_max":0,"o":"m 364 421 l 364 0 l 493 0 l 493 421 l 832 992 l 697 992 l 428 533 l 165 992 l 18 992 z m 365 1261 l 204 1074 l 318 1074 l 425 1183 l 532 1074 l 646 1074 l 486 1261 z "},"ŷ":{"ha":726,"x_min":0,"x_max":0,"o":"m 90 -153 l 67 -250 b 125 -265 88 -257 107 -262 b 185 -269 143 -268 163 -269 b 265 -256 216 -269 243 -265 b 321 -217 286 -247 305 -234 b 364 -153 337 -199 351 -178 b 403 -68 377 -129 390 -100 l 717 718 l 583 718 l 376 154 l 150 718 l 10 718 l 314 18 l 285 -58 b 237 -144 269 -100 253 -128 b 168 -167 221 -159 198 -167 b 90 -153 142 -167 116 -162 z m 303 1018 l 143 821 l 254 821 l 363 943 l 471 821 l 583 821 l 424 1018 z "},"Ÿ":{"ha":851,"x_min":0,"x_max":0,"o":"m 364 421 l 364 0 l 493 0 l 493 421 l 832 992 l 697 992 l 428 533 l 165 992 l 18 992 z m 228 1239 l 228 1097 l 354 1097 l 354 1239 z m 476 1239 l 476 1097 l 604 1097 l 604 1239 z "},"Ź":{"ha":814,"x_min":0,"x_max":0,"o":"m 43 99 l 43 0 l 761 0 l 781 114 l 196 114 l 764 892 l 764 992 l 53 992 l 53 879 l 613 879 z m 460 1261 l 297 1074 l 418 1074 l 610 1261 z "},"ź":{"ha":649,"x_min":0,"x_max":0,"o":"m 39 90 l 39 0 l 613 0 l 628 97 l 189 97 l 607 628 l 607 718 l 47 718 l 47 621 l 457 621 z m 399 1018 l 240 821 l 360 821 l 547 1018 z "},"Ż":{"ha":814,"x_min":0,"x_max":0,"o":"m 43 99 l 43 0 l 761 0 l 781 114 l 196 114 l 764 892 l 764 992 l 53 992 l 53 879 l 613 879 z m 346 1242 l 346 1096 l 475 1096 l 475 1242 z "},"ż":{"ha":649,"x_min":0,"x_max":0,"o":"m 39 90 l 39 0 l 613 0 l 628 97 l 189 97 l 607 628 l 607 718 l 47 718 l 47 621 l 457 621 z m 269 993 l 269 853 l 393 853 l 393 993 z "},"Ž":{"ha":814,"x_min":0,"x_max":0,"o":"m 43 99 l 43 0 l 761 0 l 781 114 l 196 114 l 764 892 l 764 992 l 53 992 l 53 879 l 613 879 z m 188 1265 l 349 1079 l 469 1079 l 629 1265 l 517 1265 l 410 1154 l 303 1265 z "},"ž":{"ha":649,"x_min":0,"x_max":0,"o":"m 39 90 l 39 0 l 613 0 l 628 97 l 189 97 l 607 628 l 607 718 l 47 718 l 47 621 l 457 621 z m 390 824 l 550 1021 l 439 1021 l 331 899 l 222 1021 l 110 1021 l 269 824 z "},"ſ":{"ha":315,"x_min":0,"x_max":0,"o":"m 97 781 l 97 0 l 218 0 l 218 783 b 252 877 218 829 229 860 b 335 903 275 894 302 903 b 376 901 348 903 361 902 b 418 892 390 899 404 896 l 438 986 b 376 999 416 993 396 997 b 315 1003 356 1002 336 1003 b 231 990 286 1003 258 998 b 162 949 205 981 182 967 b 115 881 142 931 126 908 b 97 781 103 853 97 819 z "},"ƒ":{"ha":822,"x_min":0,"x_max":0,"o":"m 3 -124 l -29 -218 b 28 -236 -12 -225 8 -231 b 96 -243 49 -241 72 -243 b 259 -190 169 -243 223 -225 b 333 -29 295 -154 319 -100 l 456 597 l 642 597 l 658 699 l 475 699 l 488 763 b 532 859 497 810 512 842 b 621 885 552 876 582 885 b 670 880 639 885 656 883 b 713 865 684 877 699 872 l 744 960 b 685 978 726 967 706 973 b 617 986 665 984 642 986 b 447 933 542 986 485 968 b 369 772 409 897 383 844 l 356 699 l 240 699 l 224 597 l 336 597 l 215 -19 b 174 -116 205 -67 191 -99 b 90 -142 156 -133 128 -142 b 45 -137 75 -142 59 -140 b 3 -124 31 -134 17 -129 z "},"Ș":{"ha":893,"x_min":0,"x_max":0,"o":"m 182 282 l 54 282 b 93 143 59 228 72 182 b 178 47 114 104 143 72 b 302 -8 213 22 254 4 b 461 -25 350 -19 403 -25 b 621 -3 522 -25 575 -18 b 734 58 666 12 704 32 b 802 149 764 84 787 115 b 825 261 817 184 825 221 b 753 459 825 348 801 414 b 526 556 705 504 629 536 l 388 581 b 301 603 353 587 325 595 b 245 637 278 612 259 623 b 215 684 231 650 221 666 b 206 747 209 702 206 723 b 217 810 206 769 209 791 b 257 862 225 830 238 847 b 331 896 275 876 300 888 b 444 908 361 904 399 908 b 546 897 484 908 518 905 b 616 865 574 890 597 879 b 662 810 635 850 650 832 b 690 736 673 789 683 764 l 810 760 b 777 855 802 792 791 824 b 714 938 763 886 742 913 b 606 995 686 962 650 981 b 442 1017 562 1009 507 1017 b 297 1000 390 1017 342 1011 b 182 949 253 989 214 972 b 105 863 150 925 124 897 b 76 743 86 828 76 788 b 97 625 76 697 83 657 b 156 544 110 593 130 566 b 253 490 183 522 215 504 b 383 457 291 476 334 465 l 508 435 b 599 408 545 428 576 419 b 655 369 623 397 641 384 b 682 320 668 355 677 338 b 689 264 687 302 689 283 b 678 195 689 240 685 217 b 640 138 670 173 658 154 b 570 99 623 122 599 109 b 461 85 541 90 505 85 b 265 131 374 85 309 100 b 182 282 221 162 193 213 z m 397 -93 l 292 -301 l 401 -301 l 535 -93 z "},"ș":{"ha":725,"x_min":0,"x_max":0,"o":"m 171 210 l 54 210 b 85 101 57 167 67 131 b 154 30 102 72 125 48 b 253 -10 183 12 216 -1 b 375 -22 291 -18 331 -22 b 501 -6 423 -22 465 -17 b 592 38 538 4 568 19 b 646 105 616 57 634 79 b 664 189 658 130 664 158 b 609 339 664 255 646 305 b 428 411 572 373 512 397 l 324 428 b 256 444 296 432 273 438 b 214 467 238 451 224 459 b 193 498 204 476 197 486 b 188 538 189 509 188 523 b 196 577 188 551 190 565 b 224 611 201 590 211 601 b 278 635 238 621 256 629 b 361 644 300 641 328 644 b 435 637 391 644 416 642 b 486 615 455 632 472 624 b 519 578 500 605 511 593 b 542 526 528 563 535 546 l 651 544 b 624 621 645 571 636 597 b 572 683 612 645 594 666 b 487 725 550 701 522 715 b 357 740 452 735 409 740 b 244 726 316 740 278 735 b 153 684 209 716 179 702 b 94 618 128 666 108 644 b 72 529 79 592 72 563 b 88 444 72 496 78 467 b 136 384 99 420 115 400 b 214 344 157 368 183 355 b 321 319 244 334 280 326 l 413 306 b 478 288 439 301 461 295 b 517 262 494 280 507 272 b 535 228 526 252 532 241 b 540 189 539 216 540 203 b 502 106 540 155 528 127 b 372 75 477 85 433 75 b 234 105 314 75 268 85 b 171 210 200 125 179 160 z m 317 -93 l 214 -296 l 319 -296 l 449 -93 z "},"Ț":{"ha":835,"x_min":0,"x_max":0,"o":"m 353 878 l 353 0 l 482 0 l 482 878 l 810 878 l 810 992 l 25 992 l 25 878 z m 353 -93 l 247 -301 l 357 -301 l 490 -93 z "},"ț":{"ha":482,"x_min":0,"x_max":0,"o":"m 135 622 l 135 233 b 142 133 135 197 137 164 b 172 54 147 103 157 76 b 232 3 187 32 207 15 b 331 -15 257 -9 290 -15 b 408 -9 360 -15 386 -13 b 468 7 429 -5 450 0 l 447 100 b 405 89 434 95 420 92 b 351 85 390 86 372 85 b 279 117 319 85 295 95 b 256 201 263 138 256 166 l 256 622 l 446 622 l 446 718 l 256 718 l 256 914 l 135 914 l 135 718 l 24 718 l 24 622 z m 242 -93 l 139 -296 l 244 -296 l 374 -93 z "},"ȷ":{"ha":313,"x_min":0,"x_max":0,"o":"m -92 -140 l -112 -236 b -53 -252 -94 -243 -74 -248 b 22 -258 -31 -256 -6 -258 b 119 -240 61 -258 93 -252 b 178 -187 144 -227 164 -210 b 208 -108 193 -165 203 -139 b 217 -8 214 -78 217 -44 l 217 718 l 96 718 l 96 -40 b 75 -126 96 -79 89 -108 b 3 -154 61 -145 37 -154 b -49 -151 -17 -154 -34 -153 b -92 -140 -65 -148 -79 -145 z "},"ʼ":{"ha":368,"x_min":0,"x_max":0,"o":"m 92 992 l 53 700 l 146 700 l 219 992 z "},"ˆ":{"ha":543,"x_min":0,"x_max":0,"o":"m 211 1018 l 51 821 l 163 821 l 271 943 l 379 821 l 492 821 l 332 1018 z "},"ˇ":{"ha":543,"x_min":0,"x_max":0,"o":"m 332 824 l 492 1021 l 381 1021 l 272 899 l 164 1021 l 51 1021 l 211 824 z "},"ˉ":{"ha":543,"x_min":0,"x_max":0,"o":"m 90 963 l 90 864 l 453 864 l 453 963 z "},"˘":{"ha":543,"x_min":0,"x_max":0,"o":"m 174 1013 l 82 1013 b 132 869 82 950 99 903 b 271 819 165 836 212 819 b 410 869 330 819 377 836 b 461 1013 444 903 461 950 l 369 1013 b 340 927 369 974 360 945 b 271 900 321 909 298 900 b 202 927 244 900 221 909 b 174 1013 183 945 174 974 z "},"˙":{"ha":543,"x_min":0,"x_max":0,"o":"m 210 993 l 210 853 l 333 853 l 333 993 z "},"˚":{"ha":543,"x_min":0,"x_max":0,"o":"m 131 957 b 172 853 131 911 144 876 b 271 818 200 830 233 818 b 324 826 289 818 307 821 b 370 852 341 832 357 841 b 402 896 384 864 394 878 b 414 957 410 913 414 934 b 402 1018 414 980 410 1000 b 370 1063 394 1036 384 1050 b 324 1090 357 1075 341 1084 b 271 1099 307 1096 289 1099 b 172 1063 233 1099 200 1087 b 131 957 144 1038 131 1003 z m 271 886 b 223 903 250 886 234 892 b 206 957 211 915 206 933 b 223 1012 206 982 211 1000 b 271 1029 234 1023 250 1029 b 320 1012 292 1029 309 1023 b 338 957 332 1000 338 982 b 320 903 338 933 332 915 b 271 886 309 892 292 886 z "},"˛":{"ha":543,"x_min":0,"x_max":0,"o":"m 371 -247 l 371 -165 b 352 -167 363 -166 357 -167 l 336 -167 b 295 -157 320 -167 307 -163 b 278 -119 284 -150 278 -138 b 365 0 278 -83 307 -44 l 263 0 b 169 -140 200 -45 169 -92 b 204 -222 169 -175 181 -203 b 326 -250 227 -241 268 -250 b 349 -249 334 -250 341 -250 b 371 -247 357 -249 364 -248 z "},"˜":{"ha":543,"x_min":0,"x_max":0,"o":"m 28 840 l 117 840 b 131 891 117 862 121 878 b 179 910 140 903 156 910 b 224 898 195 910 210 906 l 267 873 b 315 848 281 864 297 856 b 374 836 332 840 351 836 b 478 877 418 836 453 850 b 515 999 503 904 515 945 l 426 999 b 413 949 426 977 422 961 b 365 931 403 937 388 931 b 320 942 350 931 334 934 b 276 967 306 949 291 957 b 228 992 262 976 246 984 b 169 1003 211 999 192 1003 b 65 962 125 1003 90 989 b 28 840 40 934 28 894 z "},"˝":{"ha":543,"x_min":0,"x_max":0,"o":"m 153 1018 l 10 821 l 119 821 l 292 1018 z m 394 1018 l 251 821 l 360 821 l 533 1018 z "},"΄":{"ha":543,"x_min":0,"x_max":0,"o":"m 376 1035 l 246 1035 l 150 821 l 250 821 z "},"΅":{"ha":543,"x_min":0,"x_max":0,"o":"m 28 986 l 28 860 l 144 860 l 144 986 z m 399 986 l 399 860 l 517 860 l 517 986 z m 372 1035 l 251 1035 l 182 821 l 272 821 z "},"Ά":{"ha":942,"x_min":0,"x_max":0,"o":"m 407 992 l 21 0 l 154 0 l 258 276 l 683 276 l 788 0 l 926 0 l 542 992 z m 644 388 l 297 388 l 469 847 z m 261 992 l 131 992 l 49 778 l 149 778 z "},"Έ":{"ha":1022,"x_min":0,"x_max":0,"o":"m 308 992 l 308 0 l 956 0 l 976 113 l 436 113 l 436 454 l 922 454 l 922 568 l 436 568 l 436 879 l 950 879 l 950 992 z m 206 992 l 75 992 l -7 778 l 93 778 z "},"Ή":{"ha":1174,"x_min":0,"x_max":0,"o":"m 308 992 l 308 0 l 436 0 l 436 453 l 938 453 l 938 0 l 1065 0 l 1065 992 l 938 992 l 938 572 l 436 572 l 436 992 z m 206 992 l 75 992 l -7 778 l 93 778 z "},"Ί":{"ha":546,"x_min":0,"x_max":0,"o":"m 308 992 l 308 0 l 436 0 l 436 992 z m 206 992 l 75 992 l -7 778 l 93 778 z "},"Ό":{"ha":1178,"x_min":0,"x_max":0,"o":"m 647 -25 b 834 10 716 -25 778 -13 b 978 111 890 33 938 67 b 1070 276 1018 156 1048 210 b 1103 499 1092 341 1103 415 b 1069 720 1103 582 1092 656 b 976 883 1047 784 1016 839 b 833 983 937 927 889 960 b 647 1017 777 1005 715 1017 b 463 982 581 1017 519 1005 b 319 881 407 959 359 925 b 224 717 278 836 247 781 b 190 494 202 652 190 578 b 224 272 190 411 201 337 b 317 109 246 207 277 153 b 462 9 358 65 406 32 b 647 -25 518 -14 580 -25 z m 647 86 b 505 115 593 86 545 96 b 404 198 465 135 431 162 b 344 327 377 234 357 277 b 324 496 330 378 324 434 b 344 663 324 557 330 613 b 405 793 357 714 378 757 b 506 876 432 829 466 857 b 647 906 547 896 594 906 b 786 876 700 906 746 896 b 887 793 826 857 859 829 b 949 663 914 757 935 714 b 969 496 963 613 969 557 b 949 327 969 434 963 378 b 888 198 935 277 914 234 b 787 115 861 162 827 135 b 647 86 747 96 700 86 z m 215 992 l 85 992 l 3 778 l 103 778 z "},"Ύ":{"ha":1101,"x_min":0,"x_max":0,"o":"m 614 421 l 614 0 l 743 0 l 743 421 l 1082 992 l 947 992 l 678 533 l 415 992 l 268 992 z m 206 992 l 75 992 l -7 778 l 93 778 z "},"Ώ":{"ha":1128,"x_min":0,"x_max":0,"o":"m 360 108 l 154 108 l 154 0 l 517 0 l 517 96 b 366 276 447 146 397 206 b 319 522 335 346 319 428 b 337 685 319 582 325 637 b 391 807 348 733 366 774 b 483 883 416 840 446 866 b 617 910 520 901 565 910 b 746 883 667 910 710 901 b 836 807 782 866 812 840 b 890 685 860 774 878 733 b 907 522 901 637 907 582 b 863 276 907 429 892 347 b 710 96 833 205 782 145 l 710 0 l 1058 0 l 1076 108 l 863 108 b 991 288 916 158 959 218 b 1039 526 1023 357 1039 437 b 1008 740 1039 607 1029 678 b 922 893 988 801 959 852 b 789 985 885 934 841 965 b 617 1017 737 1006 680 1017 b 444 985 554 1017 496 1006 b 308 890 391 963 346 932 b 220 735 270 849 241 797 b 189 519 199 673 189 601 b 237 282 189 430 205 350 b 360 108 269 213 310 156 z m 206 992 l 75 992 l -7 778 l 93 778 z "},"ΐ":{"ha":383,"x_min":0,"x_max":0,"o":"m 94 718 l 94 179 b 135 36 94 118 108 70 b 267 -15 162 2 206 -15 b 337 -10 293 -15 316 -14 b 385 0 358 -7 374 -4 l 368 94 b 340 88 362 93 352 91 b 300 85 327 86 314 85 b 233 113 268 85 245 94 b 215 206 221 132 215 163 l 215 718 z m -74 986 l -74 860 l 43 860 l 43 986 z m 297 986 l 297 860 l 415 860 l 415 986 z m 271 1035 l 150 1035 l 81 821 l 171 821 z "},"Α":{"ha":936,"x_min":0,"x_max":0,"o":"m 401 992 l 15 0 l 149 0 l 253 276 l 678 276 l 782 0 l 921 0 l 536 992 z m 639 388 l 292 388 l 464 847 z "},"Β":{"ha":878,"x_min":0,"x_max":0,"o":"m 110 992 l 110 0 l 464 0 b 632 22 531 0 587 7 b 742 83 677 37 714 57 b 802 174 769 109 790 140 b 821 288 815 209 821 247 b 813 358 821 312 818 335 b 785 423 808 380 799 402 b 733 480 772 444 754 463 b 650 525 711 497 683 512 b 759 615 702 549 738 579 b 790 738 780 651 790 692 b 775 837 790 773 785 806 b 720 917 765 868 747 895 b 613 972 694 940 658 958 b 439 992 567 985 509 992 z m 456 572 l 235 572 l 235 886 l 435 886 b 613 850 519 886 578 874 b 665 733 648 826 665 787 b 617 613 665 681 649 641 b 456 572 584 586 531 572 z m 460 106 l 235 106 l 235 464 l 469 464 b 642 417 550 464 607 448 b 693 283 676 386 693 342 b 683 209 693 256 690 231 b 645 153 676 187 663 169 b 573 118 627 138 603 126 b 460 106 543 110 505 106 z "},"Γ":{"ha":731,"x_min":0,"x_max":0,"o":"m 110 992 l 110 0 l 238 0 l 238 879 l 714 879 l 714 992 z "},"Δ":{"ha":915,"x_min":0,"x_max":0,"o":"m 456 849 l 726 111 l 185 111 z m 393 992 l 17 0 l 899 0 l 522 992 z "},"Ε":{"ha":825,"x_min":0,"x_max":0,"o":"m 110 992 l 110 0 l 757 0 l 778 113 l 238 113 l 238 454 l 724 454 l 724 568 l 238 568 l 238 879 l 751 879 l 751 992 z "},"Ζ":{"ha":814,"x_min":0,"x_max":0,"o":"m 43 99 l 43 0 l 761 0 l 781 114 l 196 114 l 764 892 l 764 992 l 53 992 l 53 879 l 613 879 z "},"Η":{"ha":976,"x_min":0,"x_max":0,"o":"m 110 992 l 110 0 l 238 0 l 238 453 l 739 453 l 739 0 l 867 0 l 867 992 l 739 992 l 739 572 l 238 572 l 238 992 z "},"Θ":{"ha":1063,"x_min":0,"x_max":0,"o":"m 318 568 l 318 457 l 747 457 l 747 568 z m 532 -25 b 719 10 600 -25 663 -13 b 863 111 775 33 823 67 b 955 276 902 156 933 210 b 988 499 977 341 988 415 b 954 720 988 582 976 656 b 861 883 932 784 901 839 b 717 983 821 927 773 960 b 532 1017 661 1005 600 1017 b 348 982 465 1017 404 1005 b 203 881 292 959 244 925 b 109 717 163 836 132 781 b 75 494 86 652 75 578 b 108 272 75 411 86 337 b 202 109 131 207 162 153 b 347 9 242 65 291 32 b 532 -25 403 -14 464 -25 z m 532 86 b 390 115 477 86 430 96 b 289 198 349 135 316 162 b 228 327 262 234 242 277 b 208 496 215 378 208 434 b 228 663 208 557 215 613 b 290 793 242 714 262 757 b 391 876 317 829 351 857 b 532 906 431 896 478 906 b 671 876 585 906 631 896 b 772 793 711 857 744 829 b 833 663 799 757 819 714 b 854 496 847 613 854 557 b 833 327 854 434 847 378 b 772 198 819 277 799 234 b 672 115 745 162 712 135 b 532 86 631 96 585 86 z "},"Ι":{"ha":347,"x_min":0,"x_max":0,"o":"m 110 992 l 110 0 l 238 0 l 238 992 z "},"Κ":{"ha":903,"x_min":0,"x_max":0,"o":"m 110 992 l 110 0 l 239 0 l 239 372 l 403 536 l 739 0 l 886 0 l 496 621 l 850 992 l 704 992 l 239 517 l 239 992 z "},"Λ":{"ha":919,"x_min":0,"x_max":0,"o":"m 904 0 l 524 992 l 394 992 l 15 0 l 153 0 l 457 831 l 761 0 z "},"Μ":{"ha":1175,"x_min":0,"x_max":0,"o":"m 110 992 l 110 0 l 226 0 l 226 779 l 532 0 l 636 0 l 947 782 l 947 0 l 1065 0 l 1065 992 l 913 992 l 588 153 l 268 992 z "},"Ν":{"ha":974,"x_min":0,"x_max":0,"o":"m 110 992 l 110 0 l 233 0 l 233 783 l 742 0 l 864 0 l 864 992 l 740 992 l 740 204 l 236 992 z "},"Ξ":{"ha":769,"x_min":0,"x_max":0,"o":"m 90 568 l 90 456 l 676 456 l 676 568 z m 63 992 l 63 878 l 704 878 l 704 992 z m 718 114 l 56 114 l 56 0 l 697 0 z "},"Ο":{"ha":1063,"x_min":0,"x_max":0,"o":"m 532 -25 b 719 10 600 -25 663 -13 b 863 111 775 33 823 67 b 955 276 902 156 933 210 b 988 499 977 341 988 415 b 954 720 988 582 976 656 b 861 883 932 784 901 839 b 717 983 821 927 773 960 b 532 1017 661 1005 600 1017 b 348 982 465 1017 404 1005 b 203 881 292 959 244 925 b 109 717 163 836 132 781 b 75 494 86 652 75 578 b 108 272 75 411 86 337 b 202 109 131 207 162 153 b 347 9 242 65 291 32 b 532 -25 403 -14 464 -25 z m 532 86 b 390 115 477 86 430 96 b 289 198 349 135 316 162 b 228 327 262 234 242 277 b 208 496 215 378 208 434 b 228 663 208 557 215 613 b 290 793 242 714 262 757 b 391 876 317 829 351 857 b 532 906 431 896 478 906 b 671 876 585 906 631 896 b 772 793 711 857 744 829 b 833 663 799 757 819 714 b 854 496 847 613 854 557 b 833 327 854 434 847 378 b 772 198 819 277 799 234 b 672 115 745 162 712 135 b 532 86 631 96 585 86 z "},"Π":{"ha":957,"x_min":0,"x_max":0,"o":"m 719 879 l 719 0 l 849 0 l 849 992 l 110 992 l 110 0 l 238 0 l 238 879 z "},"Ρ":{"ha":869,"x_min":0,"x_max":0,"o":"m 110 992 l 110 0 l 236 0 l 236 385 l 442 385 b 621 410 514 385 574 393 b 733 478 668 426 706 449 b 792 578 761 506 781 540 b 808 697 803 616 808 656 b 792 810 808 737 803 775 b 735 904 782 846 763 877 b 623 968 708 931 671 952 b 442 992 575 984 515 992 z m 440 493 l 236 493 l 236 883 l 439 883 b 556 872 486 883 525 879 b 631 836 587 864 612 852 b 669 776 649 820 662 800 b 681 693 677 752 681 725 b 670 610 681 663 677 635 b 633 547 663 586 651 565 b 560 507 616 530 591 516 b 440 493 528 498 488 493 z "},"Σ":{"ha":799,"x_min":0,"x_max":0,"o":"m 383 508 l 43 100 l 43 0 l 744 0 l 765 114 l 190 114 l 526 508 l 211 878 l 749 878 l 749 992 l 51 992 l 51 893 z "},"Τ":{"ha":835,"x_min":0,"x_max":0,"o":"m 353 878 l 353 0 l 482 0 l 482 878 l 810 878 l 810 992 l 25 992 l 25 878 z "},"Υ":{"ha":851,"x_min":0,"x_max":0,"o":"m 364 421 l 364 0 l 493 0 l 493 421 l 832 992 l 697 992 l 428 533 l 165 992 l 18 992 z "},"Φ":{"ha":1149,"x_min":0,"x_max":0,"o":"m 511 125 l 511 0 l 636 0 l 636 125 b 812 158 699 130 758 141 b 953 234 866 176 913 201 b 1048 356 994 267 1025 308 b 1082 529 1071 405 1082 463 b 1050 700 1082 594 1071 651 b 959 824 1029 749 998 791 b 818 903 920 858 873 884 b 636 938 763 922 703 934 l 636 1047 l 511 1047 l 511 936 b 328 902 444 932 384 921 b 188 822 273 883 226 856 b 97 697 149 788 119 746 b 65 526 76 648 65 591 b 99 354 65 460 76 402 b 191 233 121 306 152 266 b 332 157 230 200 277 175 b 511 125 387 139 446 129 z m 951 531 b 872 312 951 432 925 359 b 636 228 818 264 740 236 l 636 833 b 874 744 743 826 822 796 b 951 531 925 691 951 620 z m 197 531 b 272 744 197 620 222 691 b 511 833 322 796 402 826 l 511 228 b 278 310 410 236 333 264 b 197 531 224 357 197 431 z "},"Χ":{"ha":886,"x_min":0,"x_max":0,"o":"m 365 524 l 15 0 l 156 0 l 435 422 l 722 0 l 871 0 l 513 518 l 833 992 l 696 992 l 442 615 l 192 992 l 42 992 z "},"Ψ":{"ha":1150,"x_min":0,"x_max":0,"o":"m 219 992 l 93 992 l 93 708 b 124 512 93 631 103 566 b 209 378 144 458 172 413 b 341 300 246 344 290 318 b 511 269 392 282 449 272 l 511 0 l 639 0 l 639 269 b 810 304 702 273 759 285 b 942 388 862 324 906 351 b 1027 521 979 424 1007 468 b 1057 707 1047 574 1057 636 l 1057 992 l 931 992 l 931 701 b 853 459 931 591 905 510 b 639 375 801 408 730 380 l 639 992 l 511 992 l 511 375 b 388 399 465 378 424 386 b 296 458 351 412 321 431 b 239 558 271 484 252 517 b 219 701 226 598 219 646 z "},"Ω":{"ha":1032,"x_min":0,"x_max":0,"o":"m 263 108 l 57 108 l 57 0 l 419 0 l 419 96 b 269 276 350 146 300 206 b 222 522 238 346 222 428 b 240 685 222 582 228 637 b 294 807 251 733 269 774 b 386 883 318 840 349 866 b 519 910 423 901 468 910 b 649 883 569 910 613 901 b 739 807 685 866 715 840 b 792 685 763 774 781 733 b 810 522 804 637 810 582 b 765 276 810 429 795 347 b 613 96 736 205 685 145 l 613 0 l 961 0 l 979 108 l 765 108 b 894 288 819 158 862 218 b 942 526 926 357 942 437 b 911 740 942 607 931 678 b 825 893 891 801 862 852 b 692 985 788 934 744 965 b 519 1017 640 1006 582 1017 b 347 985 456 1017 399 1006 b 211 890 294 963 249 932 b 123 735 173 849 144 797 b 92 519 102 673 92 601 b 140 282 92 430 108 350 b 263 108 172 213 213 156 z "},"Ϊ":{"ha":347,"x_min":0,"x_max":0,"o":"m 110 992 l 110 0 l 238 0 l 238 992 z m -14 1239 l -14 1097 l 113 1097 l 113 1239 z m 235 1239 l 235 1097 l 363 1097 l 363 1239 z "},"Ϋ":{"ha":851,"x_min":0,"x_max":0,"o":"m 364 421 l 364 0 l 493 0 l 493 421 l 832 992 l 697 992 l 428 533 l 165 992 l 18 992 z m 228 1239 l 228 1097 l 354 1097 l 354 1239 z m 476 1239 l 476 1097 l 604 1097 l 604 1239 z "},"ά":{"ha":935,"x_min":0,"x_max":0,"o":"m 729 347 l 874 718 l 757 718 l 674 492 b 568 677 647 573 612 635 b 388 740 525 719 464 740 b 148 638 285 740 205 706 b 63 350 91 570 63 474 b 82 203 63 297 69 248 b 140 85 95 157 114 118 b 236 6 165 51 197 25 b 374 -22 275 -13 321 -22 b 478 -1 413 -22 448 -15 b 557 56 509 14 535 32 b 614 135 579 79 598 105 b 657 225 630 164 644 194 l 693 107 b 751 6 709 57 728 23 b 838 -21 773 -12 802 -21 b 892 -12 856 -21 874 -18 l 931 0 l 910 89 b 888 83 905 87 898 85 b 860 79 878 80 869 79 b 812 103 838 79 822 87 b 776 190 801 119 789 148 z m 382 78 b 240 152 320 78 272 103 b 190 351 207 202 190 268 b 242 568 190 448 207 520 b 386 640 276 616 324 640 b 467 622 418 640 445 634 b 527 569 490 610 510 592 b 573 480 544 545 559 516 b 614 356 586 444 600 403 b 566 239 597 312 581 273 b 516 152 551 205 534 176 b 456 97 498 128 478 110 b 382 78 434 84 410 78 z m 568 1035 l 438 1035 l 342 821 l 442 821 z "},"έ":{"ha":739,"x_min":0,"x_max":0,"o":"m 92 536 b 124 435 92 495 103 462 b 207 376 146 408 174 388 b 109 313 166 364 134 343 b 72 197 84 283 72 244 b 148 37 72 130 97 76 b 385 -22 198 -3 277 -22 b 527 -4 441 -22 489 -16 b 620 45 566 8 597 24 b 672 118 644 66 661 90 b 692 208 683 146 690 176 l 578 208 b 564 151 575 187 570 168 b 533 109 557 135 547 121 b 478 83 519 97 501 89 b 389 74 455 77 425 74 b 240 105 319 74 270 84 b 196 203 211 126 196 158 b 358 324 196 283 250 324 l 499 324 l 499 418 l 354 418 b 247 445 307 418 271 427 b 211 532 223 463 211 492 b 254 615 211 568 225 596 b 389 644 283 635 328 644 b 470 635 421 644 448 641 b 524 608 492 628 510 619 b 555 570 538 597 548 584 b 571 525 562 556 567 541 l 679 543 b 652 621 674 571 665 597 b 599 683 640 645 622 666 b 515 725 577 701 549 715 b 394 740 482 735 442 740 b 256 724 341 740 295 735 b 163 681 218 714 187 699 b 109 617 138 663 121 642 b 92 536 97 592 92 565 z m 543 1035 l 413 1035 l 317 821 l 417 821 z "},"ή":{"ha":793,"x_min":0,"x_max":0,"o":"m 93 718 l 93 0 l 214 0 l 214 425 b 232 513 214 461 220 491 b 285 578 244 536 262 557 b 356 622 306 598 330 613 b 436 636 383 631 409 636 b 547 595 486 636 523 622 b 583 454 571 568 583 521 l 583 -269 l 704 -269 l 704 478 b 645 674 704 564 684 629 b 464 740 606 718 545 740 b 329 710 417 740 372 730 b 213 608 287 689 248 656 l 213 718 z m 574 1035 l 443 1035 l 347 821 l 447 821 z "},"ί":{"ha":383,"x_min":0,"x_max":0,"o":"m 94 718 l 94 179 b 135 36 94 118 108 70 b 267 -15 162 2 206 -15 b 337 -10 293 -15 316 -14 b 385 0 358 -7 374 -4 l 368 94 b 340 88 362 93 352 91 b 300 85 327 86 314 85 b 233 113 268 85 245 94 b 215 206 221 132 215 163 l 215 718 z m 328 1035 l 197 1035 l 101 821 l 201 821 z "},"ΰ":{"ha":769,"x_min":0,"x_max":0,"o":"m 385 -22 b 507 -5 429 -22 470 -16 b 601 51 544 7 575 25 b 662 153 627 77 647 111 b 683 307 676 196 683 247 l 683 718 l 561 718 l 561 307 b 521 135 561 228 548 171 b 386 81 494 99 449 81 b 251 135 324 81 279 99 b 208 307 222 171 208 228 l 208 718 l 88 718 l 88 307 b 108 153 88 247 94 196 b 165 51 121 111 140 77 b 258 -5 190 25 221 7 b 385 -22 295 -16 338 -22 z m 153 986 l 153 860 l 269 860 l 269 986 z m 524 986 l 524 860 l 642 860 l 642 986 z m 497 1035 l 376 1035 l 307 821 l 397 821 z "},"α":{"ha":935,"x_min":0,"x_max":0,"o":"m 729 347 l 874 718 l 757 718 l 674 492 b 568 677 647 573 612 635 b 388 740 525 719 464 740 b 148 638 285 740 205 706 b 63 350 91 570 63 474 b 82 203 63 297 69 248 b 140 85 95 157 114 118 b 236 6 165 51 197 25 b 374 -22 275 -13 321 -22 b 478 -1 413 -22 448 -15 b 557 56 509 14 535 32 b 614 135 579 79 598 105 b 657 225 630 164 644 194 l 693 107 b 751 6 709 57 728 23 b 838 -21 773 -12 802 -21 b 892 -12 856 -21 874 -18 l 931 0 l 910 89 b 888 83 905 87 898 85 b 860 79 878 80 869 79 b 812 103 838 79 822 87 b 776 190 801 119 789 148 z m 382 78 b 240 152 320 78 272 103 b 190 351 207 202 190 268 b 242 568 190 448 207 520 b 386 640 276 616 324 640 b 467 622 418 640 445 634 b 527 569 490 610 510 592 b 573 480 544 545 559 516 b 614 356 586 444 600 403 b 566 239 597 312 581 273 b 516 152 551 205 534 176 b 456 97 498 128 478 110 b 382 78 434 84 410 78 z "},"β":{"ha":811,"x_min":0,"x_max":0,"o":"m 93 700 l 93 -269 l 211 -269 l 211 94 b 317 10 239 56 274 27 b 450 -17 360 -8 405 -17 b 559 1 487 -17 523 -11 b 655 53 595 12 627 30 b 723 144 683 77 706 107 b 749 278 740 181 749 226 b 731 384 749 318 743 353 b 685 464 720 415 704 442 b 620 517 666 486 645 504 b 544 547 596 531 570 541 b 640 624 582 564 614 589 b 678 758 665 658 678 703 b 660 854 678 793 672 825 b 608 932 649 884 631 910 b 519 984 584 954 555 972 b 396 1003 484 997 443 1003 b 173 922 300 1003 226 976 b 93 700 120 869 93 794 z m 211 314 l 211 690 b 256 851 211 762 226 815 b 396 904 285 886 332 904 b 557 749 503 904 557 852 b 507 618 557 690 540 647 b 382 575 474 589 432 575 l 333 575 l 333 478 l 404 478 b 574 422 481 478 538 459 b 628 274 610 384 628 335 b 578 133 628 214 611 168 b 433 82 546 99 497 82 b 355 94 407 82 381 86 b 283 135 328 103 305 116 b 231 207 262 153 245 177 b 211 314 218 237 211 272 z "},"γ":{"ha":725,"x_min":0,"x_max":0,"o":"m 300 26 l 300 -269 l 421 -269 l 421 22 l 715 718 l 581 718 l 364 160 l 150 718 l 10 718 z "},"δ":{"ha":796,"x_min":0,"x_max":0,"o":"m 68 313 b 92 176 68 263 76 217 b 159 70 107 134 130 99 b 265 2 188 41 223 18 b 403 -22 306 -14 352 -22 b 552 6 460 -22 510 -13 b 657 81 594 25 629 50 b 719 188 685 112 706 148 b 740 314 733 228 740 270 b 726 415 740 350 736 384 b 681 503 717 446 702 475 b 599 587 660 532 633 559 b 474 669 564 614 523 642 l 397 712 b 338 748 374 724 354 736 b 299 783 321 759 308 771 b 285 826 289 795 285 810 b 425 908 285 881 331 908 b 538 883 473 908 511 900 b 592 788 564 866 582 834 l 700 803 b 626 947 695 862 671 910 b 428 1003 581 984 515 1003 b 313 988 383 1003 345 998 b 233 949 280 978 253 965 b 186 892 212 932 196 913 b 171 825 176 870 171 848 b 209 722 171 785 184 751 b 314 640 234 694 269 666 b 221 595 281 629 250 614 b 142 526 191 576 165 553 b 88 431 120 498 102 467 b 68 313 75 396 68 356 z m 408 586 b 490 538 437 571 464 555 b 555 478 515 520 537 500 b 598 404 573 457 587 432 b 614 310 609 376 614 345 b 563 143 614 242 597 187 b 406 78 529 100 477 78 b 252 138 341 78 290 98 b 196 315 215 178 196 238 b 249 485 196 380 213 437 b 408 586 284 534 337 568 z "},"ε":{"ha":739,"x_min":0,"x_max":0,"o":"m 92 536 b 124 435 92 495 103 462 b 207 376 146 408 174 388 b 109 313 166 364 134 343 b 72 197 84 283 72 244 b 148 37 72 130 97 76 b 385 -22 198 -3 277 -22 b 527 -4 441 -22 489 -16 b 620 45 566 8 597 24 b 672 118 644 66 661 90 b 692 208 683 146 690 176 l 578 208 b 564 151 575 187 570 168 b 533 109 557 135 547 121 b 478 83 519 97 501 89 b 389 74 455 77 425 74 b 240 105 319 74 270 84 b 196 203 211 126 196 158 b 358 324 196 283 250 324 l 499 324 l 499 418 l 354 418 b 247 445 307 418 271 427 b 211 532 223 463 211 492 b 254 615 211 568 225 596 b 389 644 283 635 328 644 b 470 635 421 644 448 641 b 524 608 492 628 510 619 b 555 570 538 597 548 584 b 571 525 562 556 567 541 l 679 543 b 652 621 674 571 665 597 b 599 683 640 645 622 666 b 515 725 577 701 549 715 b 394 740 482 735 442 740 b 256 724 341 740 295 735 b 163 681 218 714 187 699 b 109 617 138 663 121 642 b 92 536 97 592 92 565 z "},"ζ":{"ha":660,"x_min":0,"x_max":0,"o":"m 69 331 b 132 124 69 244 90 176 b 339 4 174 73 243 33 l 431 -22 b 527 -67 476 -35 508 -50 b 556 -126 546 -83 556 -103 b 540 -183 556 -148 550 -166 b 508 -224 529 -199 519 -212 l 582 -285 b 611 -256 591 -276 601 -267 b 640 -217 621 -244 631 -231 b 661 -169 648 -202 656 -186 b 669 -114 667 -152 669 -133 b 624 2 669 -67 654 -28 b 471 81 593 32 542 58 l 383 107 b 297 142 349 117 320 129 b 239 188 273 155 254 170 b 207 252 224 206 213 228 b 197 340 200 277 197 306 b 241 504 197 396 212 450 b 351 657 270 558 307 609 b 494 792 395 705 442 750 b 638 901 545 833 593 870 l 638 992 l 111 992 l 111 893 l 472 893 b 341 787 431 863 388 827 b 210 654 294 747 251 702 b 110 500 170 606 137 555 b 69 331 83 445 69 389 z "},"η":{"ha":793,"x_min":0,"x_max":0,"o":"m 93 718 l 93 0 l 214 0 l 214 425 b 232 513 214 461 220 491 b 285 578 244 536 262 557 b 356 622 306 598 330 613 b 436 636 383 631 409 636 b 547 595 486 636 523 622 b 583 454 571 568 583 521 l 583 -269 l 704 -269 l 704 478 b 645 674 704 564 684 629 b 464 740 606 718 545 740 b 329 710 417 740 372 730 b 213 608 287 689 248 656 l 213 718 z "},"θ":{"ha":825,"x_min":0,"x_max":0,"o":"m 411 -24 b 665 101 520 -24 605 18 b 756 486 725 185 756 313 b 668 876 756 661 726 791 b 417 1003 610 960 526 1003 b 163 875 309 1003 225 960 b 69 486 100 790 69 660 b 159 101 69 313 99 185 b 411 -24 219 18 303 -24 z m 414 903 b 513 877 453 903 486 894 b 578 804 539 860 561 836 b 615 690 594 773 607 735 b 631 542 624 646 629 596 l 193 542 b 208 690 195 596 200 646 b 247 804 217 735 229 773 b 313 877 264 836 286 860 b 414 903 341 894 374 903 z m 415 76 b 315 102 376 76 343 85 b 248 176 288 119 265 144 b 209 291 231 208 218 246 b 193 442 200 336 195 386 l 632 442 b 618 290 630 386 625 336 b 582 175 611 245 599 206 b 516 102 565 144 543 119 b 415 76 489 85 455 76 z "},"ι":{"ha":383,"x_min":0,"x_max":0,"o":"m 94 718 l 94 179 b 135 36 94 118 108 70 b 267 -15 162 2 206 -15 b 337 -10 293 -15 316 -14 b 385 0 358 -7 374 -4 l 368 94 b 340 88 362 93 352 91 b 300 85 327 86 314 85 b 233 113 268 85 245 94 b 215 206 221 132 215 163 l 215 718 z "}}}
